<svg width="190" height="25" xmlns="http://www.w3.org/2000/svg">
 <style type="text/css">.st0{fill:none;}
	.st1{fill:#F7BC60;}
	.st2{fill:#FFFFFF;}
	.st3{stroke:#00B6C5;}</style>
 <defs>
  <pattern viewBox="200 -70.9 200 300" id="Polka_Dot_Pattern" patternUnits="userSpaceOnUse" height="1000" width="1000" y="144">
   <g id="svg_1">
    <rect id="svg_2" height="400" width="400" class="st0" y="-70.9" x="0"/>
    <rect id="svg_3" height="400" width="400" class="st1" y="-70.9" x="0"/>
    <g id="svg_4">
     <path id="svg_5" d="m61.8,-71.7c0,0.1 0,0.1 0,0.2c-0.1,0.1 -0.1,0.1 -0.2,0.1c-0.1,0.1 -0.1,0.3 -0.1,0.4c-0.2,0.1 0,0.2 0,0.3c0,0 0,0.1 0,0.2c0,0.1 0,0.3 0.1,0.4c0.1,0.2 0.3,0.4 0.4,0.5c0.2,0.1 0.4,0.6 0.6,0.6c0.2,0 0.4,-0.1 0.5,-0.1c0.2,0 0.4,0 0.6,-0.1c0.2,-0.1 0.1,-0.3 0.3,-0.5c0.1,-0.1 0.3,0 0.4,-0.1c0.2,-0.1 0.3,-0.3 0.4,-0.5c0,-0.1 0,-0.1 0,-0.2c0,-0.1 0.1,-0.2 0.1,-0.3c0,-0.1 -0.1,-0.1 -0.1,-0.2c0,-0.1 0,-0.2 0,-0.3c0,-0.2 0,-0.4 -0.1,-0.5c-0.4,-0.7 -1.2,-0.9 -2,-0.8c-0.2,0 -0.3,0.1 -0.4,0.2c-0.2,0.1 -0.1,0.2 -0.3,0.2c-0.1,0 -0.2,0.1 -0.2,0.2c0,0.3 0,0.3 0,0.3c0,0.1 0,0.1 0,0" class="st2"/>
     <path id="svg_6" d="m54.1,-71.7c0,0.1 0,0.1 0,0.2c-0.1,0.1 -0.1,0.1 -0.2,0.1c-0.1,0.1 -0.1,0.3 -0.1,0.4c-0.2,0.1 0,0.2 0,0.3c0,0 0,0.1 0,0.2c0,0.1 0,0.3 0.1,0.4c0.1,0.2 0.3,0.4 0.4,0.5c0.2,0.1 0.4,0.6 0.6,0.6c0.2,0 0.4,-0.1 0.5,-0.1c0.2,0 0.4,0 0.6,-0.1c0.2,-0.1 0.1,-0.3 0.3,-0.5c0.1,-0.1 0.3,0 0.4,-0.1c0.2,-0.1 0.3,-0.3 0.4,-0.5c0,-0.1 0,-0.1 0,-0.2c0,-0.1 0.1,-0.2 0.1,-0.3c0,-0.1 -0.1,-0.1 -0.1,-0.2c0,-0.1 0,-0.2 0,-0.3c0,-0.2 0,-0.4 -0.1,-0.5c-0.4,-0.7 -1.2,-0.9 -2,-0.8c-0.2,0 -0.3,0.1 -0.4,0.2c-0.2,0.1 -0.1,0.2 -0.3,0.2c-0.1,0 -0.2,0.1 -0.2,0.2c0,0.3 0,0.3 0,0.3c0,0.1 0,0.1 0,0" class="st2"/>
     <path id="svg_7" d="m46.4,-71.7c0,0.1 0,0.1 0,0.2c-0.1,0.1 -0.1,0.1 -0.2,0.1c-0.1,0.1 -0.1,0.3 -0.1,0.4c-0.2,0.1 0,0.2 0,0.3c0,0 0,0.1 0,0.2c0,0.1 0,0.3 0.1,0.4c0.1,0.2 0.3,0.4 0.4,0.5c0.2,0.1 0.4,0.6 0.6,0.6c0.2,0 0.4,-0.1 0.5,-0.1c0.2,0 0.4,0 0.6,-0.1c0.2,-0.1 0.1,-0.3 0.3,-0.5c0.1,-0.1 0.3,0 0.4,-0.1c0.2,-0.1 0.3,-0.3 0.4,-0.5c0,-0.1 0,-0.1 0,-0.2c0,-0.1 0.1,-0.2 0.1,-0.3c0,-0.1 -0.1,-0.1 -0.1,-0.2c0,-0.1 0,-0.2 0,-0.3c0,-0.2 0,-0.4 -0.1,-0.5c-0.4,-0.7 -1.2,-0.9 -2,-0.8c-0.2,0 -0.3,0.1 -0.4,0.2c-0.2,0.1 -0.1,0.2 -0.3,0.2c-0.1,0 -0.2,0.1 -0.2,0.2c0,0.3 0,0.3 0,0.3c0,0.1 0,0.1 0,0" class="st2"/>
     <path id="svg_8" d="m38.8,-71.7c0,0.1 0,0.1 0,0.2c-0.1,0.1 -0.1,0.1 -0.2,0.1c-0.1,0.1 -0.1,0.3 -0.1,0.4c-0.2,0.1 0,0.2 0,0.3c0,0 0,0.1 0,0.2c0,0.1 0,0.3 0.1,0.4c0.1,0.2 0.3,0.4 0.4,0.5c0.2,0.1 0.4,0.6 0.6,0.6c0.2,0 0.4,-0.1 0.5,-0.1c0.2,0 0.4,0 0.6,-0.1c0.2,-0.1 0.1,-0.3 0.3,-0.5c0.1,-0.1 0.3,0 0.4,-0.1c0.2,-0.1 0.3,-0.3 0.4,-0.5c0,-0.1 0,-0.1 0,-0.2c0,-0.1 0.1,-0.2 0.1,-0.3c0,-0.1 -0.1,-0.1 -0.1,-0.2c0,-0.1 0,-0.2 0,-0.3c0,-0.2 0,-0.4 -0.1,-0.5c-0.4,-0.7 -1.2,-0.9 -2,-0.8c-0.2,0 -0.3,0.1 -0.4,0.2c-0.2,0.1 -0.1,0.2 -0.3,0.2c-0.1,0 -0.2,0.1 -0.2,0.2c0,0.3 0,0.3 0,0.3c0,0.1 0,0.1 0,0" class="st2"/>
     <path id="svg_9" d="m31.1,-71.7c0,0.1 0,0.1 0,0.2c-0.1,0.1 -0.1,0.1 -0.2,0.1c-0.1,0.1 -0.1,0.3 -0.1,0.4c-0.2,0.1 0,0.2 0,0.3c0,0 0,0.1 0,0.2c0,0.1 0,0.3 0.1,0.4c0.1,0.2 0.3,0.4 0.4,0.5c0.2,0.1 0.4,0.6 0.6,0.6c0.2,0 0.4,-0.1 0.5,-0.1c0.2,0 0.4,0 0.6,-0.1c0.2,-0.1 0.1,-0.3 0.3,-0.5c0.1,-0.1 0.3,0 0.4,-0.1c0.2,-0.1 0.3,-0.3 0.4,-0.5c0,-0.1 0,-0.1 0,-0.2c0,-0.1 0.1,-0.2 0.1,-0.3c0,-0.1 -0.1,-0.1 -0.1,-0.2c0,-0.1 0,-0.2 0,-0.3c0,-0.2 0,-0.4 -0.1,-0.5c-0.4,-0.7 -1.2,-0.9 -2,-0.8c-0.2,0 -0.3,0.1 -0.4,0.2c-0.2,0.1 -0.1,0.2 -0.3,0.2c-0.1,0 -0.2,0.1 -0.2,0.2c0,0.3 0,0.3 0,0.3c0,0.1 0,0.1 0,0" class="st2"/>
     <path id="svg_10" d="m23.4,-71.7c0,0.1 0,0.1 0,0.2c-0.1,0.1 -0.1,0.1 -0.2,0.1c-0.1,0.1 -0.1,0.3 -0.1,0.4c-0.2,0.1 0,0.2 0,0.3c0,0 0,0.1 0,0.2c0,0.1 0,0.3 0.1,0.4c0.1,0.2 0.3,0.4 0.4,0.5c0.2,0.1 0.4,0.6 0.6,0.6c0.2,0 0.4,-0.1 0.5,-0.1c0.2,0 0.4,0 0.6,-0.1c0.2,-0.1 0.1,-0.3 0.3,-0.5c0.1,-0.1 0.3,0 0.4,-0.1c0.2,-0.1 0.3,-0.3 0.4,-0.5c0,-0.1 0,-0.1 0,-0.2c0,-0.1 0.1,-0.2 0.1,-0.3c0,-0.1 -0.1,-0.1 -0.1,-0.2c0,-0.1 0,-0.2 0,-0.3c0,-0.2 0,-0.4 -0.1,-0.5c-0.4,-0.7 -1.2,-0.9 -2,-0.8c-0.2,0 -0.3,0.1 -0.4,0.2c-0.2,0.1 -0.1,0.2 -0.3,0.2c-0.1,0 -0.2,0.1 -0.2,0.2c0,0.3 0,0.3 0,0.3c0,0.1 0,0.1 0,0" class="st2"/>
     <path id="svg_11" d="m15.8,-71.7c0,0.1 0,0.1 0,0.2c-0.1,0.1 -0.1,0.1 -0.2,0.1c-0.1,0.1 -0.1,0.3 -0.1,0.4c-0.2,0.1 0,0.2 0,0.3c0,0 0,0.1 0,0.2c0,0.1 0,0.3 0.1,0.4c0.1,0.2 0.3,0.4 0.4,0.5c0.2,0.1 0.4,0.6 0.6,0.6c0.2,0 0.4,-0.1 0.5,-0.1c0.2,0 0.4,0 0.6,-0.1c0.2,-0.1 0.1,-0.3 0.3,-0.5c0.1,-0.1 0.3,0 0.4,-0.1c0.2,-0.1 0.3,-0.3 0.4,-0.5c0,-0.1 0,-0.1 0,-0.2c0,-0.1 0.1,-0.2 0.1,-0.3c0,-0.1 -0.1,-0.1 -0.1,-0.2c0,-0.1 0,-0.2 0,-0.3c0,-0.2 0,-0.4 -0.1,-0.5c-0.4,-0.7 -1.2,-0.9 -2,-0.8c-0.2,0 -0.3,0.1 -0.4,0.2c-0.2,0.1 -0.1,0.2 -0.3,0.2c-0.1,0 -0.2,0.1 -0.2,0.2c0,0.3 0,0.3 0,0.3c0,0.1 0,0.1 0,0" class="st2"/>
     <path id="svg_12" d="m8.1,-71.7c0,0.1 0,0.1 0,0.2c-0.1,0.1 -0.1,0.1 -0.2,0.2c-0.1,0.1 -0.1,0.3 -0.1,0.4c-0.2,0.1 0,0.2 0,0.3c0,0 0,0.1 0,0.2c0,0.1 0,0.3 0.1,0.4c0.1,0.2 0.3,0.4 0.4,0.5c0.2,0.1 0.4,0.6 0.6,0.6c0.2,0 0.4,-0.1 0.5,-0.1c0.2,0 0.4,0 0.6,-0.1c0.2,-0.1 0.1,-0.3 0.3,-0.5c0.1,-0.1 0.3,0 0.4,-0.1c0.2,-0.1 0.3,-0.3 0.4,-0.5c0,-0.1 0,-0.1 0,-0.2c0,-0.1 0.1,-0.2 0.1,-0.3c0,-0.1 -0.1,-0.1 -0.1,-0.2c0,-0.1 0,-0.2 0,-0.3c0,-0.2 0,-0.4 -0.1,-0.5c-0.4,-0.7 -1.2,-0.9 -2,-0.8c-0.2,0 -0.3,0.1 -0.4,0.2c-0.2,0.1 -0.1,0.2 -0.3,0.2c-0.1,0 -0.2,0.1 -0.2,0.2c0,0.2 0,0.2 0,0.2c0,0.1 0,0.1 0,0" class="st2"/>
     <path id="svg_13" d="m0.4,-71.7c0,0.1 0,0.1 0,0.2c-0.1,0.1 -0.1,0.1 -0.2,0.1c-0.1,0.1 -0.1,0.3 -0.1,0.4c-0.2,0.1 0,0.2 0,0.3c0,0 0,0.1 0,0.2c0,0.1 0,0.3 0.1,0.4c0.1,0.2 0.3,0.4 0.4,0.5c0.2,0.2 0.4,0.6 0.6,0.7c0.2,0 0.4,-0.1 0.5,-0.1c0.2,0 0.4,0 0.6,-0.1c0.2,-0.1 0.1,-0.3 0.3,-0.5c0.1,-0.1 0.3,0 0.4,-0.1c0.2,-0.1 0.3,-0.3 0.4,-0.5c0,-0.1 0,-0.1 0,-0.2c0,-0.1 0.1,-0.2 0.1,-0.3c0,-0.1 -0.1,-0.1 -0.1,-0.2c0,-0.1 0,-0.2 0,-0.3c0,-0.2 0,-0.4 -0.1,-0.5c-0.4,-0.7 -1.2,-0.9 -2,-0.8c-0.2,0 -0.3,0.1 -0.4,0.2c-0.2,0.1 -0.1,0.2 -0.3,0.2c-0.1,0 -0.2,0.1 -0.2,0.2c0,0.2 0,0.2 0,0.2c0,0.1 0,0.1 0,0" class="st2"/>
    </g>
    <g id="svg_14">
     <path id="svg_15" d="m69.4,-71.7c0,0.1 0,0.1 0,0.2c-0.1,0.1 -0.1,0.1 -0.2,0.1c-0.1,0.1 -0.1,0.3 -0.1,0.4c-0.2,0.1 0,0.2 0,0.3c0,0 0,0.1 0,0.2c0,0.1 0,0.3 0.1,0.4c0.1,0.2 0.3,0.4 0.4,0.5c0.2,0.1 0.4,0.6 0.6,0.6c0.2,0 0.4,-0.1 0.5,-0.1c0.2,0 0.4,0 0.6,-0.1c0.2,-0.1 0.1,-0.3 0.3,-0.5c0.1,-0.1 0.3,0 0.4,-0.1c0.2,-0.1 0.3,-0.3 0.4,-0.5c0,-0.1 0,-0.1 0,-0.2c0,-0.1 0.1,-0.2 0.1,-0.3c0,-0.1 -0.1,-0.1 -0.1,-0.2c0,-0.1 0,-0.2 0,-0.3c0,-0.2 0,-0.4 -0.1,-0.5c-0.4,-0.7 -1.2,-0.9 -2,-0.8c-0.2,0 -0.3,0.1 -0.4,0.2c-0.2,0.1 -0.1,0.2 -0.3,0.2c-0.1,0 -0.2,0.1 -0.2,0.2c0,0.3 0,0.3 0,0.3c0,0.1 0,0.1 0,0" class="st2"/>
    </g>
    <path id="svg_16" d="m0.5,-71.7c0,0.1 0,0.1 0,0.2c-0.1,0.1 -0.1,0.1 -0.2,0.1c-0.1,0.1 -0.1,0.3 -0.1,0.4c-0.2,0.1 0,0.2 0,0.3c0,0 0,0.1 0,0.2c0,0.1 0,0.3 0.1,0.4c0.1,0.2 0.3,0.4 0.4,0.5c0.2,0.2 0.3,0.6 0.6,0.7c0.2,0 0.4,-0.1 0.5,-0.1c0.2,0 0.4,0 0.6,-0.1c0.2,-0.1 0.1,-0.3 0.3,-0.5c0.1,-0.1 0.3,0 0.4,-0.1c0.2,-0.1 0.3,-0.3 0.4,-0.5c0,-0.1 0,-0.1 0,-0.2c0,-0.1 0.1,-0.2 0.1,-0.3c0,-0.1 -0.1,-0.1 -0.1,-0.2c0,-0.1 0,-0.2 0,-0.3c0,-0.2 0,-0.4 -0.1,-0.5c-0.4,-0.7 -1.2,-0.9 -2,-0.8c-0.2,0 -0.3,0.1 -0.4,0.2c-0.2,0.1 -0.1,0.2 -0.3,0.2c-0.1,0 -0.2,0.1 -0.2,0.2c0,0.2 0,0.2 0,0.2c0,0.1 0,0.1 0,0" class="st2"/>
    <g id="svg_17">
     <g id="svg_18">
      <path id="svg_19" d="m69.4,-64c0,0.1 0,0.1 0,0.2c-0.1,0.1 -0.1,0.1 -0.2,0.1c-0.1,0.1 -0.1,0.3 -0.1,0.4c-0.2,0.1 0,0.2 0,0.3c0,0 0,0.1 0,0.2c0,0.1 0,0.3 0.1,0.4c0.1,0.2 0.3,0.4 0.4,0.5c0.2,0.1 0.4,0.6 0.6,0.6c0.2,0 0.4,-0.1 0.5,-0.1c0.2,0 0.4,0 0.6,-0.1c0.2,-0.1 0.1,-0.3 0.3,-0.5c0.1,-0.1 0.3,0 0.4,-0.1c0.2,-0.1 0.3,-0.3 0.4,-0.5c0,-0.1 0,-0.1 0,-0.2c0,-0.1 0.1,-0.2 0.1,-0.3c0,-0.1 -0.1,-0.1 -0.1,-0.2c0,-0.1 0,-0.2 0,-0.3c0,-0.2 0,-0.4 -0.1,-0.5c-0.4,-0.7 -1.2,-0.9 -2,-0.8c-0.2,0 -0.3,0.1 -0.4,0.2c-0.2,0.1 -0.1,0.2 -0.3,0.2c-0.1,0 -0.2,0.1 -0.2,0.2c0,0.3 0,0.2 0,0.3c0,0 0,0 0,0" class="st2"/>
      <path id="svg_20" d="m61.8,-64c0,0.1 0,0.1 0,0.2c-0.1,0.1 -0.1,0.1 -0.2,0.1c-0.1,0.1 -0.1,0.3 -0.1,0.4c-0.2,0.1 0,0.2 0,0.3c0,0 0,0.1 0,0.2c0,0.1 0,0.3 0.1,0.4c0.1,0.2 0.3,0.4 0.4,0.5c0.2,0.1 0.4,0.6 0.6,0.6c0.2,0 0.4,-0.1 0.5,-0.1c0.2,0 0.4,0 0.6,-0.1c0.2,-0.1 0.1,-0.3 0.3,-0.5c0.1,-0.1 0.3,0 0.4,-0.1c0.2,-0.1 0.3,-0.3 0.4,-0.5c0,-0.1 0,-0.1 0,-0.2c0,-0.1 0.1,-0.2 0.1,-0.3c0,-0.1 -0.1,-0.1 -0.1,-0.2c0,-0.1 0,-0.2 0,-0.3c0,-0.2 0,-0.4 -0.1,-0.5c-0.4,-0.7 -1.2,-0.9 -2,-0.8c-0.2,0 -0.3,0.1 -0.4,0.2c-0.2,0.1 -0.1,0.2 -0.3,0.2c-0.1,0 -0.2,0.1 -0.2,0.2c0,0.3 0,0.2 0,0.3c0,0 0,0 0,0" class="st2"/>
      <path id="svg_21" d="m54.1,-64c0,0.1 0,0.1 0,0.2c-0.1,0.1 -0.1,0.1 -0.2,0.1c-0.1,0.1 -0.1,0.3 -0.1,0.4c-0.2,0.1 0,0.2 0,0.3c0,0 0,0.1 0,0.2c0,0.1 0,0.3 0.1,0.4c0.1,0.2 0.3,0.4 0.4,0.5c0.2,0.1 0.4,0.6 0.6,0.6c0.2,0 0.4,-0.1 0.5,-0.1c0.2,0 0.4,0 0.6,-0.1c0.2,-0.1 0.1,-0.3 0.3,-0.5c0.1,-0.1 0.3,0 0.4,-0.1c0.2,-0.1 0.3,-0.3 0.4,-0.5c0,-0.1 0,-0.1 0,-0.2c0,-0.1 0.1,-0.2 0.1,-0.3c0,-0.1 -0.1,-0.1 -0.1,-0.2c0,-0.1 0,-0.2 0,-0.3c0,-0.2 0,-0.4 -0.1,-0.5c-0.4,-0.7 -1.2,-0.9 -2,-0.8c-0.2,0 -0.3,0.1 -0.4,0.2c-0.2,0.1 -0.1,0.2 -0.3,0.2c-0.1,0 -0.2,0.1 -0.2,0.2c0,0.3 0,0.2 0,0.3c0,0 0,0 0,0" class="st2"/>
      <path id="svg_22" d="m46.5,-64c0,0.1 0,0.1 0,0.2c-0.1,0.1 -0.1,0.1 -0.2,0.1c-0.1,0.1 -0.1,0.3 -0.1,0.4c-0.2,0.1 0,0.2 0,0.3c0,0 0,0.1 0,0.2c0,0.1 0,0.3 0.1,0.4c0.1,0.2 0.3,0.4 0.4,0.5c0.2,0.1 0.4,0.6 0.6,0.6c0.2,0 0.4,-0.1 0.5,-0.1c0.2,0 0.4,0 0.6,-0.1c0.2,-0.1 0.1,-0.3 0.3,-0.5c0.1,-0.1 0.3,0 0.4,-0.1c0.2,-0.1 0.3,-0.3 0.4,-0.5c0,-0.1 0,-0.1 0,-0.2c0,-0.1 0.1,-0.2 0.1,-0.3c0,-0.1 -0.1,-0.1 -0.1,-0.2c0,-0.1 0,-0.2 0,-0.3c0,-0.2 0,-0.4 -0.1,-0.5c-0.4,-0.7 -1.2,-0.9 -2,-0.8c-0.2,0 -0.3,0.1 -0.4,0.2c-0.2,0.1 -0.1,0.2 -0.3,0.2c-0.1,0 -0.2,0.1 -0.2,0.2c0,0.3 0,0.2 0,0.3c0,0 0,0 0,0" class="st2"/>
      <path id="svg_23" d="m38.8,-64c0,0.1 0,0.1 0,0.2c-0.1,0.1 -0.1,0.1 -0.2,0.1c-0.1,0.1 -0.1,0.3 -0.1,0.4c-0.2,0.1 0,0.2 0,0.3c0,0 0,0.1 0,0.2c0,0.1 0,0.3 0.1,0.4c0.1,0.2 0.3,0.4 0.4,0.5c0.2,0.1 0.4,0.6 0.6,0.6c0.2,0 0.4,-0.1 0.5,-0.1c0.2,0 0.4,0 0.6,-0.1c0.2,-0.1 0.1,-0.3 0.3,-0.5c0.1,-0.1 0.3,0 0.4,-0.1c0.2,-0.1 0.3,-0.3 0.4,-0.5c0,-0.1 0,-0.1 0,-0.2c0,-0.1 0.1,-0.2 0.1,-0.3c0,-0.1 -0.1,-0.1 -0.1,-0.2c0,-0.1 0,-0.2 0,-0.3c0,-0.2 0,-0.4 -0.1,-0.5c-0.4,-0.7 -1.2,-0.9 -2,-0.8c-0.2,0 -0.3,0.1 -0.4,0.2c-0.2,0.1 -0.1,0.2 -0.3,0.2c-0.1,0 -0.2,0.1 -0.2,0.2c0,0.3 0,0.2 0,0.3c0,0 0,0 0,0" class="st2"/>
      <path id="svg_24" d="m31.1,-64c0,0.1 0,0.1 0,0.2c-0.1,0.1 -0.1,0.1 -0.2,0.1c-0.1,0.1 -0.1,0.3 -0.1,0.4c-0.2,0.1 0,0.2 0,0.3c0,0 0,0.1 0,0.2c0,0.1 0,0.3 0.1,0.4c0.1,0.2 0.3,0.4 0.4,0.5c0.2,0.1 0.4,0.6 0.6,0.6c0.2,0 0.4,-0.1 0.5,-0.1c0.2,0 0.4,0 0.6,-0.1c0.2,-0.1 0.1,-0.3 0.3,-0.5c0.1,-0.1 0.3,0 0.4,-0.1c0.2,-0.1 0.3,-0.3 0.4,-0.5c0,-0.1 0,-0.1 0,-0.2c0,-0.1 0.1,-0.2 0.1,-0.3c0,-0.1 -0.1,-0.1 -0.1,-0.2c0,-0.1 0,-0.2 0,-0.3c0,-0.2 0,-0.4 -0.1,-0.5c-0.4,-0.7 -1.2,-0.9 -2,-0.8c-0.2,0 -0.3,0.1 -0.4,0.2c-0.2,0.1 -0.1,0.2 -0.3,0.2c-0.1,0 -0.2,0.1 -0.2,0.2c0,0.3 0,0.2 0,0.3c0,0 0,0 0,0" class="st2"/>
      <path id="svg_25" d="m23.5,-64c0,0.1 0,0.1 0,0.2c-0.1,0.1 -0.1,0.1 -0.2,0.1c-0.1,0.1 -0.1,0.3 -0.1,0.4c-0.2,0.1 0,0.2 0,0.3c0,0 0,0.1 0,0.2c0,0.1 0,0.3 0.1,0.4c0.1,0.2 0.3,0.4 0.4,0.5c0.2,0.1 0.4,0.6 0.6,0.6c0.2,0 0.4,-0.1 0.5,-0.1c0.2,0 0.4,0 0.6,-0.1c0.2,-0.1 0.1,-0.3 0.3,-0.5c0.1,-0.1 0.3,0 0.4,-0.1c0.2,-0.1 0.3,-0.3 0.4,-0.5c0,-0.1 0,-0.1 0,-0.2c0,-0.1 0.1,-0.2 0.1,-0.3c0,-0.1 -0.1,-0.1 -0.1,-0.2c0,-0.1 0,-0.2 0,-0.3c0,-0.2 0,-0.4 -0.1,-0.5c-0.4,-0.7 -1.2,-0.9 -2,-0.8c-0.2,0 -0.3,0.1 -0.4,0.2c-0.2,0.1 -0.1,0.2 -0.3,0.2c-0.1,0 -0.2,0.1 -0.2,0.2c0,0.3 0,0.2 0,0.3c0,0 0,0 0,0" class="st2"/>
      <path id="svg_26" d="m15.8,-64c0,0.1 0,0.1 0,0.2c-0.1,0.1 -0.1,0.1 -0.2,0.1c-0.1,0.1 -0.1,0.3 -0.1,0.4c-0.2,0.1 0,0.2 0,0.3c0,0 0,0.1 0,0.2c0,0.1 0,0.3 0.1,0.4c0.1,0.2 0.3,0.4 0.4,0.5c0.2,0.1 0.4,0.6 0.6,0.6c0.2,0 0.4,-0.1 0.5,-0.1c0.2,0 0.4,0 0.6,-0.1c0.2,-0.1 0.1,-0.3 0.3,-0.5c0.1,-0.1 0.3,0 0.4,-0.1c0.2,-0.1 0.3,-0.3 0.4,-0.5c0,-0.1 0,-0.1 0,-0.2c0,-0.1 0.1,-0.2 0.1,-0.3c0,-0.1 -0.1,-0.1 -0.1,-0.2c0,-0.1 0,-0.2 0,-0.3c0,-0.2 0,-0.4 -0.1,-0.5c-0.4,-0.7 -1.2,-0.9 -2,-0.8c-0.2,0 -0.3,0.1 -0.4,0.2c-0.2,0.1 -0.1,0.2 -0.3,0.2c-0.1,0 -0.2,0.1 -0.2,0.2c0,0.3 0,0.2 0,0.3c0,0 0,0 0,0" class="st2"/>
      <path id="svg_27" d="m8.2,-64c0,0.1 0,0.1 0,0.2c-0.1,0.1 -0.2,0.1 -0.2,0.1c-0.1,0.1 -0.1,0.3 -0.1,0.4c-0.2,0.1 0,0.2 0,0.3c0,0 0,0.1 0,0.2c0,0.1 0,0.3 0.1,0.4c0,0.2 0.2,0.4 0.3,0.5c0.2,0.1 0.4,0.6 0.6,0.6c0.2,0 0.4,-0.1 0.5,-0.1c0.2,0 0.4,0 0.6,-0.1c0.2,-0.1 0.1,-0.3 0.3,-0.5c0.1,-0.1 0.3,0 0.4,-0.1c0.2,-0.1 0.3,-0.3 0.4,-0.5c0,-0.1 0,-0.1 0,-0.2c0,-0.1 0.1,-0.2 0.1,-0.3c0,-0.1 -0.1,-0.1 -0.1,-0.2c0,-0.1 0,-0.2 0,-0.3c0,-0.2 0,-0.4 -0.1,-0.5c-0.4,-0.7 -1.2,-0.9 -2,-0.8c-0.2,0 -0.3,0.1 -0.4,0.2c-0.2,0.1 -0.1,0.2 -0.3,0.2c-0.1,0 -0.2,0.1 -0.2,0.2c0.1,0.3 0.1,0.2 0.1,0.3c-0.1,0 -0.1,0 0,0" class="st2"/>
      <path id="svg_28" d="m0.5,-64c0,0.1 0,0.1 0,0.2c-0.1,0.1 -0.1,0.1 -0.2,0.1c-0.1,0.1 -0.1,0.3 -0.1,0.4c-0.2,0.1 0,0.2 0,0.3c0,0 0,0.1 0,0.2c0,0.1 0,0.3 0.1,0.4c0.1,0.2 0.3,0.4 0.4,0.5c0.2,0.1 0.4,0.6 0.6,0.6c0.2,0 0.4,-0.1 0.5,-0.1c0.2,0 0.4,0 0.6,-0.1c0.2,-0.1 0.1,-0.3 0.3,-0.5c0.1,0 0.3,0.1 0.4,0c0.2,-0.1 0.3,-0.3 0.4,-0.5c0,-0.1 0,-0.1 0,-0.2c0,-0.1 0.1,-0.2 0.1,-0.3c0,-0.1 -0.1,-0.1 -0.1,-0.2c0,-0.1 0,-0.2 0,-0.3c0,-0.2 0,-0.4 -0.1,-0.5c-0.4,-0.7 -1.2,-0.9 -2,-0.8c-0.2,0 -0.3,0.1 -0.4,0.2c-0.2,0.1 -0.1,0.2 -0.3,0.2c-0.1,0 -0.2,0.1 -0.2,0.2c0,0.2 0,0.1 0,0.2c0,0 0,0 0,0" class="st2"/>
     </g>
     <g id="svg_29">
      <path id="svg_30" d="m69.4,-56.3c0,0.1 0,0.1 0,0.2c-0.1,0.1 -0.1,0.1 -0.2,0.1c-0.1,0.1 -0.1,0.3 -0.1,0.4c-0.2,0.1 0,0.2 0,0.3c0,0 0,0.1 0,0.2c0,0.1 0,0.3 0.1,0.4c0.1,0.2 0.3,0.4 0.4,0.5c0.2,0.1 0.4,0.6 0.6,0.6c0.2,0 0.4,-0.1 0.5,-0.1c0.2,0 0.4,0 0.6,-0.1c0.2,-0.1 0.1,-0.3 0.3,-0.5c0.1,-0.1 0.3,0 0.4,-0.1c0.2,-0.1 0.3,-0.3 0.4,-0.5c0,-0.1 0,-0.1 0,-0.2c0,-0.1 0.1,-0.2 0.1,-0.3c0,-0.1 -0.1,-0.1 -0.1,-0.2c0,-0.1 0,-0.2 0,-0.3c0,-0.2 0,-0.4 -0.1,-0.5c-0.4,-0.7 -1.2,-0.9 -2,-0.8c-0.2,0 -0.3,0.1 -0.4,0.2c-0.2,0.1 -0.1,0.2 -0.3,0.2c-0.1,0 -0.2,0.1 -0.2,0.2c0,0.2 0,0.2 0,0.3c0,0 0,0 0,0" class="st2"/>
      <path id="svg_31" d="m61.8,-56.3c0,0.1 0,0.1 0,0.2c-0.1,0.1 -0.1,0.1 -0.2,0.1c-0.1,0.1 -0.1,0.3 -0.1,0.4c-0.2,0.1 0,0.2 0,0.3c0,0 0,0.1 0,0.2c0,0.1 0,0.3 0.1,0.4c0.1,0.2 0.3,0.4 0.4,0.5c0.2,0.1 0.4,0.6 0.6,0.6c0.2,0 0.4,-0.1 0.5,-0.1c0.2,0 0.4,0 0.6,-0.1c0.2,-0.1 0.1,-0.3 0.3,-0.5c0.1,-0.1 0.3,0 0.4,-0.1c0.2,-0.1 0.3,-0.3 0.4,-0.5c0,-0.1 0,-0.1 0,-0.2c0,-0.1 0.1,-0.2 0.1,-0.3c0,-0.1 -0.1,-0.1 -0.1,-0.2c0,-0.1 0,-0.2 0,-0.3c0,-0.2 0,-0.4 -0.1,-0.5c-0.4,-0.7 -1.2,-0.9 -2,-0.8c-0.2,0 -0.3,0.1 -0.4,0.2c-0.2,0.1 -0.1,0.2 -0.3,0.2c-0.1,0 -0.2,0.1 -0.2,0.2c0,0.2 0,0.2 0,0.3c0,0 0,0 0,0" class="st2"/>
      <path id="svg_32" d="m54.1,-56.3c0,0.1 0,0.1 0,0.2c-0.1,0 -0.1,0 -0.2,0.1c-0.1,0.1 -0.1,0.3 -0.1,0.4c-0.2,0.1 0,0.2 0,0.3c0,0 0,0.1 0,0.2c0,0.1 0,0.3 0.1,0.4c0.1,0.2 0.3,0.4 0.4,0.5c0.2,0.1 0.4,0.6 0.6,0.6c0.2,0 0.4,-0.1 0.5,-0.1c0.2,0 0.4,0 0.6,-0.1c0.2,-0.1 0.1,-0.3 0.3,-0.5c0.1,-0.1 0.3,0 0.4,-0.1c0.2,-0.1 0.3,-0.3 0.4,-0.5c0,-0.1 0,-0.1 0,-0.2c0,-0.1 0.1,-0.2 0.1,-0.3c0,-0.1 -0.1,-0.1 -0.1,-0.2c0,-0.1 0,-0.2 0,-0.3c0,-0.2 0,-0.4 -0.1,-0.5c-0.4,-0.7 -1.2,-0.9 -2,-0.8c-0.2,0 -0.3,0.1 -0.4,0.2c-0.2,0.1 -0.1,0.2 -0.3,0.2c-0.1,0 -0.2,0.1 -0.2,0.2c0,0.2 0,0.2 0,0.3c0,0 0,0 0,0" class="st2"/>
      <path id="svg_33" d="m46.5,-56.3c0,0.1 0,0.1 0,0.2c-0.1,0.1 -0.1,0.1 -0.2,0.1c-0.1,0.1 -0.1,0.3 -0.1,0.4c-0.2,0.1 0,0.2 0,0.3c0,0 0,0.1 0,0.2c0,0.1 0,0.3 0.1,0.4c0.1,0.2 0.3,0.4 0.4,0.5c0.2,0.1 0.4,0.6 0.6,0.6c0.2,0 0.4,-0.1 0.5,-0.1c0.2,0 0.4,0 0.6,-0.1c0.2,-0.1 0.1,-0.3 0.3,-0.5c0.1,-0.1 0.3,0 0.4,-0.1c0.2,-0.1 0.3,-0.3 0.4,-0.5c0,-0.1 0,-0.1 0,-0.2c0,-0.1 0.1,-0.2 0.1,-0.3c0,-0.1 -0.1,-0.1 -0.1,-0.2c0,-0.1 0,-0.2 0,-0.3c0,-0.2 0,-0.4 -0.1,-0.5c-0.4,-0.7 -1.2,-0.9 -2,-0.8c-0.2,0 -0.3,0.1 -0.4,0.2c-0.2,0.1 -0.1,0.2 -0.3,0.2c-0.1,0 -0.2,0.1 -0.2,0.2c0,0.2 0,0.2 0,0.3c0,0 0,0 0,0" class="st2"/>
      <path id="svg_34" d="m38.8,-56.3c0,0.1 0,0.1 0,0.2c-0.1,0.1 -0.1,0.1 -0.2,0.1c-0.1,0.1 -0.1,0.3 -0.1,0.4c-0.2,0.1 0,0.2 0,0.3c0,0 0,0.1 0,0.2c0,0.1 0,0.3 0.1,0.4c0.1,0.2 0.3,0.4 0.4,0.5c0.2,0.1 0.4,0.6 0.6,0.6c0.2,0 0.4,-0.1 0.5,-0.1c0.2,0 0.4,0 0.6,-0.1c0.2,-0.1 0.1,-0.3 0.3,-0.5c0.1,-0.1 0.3,0 0.4,-0.1c0.2,-0.1 0.3,-0.3 0.4,-0.5c0,-0.1 0,-0.1 0,-0.2c0,-0.1 0.1,-0.2 0.1,-0.3c0,-0.1 -0.1,-0.1 -0.1,-0.2c0,-0.1 0,-0.2 0,-0.3c0,-0.2 0,-0.4 -0.1,-0.5c-0.4,-0.7 -1.2,-0.9 -2,-0.8c-0.2,0 -0.3,0.1 -0.4,0.2c-0.2,0.1 -0.1,0.2 -0.3,0.2c-0.1,0 -0.2,0.1 -0.2,0.2c0,0.2 0,0.2 0,0.3c0,0 0,0 0,0" class="st2"/>
      <path id="svg_35" d="m31.1,-56.3c0,0.1 0,0.1 0,0.2c-0.1,0.1 -0.1,0.1 -0.2,0.1c-0.1,0.1 -0.1,0.3 -0.1,0.4c-0.2,0.1 0,0.2 0,0.3c0,0 0,0.1 0,0.2c0,0.1 0,0.3 0.1,0.4c0.1,0.2 0.3,0.4 0.4,0.5c0.2,0.1 0.4,0.6 0.6,0.6c0.2,0 0.4,-0.1 0.5,-0.1c0.2,0 0.4,0 0.6,-0.1c0.2,-0.1 0.1,-0.3 0.3,-0.5c0.1,-0.1 0.3,0 0.4,-0.1c0.2,-0.1 0.3,-0.3 0.4,-0.5c0,-0.1 0,-0.1 0,-0.2c0,-0.1 0.1,-0.2 0.1,-0.3c0,-0.1 -0.1,-0.1 -0.1,-0.2c0,-0.1 0,-0.2 0,-0.3c0,-0.2 0,-0.4 -0.1,-0.5c-0.4,-0.7 -1.2,-0.9 -2,-0.8c-0.2,0 -0.3,0.1 -0.4,0.2c-0.2,0.1 -0.1,0.2 -0.3,0.2c-0.1,0 -0.2,0.1 -0.2,0.2c0,0.2 0,0.2 0,0.3c0,0 0,0 0,0" class="st2"/>
      <path id="svg_36" d="m23.5,-56.3c0,0.1 0,0.1 0,0.2c-0.1,0.1 -0.1,0.1 -0.2,0.1c-0.1,0.1 -0.1,0.3 -0.1,0.4c-0.2,0.1 0,0.2 0,0.3c0,0 0,0.1 0,0.2c0,0.1 0,0.3 0.1,0.4c0.1,0.2 0.3,0.4 0.4,0.5c0.2,0.1 0.4,0.6 0.6,0.6c0.2,0 0.4,-0.1 0.5,-0.1c0.2,0 0.4,0 0.6,-0.1c0.2,-0.1 0.1,-0.3 0.3,-0.5c0.1,-0.1 0.3,0 0.4,-0.1c0.2,-0.1 0.3,-0.3 0.4,-0.5c0,-0.1 0,-0.1 0,-0.2c0,-0.1 0.1,-0.2 0.1,-0.3c0,-0.1 -0.1,-0.1 -0.1,-0.2c0,-0.1 0,-0.2 0,-0.3c0,-0.2 0,-0.4 -0.1,-0.5c-0.4,-0.7 -1.2,-0.9 -2,-0.8c-0.2,0 -0.3,0.1 -0.4,0.2c-0.2,0.1 -0.1,0.2 -0.3,0.2c-0.1,0 -0.2,0.1 -0.2,0.2c0,0.2 0,0.2 0,0.3c0,0 0,0 0,0" class="st2"/>
      <path id="svg_37" d="m15.8,-56.3c0,0.1 0,0.1 0,0.2c-0.1,0.1 -0.1,0.1 -0.2,0.1c-0.1,0.1 -0.1,0.3 -0.1,0.4c-0.2,0.1 0,0.2 0,0.3c0,0 0,0.1 0,0.2c0,0.1 0,0.3 0.1,0.4c0.1,0.2 0.3,0.4 0.4,0.5c0.2,0.1 0.4,0.6 0.6,0.6c0.2,0 0.4,-0.1 0.5,-0.1c0.2,0 0.4,0 0.6,-0.1c0.2,-0.1 0.1,-0.3 0.3,-0.5c0.1,-0.1 0.3,0 0.4,-0.1c0.2,-0.1 0.3,-0.3 0.4,-0.5c0,-0.1 0,-0.1 0,-0.2c0,-0.1 0.1,-0.2 0.1,-0.3c0,-0.1 -0.1,-0.1 -0.1,-0.2c0,-0.1 0,-0.2 0,-0.3c0,-0.2 0,-0.4 -0.1,-0.5c-0.4,-0.7 -1.2,-0.9 -2,-0.8c-0.2,0 -0.3,0.1 -0.4,0.2c-0.2,0.1 -0.1,0.2 -0.3,0.2c-0.1,0 -0.2,0.1 -0.2,0.2c0,0.2 0,0.2 0,0.3c0,0 0,0 0,0" class="st2"/>
      <path id="svg_38" d="m8.2,-56.3c0,0.1 0,0.1 0,0.2c-0.1,0 -0.2,0 -0.2,0.1c-0.1,0.1 -0.1,0.3 -0.1,0.4c-0.2,0.1 0,0.2 0,0.3c0,0 0,0.1 0,0.2c0,0.1 0,0.3 0.1,0.4c0.1,0.2 0.3,0.4 0.4,0.5c0.2,0.1 0.4,0.6 0.6,0.6c0.2,0 0.4,-0.1 0.5,-0.1c0.2,0 0.4,0 0.6,-0.1c0.2,-0.1 0.1,-0.3 0.3,-0.5c0.1,-0.1 0.3,0 0.4,-0.1c0.2,-0.1 0.3,-0.3 0.4,-0.5c0,-0.1 0,-0.1 0,-0.2c0,-0.1 0.1,-0.2 0.1,-0.3c0,-0.1 -0.1,-0.1 -0.1,-0.2c0,-0.1 0,-0.2 0,-0.3c0,-0.2 0,-0.4 -0.1,-0.5c-0.4,-0.7 -1.2,-0.9 -2,-0.8c-0.2,0 -0.3,0.1 -0.4,0.2c-0.2,0.1 -0.1,0.2 -0.3,0.2c-0.1,0 -0.2,0.1 -0.2,0.2c0,0.2 0,0.2 0,0.3c-0.1,0 -0.1,0 0,0" class="st2"/>
      <path id="svg_39" d="m0.5,-56.3c0,0.1 0,0.1 0,0.2c-0.1,0.1 -0.1,0.1 -0.2,0.1c-0.1,0.1 -0.1,0.3 -0.1,0.4c-0.2,0.1 0,0.2 0,0.3c0,0 0,0.1 0,0.2c0,0.1 0,0.3 0.1,0.4c0.1,0.2 0.3,0.4 0.4,0.5c0.2,0.1 0.4,0.6 0.6,0.6c0.2,0 0.4,-0.1 0.5,-0.1c0.2,0 0.4,0 0.6,-0.1c0.2,-0.1 0.1,-0.3 0.3,-0.5c0.1,-0.1 0.3,0 0.4,-0.1c0.2,-0.1 0.3,-0.3 0.4,-0.5c0,-0.1 0,-0.1 0,-0.2c0,-0.1 0.1,-0.2 0.1,-0.3c0,-0.1 -0.1,-0.1 -0.1,-0.2c0,-0.1 0,-0.2 0,-0.3c0,-0.2 0,-0.4 -0.1,-0.5c-0.4,-0.7 -1.2,-0.9 -2,-0.8c-0.2,0 -0.3,0.1 -0.4,0.2c-0.2,0.1 -0.1,0.2 -0.3,0.2c-0.1,0 -0.2,0.1 -0.2,0.2c0,0.2 0,0.2 0,0.3c0,0 0,0 0,0" class="st2"/>
     </g>
     <g id="svg_40">
      <path id="svg_41" d="m69.4,-48.7c0,0.1 0,0.1 0,0.2c-0.1,0.1 -0.1,0.1 -0.2,0.1c-0.1,0.1 -0.1,0.3 -0.1,0.4c-0.2,0.1 0,0.2 0,0.3c0,0 0,0.1 0,0.2c0,0.1 0,0.3 0.1,0.4c0.1,0.2 0.3,0.4 0.4,0.5c0.2,0.1 0.4,0.6 0.6,0.6c0.2,0 0.4,-0.1 0.5,-0.1c0.2,0 0.4,0 0.6,-0.1c0.2,-0.1 0.1,-0.3 0.3,-0.5c0.1,-0.1 0.3,0 0.4,-0.1c0.2,-0.1 0.3,-0.3 0.4,-0.5c0,-0.1 0,-0.1 0,-0.2c0,-0.1 0.1,-0.2 0.1,-0.3c0,-0.1 -0.1,-0.1 -0.1,-0.2c0,-0.1 0,-0.2 0,-0.3c0,-0.2 0,-0.4 -0.1,-0.5c-0.4,-0.7 -1.2,-0.9 -2,-0.8c-0.2,0 -0.3,0.1 -0.4,0.2c-0.2,0.1 -0.1,0.2 -0.3,0.2c-0.1,0 -0.2,0.1 -0.2,0.2c0,0.3 0,0.2 0,0.3c0,0 0,0 0,0" class="st2"/>
      <path id="svg_42" d="m61.8,-48.7c0,0.1 0,0.1 0,0.2c-0.1,0.1 -0.1,0.1 -0.2,0.1c-0.1,0.1 -0.1,0.3 -0.1,0.4c-0.2,0.1 0,0.2 0,0.3c0,0 0,0.1 0,0.2c0,0.1 0,0.3 0.1,0.4c0.1,0.2 0.3,0.4 0.4,0.5c0.2,0.1 0.4,0.6 0.6,0.6c0.2,0 0.4,-0.1 0.5,-0.1c0.2,0 0.4,0 0.6,-0.1c0.2,-0.1 0.1,-0.3 0.3,-0.5c0.1,-0.1 0.3,0 0.4,-0.1c0.2,-0.1 0.3,-0.3 0.4,-0.5c0,-0.1 0,-0.1 0,-0.2c0,-0.1 0.1,-0.2 0.1,-0.3c0,-0.1 -0.1,-0.1 -0.1,-0.2c0,-0.1 0,-0.2 0,-0.3c0,-0.2 0,-0.4 -0.1,-0.5c-0.4,-0.7 -1.2,-0.9 -2,-0.8c-0.2,0 -0.3,0.1 -0.4,0.2c-0.2,0.1 -0.1,0.2 -0.3,0.2c-0.1,0 -0.2,0.1 -0.2,0.2c0,0.3 0,0.2 0,0.3c0,0 0,0 0,0" class="st2"/>
      <path id="svg_43" d="m54.1,-48.7c0,0.1 0,0.1 0,0.2c-0.1,0.1 -0.1,0.1 -0.2,0.1c-0.1,0.1 -0.1,0.3 -0.1,0.4c-0.2,0.1 0,0.2 0,0.3c0,0 0,0.1 0,0.2c0,0.1 0,0.3 0.1,0.4c0.1,0.2 0.3,0.4 0.4,0.5c0.2,0.1 0.4,0.6 0.6,0.6c0.2,0 0.4,-0.1 0.5,-0.1c0.2,0 0.4,0 0.6,-0.1c0.2,-0.1 0.1,-0.3 0.3,-0.5c0.1,-0.1 0.3,0 0.4,-0.1c0.2,-0.1 0.3,-0.3 0.4,-0.5c0,-0.1 0,-0.1 0,-0.2c0,-0.1 0.1,-0.2 0.1,-0.3c0,-0.1 -0.1,-0.1 -0.1,-0.2c0,-0.1 0,-0.2 0,-0.3c0,-0.2 0,-0.4 -0.1,-0.5c-0.4,-0.7 -1.2,-0.9 -2,-0.8c-0.2,0 -0.3,0.1 -0.4,0.2c-0.2,0.1 -0.1,0.2 -0.3,0.2c-0.1,0 -0.2,0.1 -0.2,0.2c0,0.3 0,0.2 0,0.3c0,0 0,0 0,0" class="st2"/>
      <path id="svg_44" d="m46.5,-48.7c0,0.1 0,0.1 0,0.2c-0.1,0.1 -0.1,0.1 -0.2,0.1c-0.1,0.1 -0.1,0.3 -0.1,0.4c-0.2,0.1 0,0.2 0,0.3c0,0 0,0.1 0,0.2c0,0.1 0,0.3 0.1,0.4c0.1,0.2 0.3,0.4 0.4,0.5c0.2,0.1 0.4,0.6 0.6,0.6c0.2,0 0.4,-0.1 0.5,-0.1c0.2,0 0.4,0 0.6,-0.1c0.2,-0.1 0.1,-0.3 0.3,-0.5c0.1,-0.1 0.3,0 0.4,-0.1c0.2,-0.1 0.3,-0.3 0.4,-0.5c0,-0.1 0,-0.1 0,-0.2c0,-0.1 0.1,-0.2 0.1,-0.3c0,-0.1 -0.1,-0.1 -0.1,-0.2c0,-0.1 0,-0.2 0,-0.3c0,-0.2 0,-0.4 -0.1,-0.5c-0.4,-0.7 -1.2,-0.9 -2,-0.8c-0.2,0 -0.3,0.1 -0.4,0.2c-0.2,0.1 -0.1,0.2 -0.3,0.2c-0.1,0 -0.2,0.1 -0.2,0.2c0,0.3 0,0.2 0,0.3c0,0 0,0 0,0" class="st2"/>
      <path id="svg_45" d="m38.8,-48.7c0,0.1 0,0.1 0,0.2c-0.1,0.1 -0.1,0.1 -0.2,0.1c-0.1,0.1 -0.1,0.3 -0.1,0.4c-0.2,0.1 0,0.2 0,0.3c0,0 0,0.1 0,0.2c0,0.1 0,0.3 0.1,0.4c0.1,0.2 0.3,0.4 0.4,0.5c0.2,0.1 0.4,0.6 0.6,0.6c0.2,0 0.4,-0.1 0.5,-0.1c0.2,0 0.4,0 0.6,-0.1c0.2,-0.1 0.1,-0.3 0.3,-0.5c0.1,-0.1 0.3,0 0.4,-0.1c0.2,-0.1 0.3,-0.3 0.4,-0.5c0,-0.1 0,-0.1 0,-0.2c0,-0.1 0.1,-0.2 0.1,-0.3c0,-0.1 -0.1,-0.1 -0.1,-0.2c0,-0.1 0,-0.2 0,-0.3c0,-0.2 0,-0.4 -0.1,-0.5c-0.4,-0.7 -1.2,-0.9 -2,-0.8c-0.2,0 -0.3,0.1 -0.4,0.2c-0.2,0.1 -0.1,0.2 -0.3,0.2c-0.1,0 -0.2,0.1 -0.2,0.2c0,0.3 0,0.2 0,0.3c0,0 0,0 0,0" class="st2"/>
      <path id="svg_46" d="m31.1,-48.7c0,0.1 0,0.1 0,0.2c-0.1,0.1 -0.1,0.1 -0.2,0.1c-0.1,0.1 -0.1,0.3 -0.1,0.4c-0.2,0.1 0,0.2 0,0.3c0,0 0,0.1 0,0.2c0,0.1 0,0.3 0.1,0.4c0.1,0.2 0.3,0.4 0.4,0.5c0.2,0.1 0.4,0.6 0.6,0.6c0.2,0 0.4,-0.1 0.5,-0.1c0.2,0 0.4,0 0.6,-0.1c0.2,-0.1 0.1,-0.3 0.3,-0.5c0.1,-0.1 0.3,0 0.4,-0.1c0.2,-0.1 0.3,-0.3 0.4,-0.5c0,-0.1 0,-0.1 0,-0.2c0,-0.1 0.1,-0.2 0.1,-0.3c0,-0.1 -0.1,-0.1 -0.1,-0.2c0,-0.1 0,-0.2 0,-0.3c0,-0.2 0,-0.4 -0.1,-0.5c-0.4,-0.7 -1.2,-0.9 -2,-0.8c-0.2,0 -0.3,0.1 -0.4,0.2c-0.2,0.1 -0.1,0.2 -0.3,0.2c-0.1,0 -0.2,0.1 -0.2,0.2c0,0.3 0,0.2 0,0.3c0,0 0,0 0,0" class="st2"/>
      <path id="svg_47" d="m23.5,-48.7c0,0.1 0,0.1 0,0.2c-0.1,0.1 -0.1,0.1 -0.2,0.1c-0.1,0.1 -0.1,0.3 -0.1,0.4c-0.2,0.1 0,0.2 0,0.3c0,0 0,0.1 0,0.2c0,0.1 0,0.3 0.1,0.4c0.1,0.2 0.3,0.4 0.4,0.5c0.2,0.1 0.4,0.6 0.6,0.6c0.2,0 0.4,-0.1 0.5,-0.1c0.2,0 0.4,0 0.6,-0.1c0.2,-0.1 0.1,-0.3 0.3,-0.5c0.1,-0.1 0.3,0 0.4,-0.1c0.2,-0.1 0.3,-0.3 0.4,-0.5c0,-0.1 0,-0.1 0,-0.2c0,-0.1 0.1,-0.2 0.1,-0.3c0,-0.1 -0.1,-0.1 -0.1,-0.2c0,-0.1 0,-0.2 0,-0.3c0,-0.2 0,-0.4 -0.1,-0.5c-0.4,-0.7 -1.2,-0.9 -2,-0.8c-0.2,0 -0.3,0.1 -0.4,0.2c-0.2,0.1 -0.1,0.2 -0.3,0.2c-0.1,0 -0.2,0.1 -0.2,0.2c0,0.3 0,0.2 0,0.3c0,0 0,0 0,0" class="st2"/>
      <path id="svg_48" d="m15.8,-48.7c0,0.1 0,0.1 0,0.2c-0.1,0.1 -0.1,0.1 -0.2,0.1c-0.1,0.1 -0.1,0.3 -0.1,0.4c-0.2,0.1 0,0.2 0,0.3c0,0 0,0.1 0,0.2c0,0.1 0,0.3 0.1,0.4c0.1,0.2 0.3,0.4 0.4,0.5c0.2,0.1 0.4,0.6 0.6,0.6c0.2,0 0.4,-0.1 0.5,-0.1c0.2,0 0.4,0 0.6,-0.1c0.2,-0.1 0.1,-0.3 0.3,-0.5c0.1,-0.1 0.3,0 0.4,-0.1c0.2,-0.1 0.3,-0.3 0.4,-0.5c0,-0.1 0,-0.1 0,-0.2c0,-0.1 0.1,-0.2 0.1,-0.3c0,-0.1 -0.1,-0.1 -0.1,-0.2c0,-0.1 0,-0.2 0,-0.3c0,-0.2 0,-0.4 -0.1,-0.5c-0.4,-0.7 -1.2,-0.9 -2,-0.8c-0.2,0 -0.3,0.1 -0.4,0.2c-0.2,0.1 -0.1,0.2 -0.3,0.2c-0.1,0 -0.2,0.1 -0.2,0.2c0,0.3 0,0.2 0,0.3c0,0 0,0 0,0" class="st2"/>
      <path id="svg_49" d="m8.2,-48.7c0,0.1 0,0.1 0,0.2c-0.1,0.1 -0.2,0.1 -0.2,0.1c-0.1,0.1 -0.1,0.3 -0.1,0.4c-0.2,0.1 0,0.2 0,0.3c0,0 0,0.1 0,0.2c0,0.1 0,0.3 0.1,0.4c0.1,0.2 0.3,0.4 0.4,0.5c0.1,0.2 0.3,0.6 0.5,0.6c0.2,0 0.4,-0.1 0.5,-0.1c0.2,0 0.4,0 0.6,-0.1c0.2,-0.1 0.1,-0.3 0.3,-0.5c0.1,-0.1 0.3,0 0.4,-0.1c0.2,-0.1 0.3,-0.3 0.4,-0.5c0,-0.1 0,-0.1 0,-0.2c0,-0.1 0.1,-0.2 0.1,-0.3c0,-0.1 -0.1,-0.1 -0.1,-0.2c0,-0.1 0,-0.2 0,-0.3c0,-0.2 0,-0.4 -0.1,-0.5c-0.4,-0.7 -1.2,-0.9 -2,-0.8c-0.2,0 -0.3,0.1 -0.4,0.2c-0.2,0.1 -0.1,0.2 -0.3,0.2c-0.1,0 -0.2,0.1 -0.2,0.2c0.1,0.3 0.1,0.2 0.1,0.3c-0.1,0 -0.1,0 0,0" class="st2"/>
      <path id="svg_50" d="m0.5,-48.7c0,0.1 0,0.1 0,0.2c-0.1,0.1 -0.1,0.1 -0.2,0.1c-0.1,0.1 -0.1,0.3 -0.1,0.4c-0.2,0.1 0,0.2 0,0.3c0,0 0,0.1 0,0.2c0,0.1 0,0.3 0.1,0.4c0.1,0.2 0.3,0.4 0.4,0.5c0.2,0.2 0.3,0.6 0.6,0.6c0.2,0 0.4,-0.1 0.5,-0.1c0.2,0 0.4,0 0.6,-0.1c0.2,-0.1 0.1,-0.3 0.3,-0.5c0.1,-0.1 0.3,0 0.4,-0.1c0.2,-0.1 0.3,-0.3 0.4,-0.5c0,-0.1 0,-0.1 0,-0.2c0,-0.1 0.1,-0.2 0.1,-0.3c0,-0.1 -0.1,-0.1 -0.1,-0.2c0,-0.1 0,-0.2 0,-0.3c0,-0.2 0,-0.4 -0.1,-0.5c-0.4,-0.7 -1.2,-0.9 -2,-0.8c-0.2,0 -0.3,0.1 -0.4,0.2c-0.2,0.1 -0.1,0.2 -0.3,0.2c-0.1,0 -0.2,0.1 -0.2,0.2c0,0.3 0,0.2 0,0.3c0,0 0,0 0,0" class="st2"/>
     </g>
     <g id="svg_51">
      <path id="svg_52" d="m69.4,-41c0,0.1 0,0.1 0,0.2c-0.1,0.1 -0.1,0.1 -0.2,0.1c-0.1,0.1 -0.1,0.3 -0.1,0.4c-0.2,0.1 0,0.2 0,0.3c0,0 0,0.1 0,0.2c0,0.1 0,0.3 0.1,0.4c0.1,0.2 0.3,0.4 0.4,0.5c0.2,0.1 0.4,0.6 0.6,0.6c0.2,0 0.4,-0.1 0.5,-0.1c0.2,0 0.4,0 0.6,-0.1c0.2,-0.1 0.1,-0.3 0.3,-0.5c0.1,-0.1 0.3,0 0.4,-0.1c0.2,-0.1 0.3,-0.3 0.4,-0.5c0,-0.1 0,-0.1 0,-0.2c0,-0.1 0.1,-0.2 0.1,-0.3c0,-0.1 -0.1,-0.1 -0.1,-0.2c0,-0.1 0,-0.2 0,-0.3c0,-0.2 0,-0.4 -0.1,-0.5c-0.4,-0.7 -1.2,-0.9 -2,-0.8c-0.2,0 -0.3,0.1 -0.4,0.2c-0.2,0.1 -0.1,0.2 -0.3,0.2c-0.1,0 -0.2,0.1 -0.2,0.2c0,0.2 0,0.2 0,0.3c0,0 0,0 0,0" class="st2"/>
      <path id="svg_53" d="m61.8,-41c0,0.1 0,0.1 0,0.2c-0.1,0.1 -0.1,0.1 -0.2,0.1c-0.1,0.1 -0.1,0.3 -0.1,0.4c-0.2,0.1 0,0.2 0,0.3c0,0 0,0.1 0,0.2c0,0.1 0,0.3 0.1,0.4c0.1,0.2 0.3,0.4 0.4,0.5c0.2,0.1 0.4,0.6 0.6,0.6c0.2,0 0.4,-0.1 0.5,-0.1c0.2,0 0.4,0 0.6,-0.1c0.2,-0.1 0.1,-0.3 0.3,-0.5c0.1,-0.1 0.3,0 0.4,-0.1c0.2,-0.1 0.3,-0.3 0.4,-0.5c0,-0.1 0,-0.1 0,-0.2c0,-0.1 0.1,-0.2 0.1,-0.3c0,-0.1 -0.1,-0.1 -0.1,-0.2c0,-0.1 0,-0.2 0,-0.3c0,-0.2 0,-0.4 -0.1,-0.5c-0.4,-0.7 -1.2,-0.9 -2,-0.8c-0.2,0 -0.3,0.1 -0.4,0.2c-0.2,0.1 -0.1,0.2 -0.3,0.2c-0.1,0 -0.2,0.1 -0.2,0.2c0,0.2 0,0.2 0,0.3c0,0 0,0 0,0" class="st2"/>
      <path id="svg_54" d="m54.1,-41c0,0.1 0,0.1 0,0.2c-0.1,0.1 -0.1,0.1 -0.2,0.1c-0.1,0.1 -0.1,0.3 -0.1,0.4c-0.2,0.1 0,0.2 0,0.3c0,0 0,0.1 0,0.2c0,0.1 0,0.3 0.1,0.4c0.1,0.2 0.3,0.4 0.4,0.5c0.2,0.1 0.4,0.6 0.6,0.6c0.2,0 0.4,-0.1 0.5,-0.1c0.2,0 0.4,0 0.6,-0.1c0.2,-0.1 0.1,-0.3 0.3,-0.5c0.1,-0.1 0.3,0 0.4,-0.1c0.2,-0.1 0.3,-0.3 0.4,-0.5c0,-0.1 0,-0.1 0,-0.2c0,-0.1 0.1,-0.2 0.1,-0.3c0,-0.1 -0.1,-0.1 -0.1,-0.2c0,-0.1 0,-0.2 0,-0.3c0,-0.2 0,-0.4 -0.1,-0.5c-0.4,-0.7 -1.2,-0.9 -2,-0.8c-0.2,0 -0.3,0.1 -0.4,0.2c-0.2,0.1 -0.1,0.2 -0.3,0.2c-0.1,0 -0.2,0.1 -0.2,0.2c0,0.2 0,0.2 0,0.3c0,0 0,0 0,0" class="st2"/>
      <path id="svg_55" d="m46.5,-41c0,0.1 0,0.1 0,0.2c-0.1,0.1 -0.1,0.1 -0.2,0.1c-0.1,0.1 -0.1,0.3 -0.1,0.4c-0.2,0.1 0,0.2 0,0.3c0,0 0,0.1 0,0.2c0,0.1 0,0.3 0.1,0.4c0.1,0.2 0.3,0.4 0.4,0.5c0.2,0.1 0.4,0.6 0.6,0.6c0.2,0 0.4,-0.1 0.5,-0.1c0.2,0 0.4,0 0.6,-0.1c0.2,-0.1 0.1,-0.3 0.3,-0.5c0.1,-0.1 0.3,0 0.4,-0.1c0.2,-0.1 0.3,-0.3 0.4,-0.5c0,-0.1 0,-0.1 0,-0.2c0,-0.1 0.1,-0.2 0.1,-0.3c0,-0.1 -0.1,-0.1 -0.1,-0.2c0,-0.1 0,-0.2 0,-0.3c0,-0.2 0,-0.4 -0.1,-0.5c-0.4,-0.7 -1.2,-0.9 -2,-0.8c-0.2,0 -0.3,0.1 -0.4,0.2c-0.2,0.1 -0.1,0.2 -0.3,0.2c-0.1,0 -0.2,0.1 -0.2,0.2c0,0.2 0,0.2 0,0.3c0,0 0,0 0,0" class="st2"/>
      <path id="svg_56" d="m38.8,-41c0,0.1 0,0.1 0,0.2c-0.1,0.1 -0.1,0.1 -0.2,0.1c-0.1,0.1 -0.1,0.3 -0.1,0.4c-0.2,0.1 0,0.2 0,0.3c0,0 0,0.1 0,0.2c0,0.1 0,0.3 0.1,0.4c0.1,0.2 0.3,0.4 0.4,0.5c0.2,0.1 0.4,0.6 0.6,0.6c0.2,0 0.4,-0.1 0.5,-0.1c0.2,0 0.4,0 0.6,-0.1c0.2,-0.1 0.1,-0.3 0.3,-0.5c0.1,-0.1 0.3,0 0.4,-0.1c0.2,-0.1 0.3,-0.3 0.4,-0.5c0,-0.1 0,-0.1 0,-0.2c0,-0.1 0.1,-0.2 0.1,-0.3c0,-0.1 -0.1,-0.1 -0.1,-0.2c0,-0.1 0,-0.2 0,-0.3c0,-0.2 0,-0.4 -0.1,-0.5c-0.4,-0.7 -1.2,-0.9 -2,-0.8c-0.2,0 -0.3,0.1 -0.4,0.2c-0.2,0.1 -0.1,0.2 -0.3,0.2c-0.1,0 -0.2,0.1 -0.2,0.2c0,0.2 0,0.2 0,0.3c0,0 0,0 0,0" class="st2"/>
      <path id="svg_57" d="m31.1,-41c0,0.1 0,0.1 0,0.2c-0.1,0.1 -0.1,0.1 -0.2,0.1c-0.1,0.1 -0.1,0.3 -0.1,0.4c-0.2,0.1 0,0.2 0,0.3c0,0 0,0.1 0,0.2c0,0.1 0,0.3 0.1,0.4c0.1,0.2 0.3,0.4 0.4,0.5c0.2,0.1 0.4,0.6 0.6,0.6c0.2,0 0.4,-0.1 0.5,-0.1c0.2,0 0.4,0 0.6,-0.1c0.2,-0.1 0.1,-0.3 0.3,-0.5c0.1,-0.1 0.3,0 0.4,-0.1c0.2,-0.1 0.3,-0.3 0.4,-0.5c0,-0.1 0,-0.1 0,-0.2c0,-0.1 0.1,-0.2 0.1,-0.3c0,-0.1 -0.1,-0.1 -0.1,-0.2c0,-0.1 0,-0.2 0,-0.3c0,-0.2 0,-0.4 -0.1,-0.5c-0.4,-0.7 -1.2,-0.9 -2,-0.8c-0.2,0 -0.3,0.1 -0.4,0.2c-0.2,0.1 -0.1,0.2 -0.3,0.2c-0.1,0 -0.2,0.1 -0.2,0.2c0,0.2 0,0.2 0,0.3c0,0 0,0 0,0" class="st2"/>
      <path id="svg_58" d="m23.5,-41c0,0.1 0,0.1 0,0.2c-0.1,0.1 -0.1,0.1 -0.2,0.1c-0.1,0.1 -0.1,0.3 -0.1,0.4c-0.2,0.1 0,0.2 0,0.3c0,0 0,0.1 0,0.2c0,0.1 0,0.3 0.1,0.4c0.1,0.2 0.3,0.4 0.4,0.5c0.2,0.1 0.4,0.6 0.6,0.6c0.2,0 0.4,-0.1 0.5,-0.1c0.2,0 0.4,0 0.6,-0.1c0.2,-0.1 0.1,-0.3 0.3,-0.5c0.1,-0.1 0.3,0 0.4,-0.1c0.2,-0.1 0.3,-0.3 0.4,-0.5c0,-0.1 0,-0.1 0,-0.2c0,-0.1 0.1,-0.2 0.1,-0.3c0,-0.1 -0.1,-0.1 -0.1,-0.2c0,-0.1 0,-0.2 0,-0.3c0,-0.2 0,-0.4 -0.1,-0.5c-0.4,-0.7 -1.2,-0.9 -2,-0.8c-0.2,0 -0.3,0.1 -0.4,0.2c-0.2,0.1 -0.1,0.2 -0.3,0.2c-0.1,0 -0.2,0.1 -0.2,0.2c0,0.2 0,0.2 0,0.3c0,0 0,0 0,0" class="st2"/>
      <path id="svg_59" d="m15.8,-41c0,0.1 0,0.1 0,0.2c-0.1,0.1 -0.1,0.1 -0.2,0.1c-0.1,0.1 -0.1,0.3 -0.1,0.4c-0.2,0.1 0,0.2 0,0.3c0,0 0,0.1 0,0.2c0,0.1 0,0.3 0.1,0.4c0.1,0.2 0.3,0.4 0.4,0.5c0.2,0.1 0.4,0.6 0.6,0.6c0.2,0 0.4,-0.1 0.5,-0.1c0.2,0 0.4,0 0.6,-0.1c0.2,-0.1 0.1,-0.3 0.3,-0.5c0.1,-0.1 0.3,0 0.4,-0.1c0.2,-0.1 0.3,-0.3 0.4,-0.5c0,-0.1 0,-0.1 0,-0.2c0,-0.1 0.1,-0.2 0.1,-0.3c0,-0.1 -0.1,-0.1 -0.1,-0.2c0,-0.1 0,-0.2 0,-0.3c0,-0.2 0,-0.4 -0.1,-0.5c-0.4,-0.7 -1.2,-0.9 -2,-0.8c-0.2,0 -0.3,0.1 -0.4,0.2c-0.2,0.1 -0.1,0.2 -0.3,0.2c-0.1,0 -0.2,0.1 -0.2,0.2c0,0.2 0,0.2 0,0.3c0,0 0,0 0,0" class="st2"/>
      <path id="svg_60" d="m8.2,-41c0,0.1 0,0.1 0,0.2c-0.1,0 -0.2,0 -0.2,0.1c-0.1,0.1 -0.1,0.3 -0.1,0.4c-0.2,0.1 0,0.2 0,0.3c0,0 0,0.1 0,0.2c0,0.1 0,0.3 0.1,0.4c0.1,0.2 0.3,0.4 0.4,0.5c0.2,0.1 0.4,0.6 0.6,0.6c0.2,0 0.4,-0.1 0.5,-0.1c0.2,0 0.4,0 0.6,-0.1c0.2,-0.1 0.1,-0.3 0.3,-0.5c0.1,-0.1 0.3,0 0.4,-0.1c0.2,-0.1 0.3,-0.3 0.4,-0.5c0,-0.1 0,-0.1 0,-0.2c0,-0.1 0.1,-0.2 0.1,-0.3c0,-0.1 -0.1,-0.1 -0.1,-0.2c0,-0.1 0,-0.2 0,-0.3c0,-0.2 0,-0.4 -0.1,-0.5c-0.4,-0.7 -1.2,-0.9 -2,-0.8c-0.2,0 -0.3,0.1 -0.4,0.2c-0.2,0.1 -0.1,0.2 -0.3,0.2c-0.1,0 -0.2,0.1 -0.2,0.2c0,0.2 0,0.2 0,0.3c-0.1,0 -0.1,0 0,0" class="st2"/>
      <path id="svg_61" d="m0.5,-41c0,0.1 0,0.1 0,0.2c-0.1,0.1 -0.1,0.1 -0.2,0.1c-0.1,0.1 -0.1,0.3 -0.1,0.4c-0.2,0.1 0,0.2 0,0.3c0,0 0,0.1 0,0.2c0,0.1 0,0.3 0.1,0.4c0.1,0.2 0.3,0.4 0.4,0.5c0.2,0.1 0.4,0.6 0.6,0.6c0.2,0 0.4,-0.1 0.5,-0.1c0.2,0 0.4,0 0.6,-0.1c0.2,-0.1 0.1,-0.3 0.3,-0.5c0.1,0 0.3,0 0.4,0c0.2,-0.1 0.3,-0.3 0.4,-0.5c0,-0.1 0,-0.1 0,-0.2c0,-0.1 0.1,-0.2 0.1,-0.3c0,-0.1 -0.1,-0.1 -0.1,-0.2c0,-0.1 0,-0.2 0,-0.3c0,-0.2 0,-0.4 -0.1,-0.5c-0.4,-0.7 -1.2,-0.9 -2,-0.8c-0.2,0 -0.3,0.1 -0.4,0.2c-0.2,0.1 -0.1,0.2 -0.3,0.2c-0.1,0 -0.2,0.1 -0.2,0.2c0,0.1 0,0.1 0,0.2c0,0 0,0 0,0" class="st2"/>
     </g>
     <g id="svg_62">
      <path id="svg_63" d="m69.4,-33.4c0,0.1 0,0.1 0,0.2c-0.1,0.1 -0.1,0.1 -0.2,0.1c-0.1,0.1 -0.1,0.3 -0.1,0.4c-0.2,0.1 0,0.2 0,0.3c0,0 0,0.1 0,0.2c0,0.1 0,0.3 0.1,0.4c0.1,0.2 0.3,0.4 0.4,0.5c0.2,0.1 0.4,0.6 0.6,0.6c0.2,0 0.4,-0.1 0.5,-0.1c0.2,0 0.4,0 0.6,-0.1c0.2,-0.1 0.1,-0.3 0.3,-0.5c0.1,-0.1 0.3,0 0.4,-0.1c0.2,-0.1 0.3,-0.3 0.4,-0.5c0,-0.1 0,-0.1 0,-0.2c0,-0.1 0.1,-0.2 0.1,-0.3c0,-0.1 -0.1,-0.1 -0.1,-0.2c0,-0.1 0,-0.2 0,-0.3c0,-0.2 0,-0.4 -0.1,-0.5c-0.4,-0.7 -1.2,-0.9 -2,-0.8c-0.2,0 -0.3,0.1 -0.4,0.2c-0.2,0.1 -0.1,0.2 -0.3,0.2c-0.1,0 -0.2,0.1 -0.2,0.2c0,0.3 0,0.2 0,0.3c0,0 0,0 0,0" class="st2"/>
      <path id="svg_64" d="m61.8,-33.4c0,0.1 0,0.1 0,0.2c-0.1,0.1 -0.1,0.1 -0.2,0.1c-0.1,0.1 -0.1,0.3 -0.1,0.4c-0.2,0.1 0,0.2 0,0.3c0,0 0,0.1 0,0.2c0,0.1 0,0.3 0.1,0.4c0.1,0.2 0.3,0.4 0.4,0.5c0.2,0.1 0.4,0.6 0.6,0.6c0.2,0 0.4,-0.1 0.5,-0.1c0.2,0 0.4,0 0.6,-0.1c0.2,-0.1 0.1,-0.3 0.3,-0.5c0.1,-0.1 0.3,0 0.4,-0.1c0.2,-0.1 0.3,-0.3 0.4,-0.5c0,-0.1 0,-0.1 0,-0.2c0,-0.1 0.1,-0.2 0.1,-0.3c0,-0.1 -0.1,-0.1 -0.1,-0.2c0,-0.1 0,-0.2 0,-0.3c0,-0.2 0,-0.4 -0.1,-0.5c-0.4,-0.7 -1.2,-0.9 -2,-0.8c-0.2,0 -0.3,0.1 -0.4,0.2c-0.2,0.1 -0.1,0.2 -0.3,0.2c-0.1,0 -0.2,0.1 -0.2,0.2c0,0.3 0,0.2 0,0.3c0,0 0,0 0,0" class="st2"/>
      <path id="svg_65" d="m54.1,-33.4c0,0.1 0,0.1 0,0.2c-0.1,0.1 -0.1,0.1 -0.2,0.1c-0.1,0.1 -0.1,0.3 -0.1,0.4c-0.2,0.1 0,0.2 0,0.3c0,0 0,0.1 0,0.2c0,0.1 0,0.3 0.1,0.4c0.1,0.2 0.3,0.4 0.4,0.5c0.2,0.1 0.4,0.6 0.6,0.6c0.2,0 0.4,-0.1 0.5,-0.1c0.2,0 0.4,0 0.6,-0.1c0.2,-0.1 0.1,-0.3 0.3,-0.5c0.1,-0.1 0.3,0 0.4,-0.1c0.2,-0.1 0.3,-0.3 0.4,-0.5c0,-0.1 0,-0.1 0,-0.2c0,-0.1 0.1,-0.2 0.1,-0.3c0,-0.1 -0.1,-0.1 -0.1,-0.2c0,-0.1 0,-0.2 0,-0.3c0,-0.2 0,-0.4 -0.1,-0.5c-0.4,-0.7 -1.2,-0.9 -2,-0.8c-0.2,0 -0.3,0.1 -0.4,0.2c-0.2,0.1 -0.1,0.2 -0.3,0.2c-0.1,0 -0.2,0.1 -0.2,0.2c0,0.3 0,0.2 0,0.3c0,0 0,0 0,0" class="st2"/>
      <path id="svg_66" d="m46.5,-33.4c0,0.1 0,0.1 0,0.2c-0.1,0.1 -0.1,0.1 -0.2,0.1c-0.1,0.1 -0.1,0.3 -0.1,0.4c-0.2,0.1 0,0.2 0,0.3c0,0 0,0.1 0,0.2c0,0.1 0,0.3 0.1,0.4c0.1,0.2 0.3,0.4 0.4,0.5c0.2,0.1 0.4,0.6 0.6,0.6c0.2,0 0.4,-0.1 0.5,-0.1c0.2,0 0.4,0 0.6,-0.1c0.2,-0.1 0.1,-0.3 0.3,-0.5c0.1,-0.1 0.3,0 0.4,-0.1c0.2,-0.1 0.3,-0.3 0.4,-0.5c0,-0.1 0,-0.1 0,-0.2c0,-0.1 0.1,-0.2 0.1,-0.3c0,-0.1 -0.1,-0.1 -0.1,-0.2c0,-0.1 0,-0.2 0,-0.3c0,-0.2 0,-0.4 -0.1,-0.5c-0.4,-0.7 -1.2,-0.9 -2,-0.8c-0.2,0 -0.3,0.1 -0.4,0.2c-0.2,0.1 -0.1,0.2 -0.3,0.2c-0.1,0 -0.2,0.1 -0.2,0.2c0,0.3 0,0.2 0,0.3c0,0 0,0 0,0" class="st2"/>
      <path id="svg_67" d="m38.8,-33.4c0,0.1 0,0.1 0,0.2c-0.1,0.1 -0.1,0.1 -0.2,0.1c-0.1,0.1 -0.1,0.3 -0.1,0.4c-0.2,0.1 0,0.2 0,0.3c0,0 0,0.1 0,0.2c0,0.1 0,0.3 0.1,0.4c0.1,0.2 0.3,0.4 0.4,0.5c0.2,0.1 0.4,0.6 0.6,0.6c0.2,0 0.4,-0.1 0.5,-0.1c0.2,0 0.4,0 0.6,-0.1c0.2,-0.1 0.1,-0.3 0.3,-0.5c0.1,-0.1 0.3,0 0.4,-0.1c0.2,-0.1 0.3,-0.3 0.4,-0.5c0,-0.1 0,-0.1 0,-0.2c0,-0.1 0.1,-0.2 0.1,-0.3c0,-0.1 -0.1,-0.1 -0.1,-0.2c0,-0.1 0,-0.2 0,-0.3c0,-0.2 0,-0.4 -0.1,-0.5c-0.4,-0.7 -1.2,-0.9 -2,-0.8c-0.2,0 -0.3,0.1 -0.4,0.2c-0.2,0.1 -0.1,0.2 -0.3,0.2c-0.1,0 -0.2,0.1 -0.2,0.2c0,0.3 0,0.2 0,0.3c0,0 0,0 0,0" class="st2"/>
      <path id="svg_68" d="m31.1,-33.4c0,0.1 0,0.1 0,0.2c-0.1,0.1 -0.1,0.1 -0.2,0.1c-0.1,0.1 -0.1,0.3 -0.1,0.4c-0.2,0.1 0,0.2 0,0.3c0,0 0,0.1 0,0.2c0,0.1 0,0.3 0.1,0.4c0.1,0.2 0.3,0.4 0.4,0.5c0.2,0.1 0.4,0.6 0.6,0.6c0.2,0 0.4,-0.1 0.5,-0.1c0.2,0 0.4,0 0.6,-0.1c0.2,-0.1 0.1,-0.3 0.3,-0.5c0.1,-0.1 0.3,0 0.4,-0.1c0.2,-0.1 0.3,-0.3 0.4,-0.5c0,-0.1 0,-0.1 0,-0.2c0,-0.1 0.1,-0.2 0.1,-0.3c0,-0.1 -0.1,-0.1 -0.1,-0.2c0,-0.1 0,-0.2 0,-0.3c0,-0.2 0,-0.4 -0.1,-0.5c-0.4,-0.7 -1.2,-0.9 -2,-0.8c-0.2,0 -0.3,0.1 -0.4,0.2c-0.2,0.1 -0.1,0.2 -0.3,0.2c-0.1,0 -0.2,0.1 -0.2,0.2c0,0.3 0,0.2 0,0.3c0,0 0,0 0,0" class="st2"/>
      <path id="svg_69" d="m23.5,-33.4c0,0.1 0,0.1 0,0.2c-0.1,0.1 -0.1,0.1 -0.2,0.1c-0.1,0.1 -0.1,0.3 -0.1,0.4c-0.2,0.1 0,0.2 0,0.3c0,0 0,0.1 0,0.2c0,0.1 0,0.3 0.1,0.4c0.1,0.2 0.3,0.4 0.4,0.5c0.2,0.1 0.4,0.6 0.6,0.6c0.2,0 0.4,-0.1 0.5,-0.1c0.2,0 0.4,0 0.6,-0.1c0.2,-0.1 0.1,-0.3 0.3,-0.5c0.1,-0.1 0.3,0 0.4,-0.1c0.2,-0.1 0.3,-0.3 0.4,-0.5c0,-0.1 0,-0.1 0,-0.2c0,-0.1 0.1,-0.2 0.1,-0.3c0,-0.1 -0.1,-0.1 -0.1,-0.2c0,-0.1 0,-0.2 0,-0.3c0,-0.2 0,-0.4 -0.1,-0.5c-0.4,-0.7 -1.2,-0.9 -2,-0.8c-0.2,0 -0.3,0.1 -0.4,0.2c-0.2,0.1 -0.1,0.2 -0.3,0.2c-0.1,0 -0.2,0.1 -0.2,0.2c0,0.3 0,0.2 0,0.3c0,0 0,0 0,0" class="st2"/>
      <path id="svg_70" d="m15.8,-33.4c0,0.1 0,0.1 0,0.2c-0.1,0.1 -0.1,0.1 -0.2,0.1c-0.1,0.1 -0.1,0.3 -0.1,0.4c-0.2,0.1 0,0.2 0,0.3c0,0 0,0.1 0,0.2c0,0.1 0,0.3 0.1,0.4c0.1,0.2 0.3,0.4 0.4,0.5c0.2,0.1 0.4,0.6 0.6,0.6c0.2,0 0.4,-0.1 0.5,-0.1c0.2,0 0.4,0 0.6,-0.1c0.2,-0.1 0.1,-0.3 0.3,-0.5c0.1,-0.1 0.3,0 0.4,-0.1c0.2,-0.1 0.3,-0.3 0.4,-0.5c0,-0.1 0,-0.1 0,-0.2c0,-0.1 0.1,-0.2 0.1,-0.3c0,-0.1 -0.1,-0.1 -0.1,-0.2c0,-0.1 0,-0.2 0,-0.3c0,-0.2 0,-0.4 -0.1,-0.5c-0.4,-0.7 -1.2,-0.9 -2,-0.8c-0.2,0 -0.3,0.1 -0.4,0.2c-0.2,0.1 -0.1,0.2 -0.3,0.2c-0.1,0 -0.2,0.1 -0.2,0.2c0,0.3 0,0.2 0,0.3c0,0 0,0 0,0" class="st2"/>
      <path id="svg_71" d="m8.2,-33.4c0,0.1 0,0.1 0,0.2c-0.1,0.1 -0.2,0.1 -0.2,0.1c-0.1,0.1 -0.1,0.3 -0.1,0.4c-0.2,0.1 0,0.2 0,0.3c0,0 0,0.1 0,0.2c0,0.1 0,0.3 0.1,0.4c0.1,0.2 0.3,0.4 0.4,0.5c0.2,0.1 0.4,0.6 0.6,0.6c0.2,0 0.4,-0.1 0.5,-0.1c0.2,0 0.4,0 0.6,-0.1c0.2,-0.1 0.1,-0.3 0.3,-0.5c0.1,-0.1 0.3,0 0.4,-0.1c0.2,-0.1 0.3,-0.3 0.4,-0.5c0,-0.1 0,-0.1 0,-0.2c0,-0.1 0.1,-0.2 0.1,-0.3c0,-0.1 -0.1,-0.1 -0.1,-0.2c0,-0.1 0,-0.2 0,-0.3c0,-0.2 0,-0.4 -0.1,-0.5c-0.4,-0.7 -1.2,-0.9 -2,-0.8c-0.2,0 -0.3,0.1 -0.4,0.2c-0.2,0.1 -0.1,0.2 -0.3,0.2c-0.1,0 -0.2,0.1 -0.2,0.2c0,0.3 0,0.2 0,0.3c-0.1,0 -0.1,0 0,0" class="st2"/>
      <path id="svg_72" d="m0.5,-33.4c0,0.1 0,0.1 0,0.2c-0.1,0.1 -0.1,0.1 -0.2,0.1c-0.1,0.1 -0.1,0.3 -0.1,0.4c-0.2,0.1 0,0.2 0,0.3c0,0 0,0.1 0,0.2c0,0.1 0,0.3 0.1,0.4c0.1,0.2 0.3,0.4 0.4,0.5c0.2,0.1 0.4,0.6 0.6,0.6c0.2,0 0.4,-0.1 0.5,-0.1c0.2,0 0.4,0 0.6,-0.1c0.2,-0.1 0.1,-0.3 0.3,-0.5c0.1,-0.1 0.3,0 0.4,-0.1c0.2,-0.1 0.3,-0.3 0.4,-0.5c0,-0.1 0,-0.1 0,-0.2c0,-0.1 0.1,-0.2 0.1,-0.3c0,-0.1 -0.1,-0.1 -0.1,-0.2c0,-0.1 0,-0.2 0,-0.3c0,-0.2 0,-0.4 -0.1,-0.5c-0.4,-0.7 -1.2,-0.9 -2,-0.8c-0.2,0 -0.3,0.1 -0.4,0.2c-0.2,0.1 -0.1,0.2 -0.3,0.2c-0.1,0 -0.2,0.1 -0.2,0.2c0,0.3 0,0.2 0,0.3c0,0 0,0 0,0" class="st2"/>
     </g>
     <g id="svg_73">
      <path id="svg_74" d="m69.4,-25.7c0,0.1 0,0.1 0,0.2c-0.1,0.1 -0.1,0.1 -0.2,0.1c-0.1,0.1 -0.1,0.3 -0.1,0.4c-0.2,0.1 0,0.2 0,0.3c0,0 0,0.1 0,0.2c0,0.1 0,0.3 0.1,0.4c0.1,0.2 0.3,0.4 0.4,0.5c0.2,0.1 0.4,0.6 0.6,0.6c0.2,0 0.4,-0.1 0.5,-0.1c0.2,0 0.4,0 0.6,-0.1c0.2,-0.1 0.1,-0.3 0.3,-0.5c0.1,-0.1 0.3,0 0.4,-0.1c0.2,-0.1 0.3,-0.3 0.4,-0.5c0,-0.1 0,-0.1 0,-0.2c0,-0.1 0.1,-0.2 0.1,-0.3c0,-0.1 -0.1,-0.1 -0.1,-0.2c0,-0.1 0,-0.2 0,-0.3c0,-0.2 0,-0.4 -0.1,-0.5c-0.4,-0.7 -1.2,-0.9 -2,-0.8c-0.2,0 -0.3,0.1 -0.4,0.2c-0.2,0.1 -0.1,0.2 -0.3,0.2c-0.1,0 -0.2,0.1 -0.2,0.2c0,0.2 0,0.2 0,0.3c0,0 0,0 0,0" class="st2"/>
      <path id="svg_75" d="m61.8,-25.7c0,0.1 0,0.1 0,0.2c-0.1,0.1 -0.1,0.1 -0.2,0.1c-0.1,0.1 -0.1,0.3 -0.1,0.4c-0.2,0.1 0,0.2 0,0.3c0,0 0,0.1 0,0.2c0,0.1 0,0.3 0.1,0.4c0.1,0.2 0.3,0.4 0.4,0.5c0.2,0.1 0.4,0.6 0.6,0.6c0.2,0 0.4,-0.1 0.5,-0.1c0.2,0 0.4,0 0.6,-0.1c0.2,-0.1 0.1,-0.3 0.3,-0.5c0.1,-0.1 0.3,0 0.4,-0.1c0.2,-0.1 0.3,-0.3 0.4,-0.5c0,-0.1 0,-0.1 0,-0.2c0,-0.1 0.1,-0.2 0.1,-0.3c0,-0.1 -0.1,-0.1 -0.1,-0.2c0,-0.1 0,-0.2 0,-0.3c0,-0.2 0,-0.4 -0.1,-0.5c-0.4,-0.7 -1.2,-0.9 -2,-0.8c-0.2,0 -0.3,0.1 -0.4,0.2c-0.2,0.1 -0.1,0.2 -0.3,0.2c-0.1,0 -0.2,0.1 -0.2,0.2c0,0.2 0,0.2 0,0.3c0,0 0,0 0,0" class="st2"/>
      <path id="svg_76" d="m54.1,-25.7c0,0.1 0,0.1 0,0.2c-0.1,0.1 -0.1,0.1 -0.2,0.1c-0.1,0.1 -0.1,0.3 -0.1,0.4c-0.2,0.1 0,0.2 0,0.3c0,0 0,0.1 0,0.2c0,0.1 0,0.3 0.1,0.4c0.1,0.2 0.3,0.4 0.4,0.5c0.2,0.1 0.4,0.6 0.6,0.6c0.2,0 0.4,-0.1 0.5,-0.1c0.2,0 0.4,0 0.6,-0.1c0.2,-0.1 0.1,-0.3 0.3,-0.5c0.1,-0.1 0.3,0 0.4,-0.1c0.2,-0.1 0.3,-0.3 0.4,-0.5c0,-0.1 0,-0.1 0,-0.2c0,-0.1 0.1,-0.2 0.1,-0.3c0,-0.1 -0.1,-0.1 -0.1,-0.2c0,-0.1 0,-0.2 0,-0.3c0,-0.2 0,-0.4 -0.1,-0.5c-0.4,-0.7 -1.2,-0.9 -2,-0.8c-0.2,0 -0.3,0.1 -0.4,0.2c-0.2,0.1 -0.1,0.2 -0.3,0.2c-0.1,0 -0.2,0.1 -0.2,0.2c0,0.2 0,0.2 0,0.3c0,0 0,0 0,0" class="st2"/>
      <path id="svg_77" d="m46.5,-25.7c0,0.1 0,0.1 0,0.2c-0.1,0.1 -0.1,0.1 -0.2,0.1c-0.1,0.1 -0.1,0.3 -0.1,0.4c-0.2,0.1 0,0.2 0,0.3c0,0 0,0.1 0,0.2c0,0.1 0,0.3 0.1,0.4c0.1,0.2 0.3,0.4 0.4,0.5c0.2,0.1 0.4,0.6 0.6,0.6c0.2,0 0.4,-0.1 0.5,-0.1c0.2,0 0.4,0 0.6,-0.1c0.2,-0.1 0.1,-0.3 0.3,-0.5c0.1,-0.1 0.3,0 0.4,-0.1c0.2,-0.1 0.3,-0.3 0.4,-0.5c0,-0.1 0,-0.1 0,-0.2c0,-0.1 0.1,-0.2 0.1,-0.3c0,-0.1 -0.1,-0.1 -0.1,-0.2c0,-0.1 0,-0.2 0,-0.3c0,-0.2 0,-0.4 -0.1,-0.5c-0.4,-0.7 -1.2,-0.9 -2,-0.8c-0.2,0 -0.3,0.1 -0.4,0.2c-0.2,0.1 -0.1,0.2 -0.3,0.2c-0.1,0 -0.2,0.1 -0.2,0.2c0,0.2 0,0.2 0,0.3c0,0 0,0 0,0" class="st2"/>
      <path id="svg_78" d="m38.8,-25.7c0,0.1 0,0.1 0,0.2c-0.1,0.1 -0.1,0.1 -0.2,0.1c-0.1,0.1 -0.1,0.3 -0.1,0.4c-0.2,0.1 0,0.2 0,0.3c0,0 0,0.1 0,0.2c0,0.1 0,0.3 0.1,0.4c0.1,0.2 0.3,0.4 0.4,0.5c0.2,0.1 0.4,0.6 0.6,0.6c0.2,0 0.4,-0.1 0.5,-0.1c0.2,0 0.4,0 0.6,-0.1c0.2,-0.1 0.1,-0.3 0.3,-0.5c0.1,-0.1 0.3,0 0.4,-0.1c0.2,-0.1 0.3,-0.3 0.4,-0.5c0,-0.1 0,-0.1 0,-0.2c0,-0.1 0.1,-0.2 0.1,-0.3c0,-0.1 -0.1,-0.1 -0.1,-0.2c0,-0.1 0,-0.2 0,-0.3c0,-0.2 0,-0.4 -0.1,-0.5c-0.4,-0.7 -1.2,-0.9 -2,-0.8c-0.2,0 -0.3,0.1 -0.4,0.2c-0.2,0.1 -0.1,0.2 -0.3,0.2c-0.1,0 -0.2,0.1 -0.2,0.2c0,0.2 0,0.2 0,0.3c0,0 0,0 0,0" class="st2"/>
      <path id="svg_79" d="m31.1,-25.7c0,0.1 0,0.1 0,0.2c-0.1,0.1 -0.1,0.1 -0.2,0.1c-0.1,0.1 -0.1,0.3 -0.1,0.4c-0.2,0.1 0,0.2 0,0.3c0,0 0,0.1 0,0.2c0,0.1 0,0.3 0.1,0.4c0.1,0.2 0.3,0.4 0.4,0.5c0.2,0.1 0.4,0.6 0.6,0.6c0.2,0 0.4,-0.1 0.5,-0.1c0.2,0 0.4,0 0.6,-0.1c0.2,-0.1 0.1,-0.3 0.3,-0.5c0.1,-0.1 0.3,0 0.4,-0.1c0.2,-0.1 0.3,-0.3 0.4,-0.5c0,-0.1 0,-0.1 0,-0.2c0,-0.1 0.1,-0.2 0.1,-0.3c0,-0.1 -0.1,-0.1 -0.1,-0.2c0,-0.1 0,-0.2 0,-0.3c0,-0.2 0,-0.4 -0.1,-0.5c-0.4,-0.7 -1.2,-0.9 -2,-0.8c-0.2,0 -0.3,0.1 -0.4,0.2c-0.2,0.1 -0.1,0.2 -0.3,0.2c-0.1,0 -0.2,0.1 -0.2,0.2c0,0.2 0,0.2 0,0.3c0,0 0,0 0,0" class="st2"/>
      <path id="svg_80" d="m23.5,-25.7c0,0.1 0,0.1 0,0.2c-0.1,0.1 -0.1,0.1 -0.2,0.1c-0.1,0.1 -0.1,0.3 -0.1,0.4c-0.2,0.1 0,0.2 0,0.3c0,0 0,0.1 0,0.2c0,0.1 0,0.3 0.1,0.4c0.1,0.2 0.3,0.4 0.4,0.5c0.2,0.1 0.4,0.6 0.6,0.6c0.2,0 0.4,-0.1 0.5,-0.1c0.2,0 0.4,0 0.6,-0.1c0.2,-0.1 0.1,-0.3 0.3,-0.5c0.1,-0.1 0.3,0 0.4,-0.1c0.2,-0.1 0.3,-0.3 0.4,-0.5c0,-0.1 0,-0.1 0,-0.2c0,-0.1 0.1,-0.2 0.1,-0.3c0,-0.1 -0.1,-0.1 -0.1,-0.2c0,-0.1 0,-0.2 0,-0.3c0,-0.2 0,-0.4 -0.1,-0.5c-0.4,-0.7 -1.2,-0.9 -2,-0.8c-0.2,0 -0.3,0.1 -0.4,0.2c-0.2,0.1 -0.1,0.2 -0.3,0.2c-0.1,0 -0.2,0.1 -0.2,0.2c0,0.2 0,0.2 0,0.3c0,0 0,0 0,0" class="st2"/>
      <path id="svg_81" d="m15.8,-25.7c0,0.1 0,0.1 0,0.2c-0.1,0.1 -0.1,0.1 -0.2,0.1c-0.1,0.1 -0.1,0.3 -0.1,0.4c-0.2,0.1 0,0.2 0,0.3c0,0 0,0.1 0,0.2c0,0.1 0,0.3 0.1,0.4c0.1,0.2 0.3,0.4 0.4,0.5c0.2,0.1 0.4,0.6 0.6,0.6c0.2,0 0.4,-0.1 0.5,-0.1c0.2,0 0.4,0 0.6,-0.1c0.2,-0.1 0.1,-0.3 0.3,-0.5c0.1,-0.1 0.3,0 0.4,-0.1c0.2,-0.1 0.3,-0.3 0.4,-0.5c0,-0.1 0,-0.1 0,-0.2c0,-0.1 0.1,-0.2 0.1,-0.3c0,-0.1 -0.1,-0.1 -0.1,-0.2c0,-0.1 0,-0.2 0,-0.3c0,-0.2 0,-0.4 -0.1,-0.5c-0.4,-0.7 -1.2,-0.9 -2,-0.8c-0.2,0 -0.3,0.1 -0.4,0.2c-0.2,0.1 -0.1,0.2 -0.3,0.2c-0.1,0 -0.2,0.1 -0.2,0.2c0,0.2 0,0.2 0,0.3c0,0 0,0 0,0" class="st2"/>
      <path id="svg_82" d="m8.2,-25.7c0,0.1 0,0.1 0,0.2c-0.1,0.1 -0.2,0 -0.2,0.1c-0.1,0.1 -0.1,0.3 -0.1,0.4c-0.2,0.1 0,0.2 0,0.3c0,0 0,0.1 0,0.2c0,0.1 0,0.3 0.1,0.4c0,0.1 0.2,0.3 0.3,0.5c0.2,0.1 0.4,0.6 0.6,0.6c0.2,0 0.4,-0.1 0.5,-0.1c0.2,0 0.4,0 0.6,-0.1c0.2,-0.1 0.1,-0.3 0.3,-0.5c0.1,-0.1 0.3,0 0.4,-0.1c0.2,-0.1 0.3,-0.3 0.4,-0.5c0,-0.1 0,-0.1 0,-0.2c0,-0.1 0.1,-0.2 0.1,-0.3c0,-0.1 -0.1,-0.1 -0.1,-0.2c0,-0.1 0,-0.2 0,-0.3c0,-0.2 0,-0.4 -0.1,-0.5c-0.4,-0.7 -1.2,-0.9 -2,-0.8c-0.2,0 -0.3,0.1 -0.4,0.2c-0.2,0.1 -0.1,0.2 -0.3,0.2c-0.1,0 -0.2,0.1 -0.2,0.2c0.1,0.2 0.1,0.2 0.1,0.3c-0.1,0 -0.1,0 0,0" class="st2"/>
      <path id="svg_83" d="m0.5,-25.7c0,0.1 0,0.1 0,0.2c-0.1,0.1 -0.1,0.1 -0.2,0.1c-0.1,0.1 -0.1,0.3 -0.1,0.4c-0.2,0.1 0,0.2 0,0.3c0,0 0,0.1 0,0.2c0,0.1 0,0.3 0.1,0.4c0.1,0.2 0.3,0.4 0.4,0.5c0.2,0.1 0.3,0.5 0.6,0.6c0.2,0 0.4,-0.1 0.5,-0.1c0.2,0 0.4,0 0.6,-0.1c0.2,-0.1 0.1,-0.3 0.3,-0.5c0.1,-0.1 0.3,0 0.4,-0.1c0.2,-0.1 0.3,-0.3 0.4,-0.5c0,-0.1 0,-0.1 0,-0.2c0,-0.1 0.1,-0.2 0.1,-0.3c0,-0.1 -0.1,-0.1 -0.1,-0.2c0,-0.1 0,-0.2 0,-0.3c0,-0.2 0,-0.4 -0.1,-0.5c-0.4,-0.7 -1.2,-0.9 -2,-0.8c-0.2,0 -0.3,0.1 -0.4,0.2c-0.2,0.1 -0.1,0.2 -0.3,0.2c-0.1,0 -0.2,0.1 -0.2,0.2c0,0.2 0,0.2 0,0.3c0,0 0,0 0,0" class="st2"/>
     </g>
     <g id="svg_84">
      <path id="svg_85" d="m69.4,-18.1c0,0.1 0,0.1 0,0.2c-0.1,0.1 -0.1,0.1 -0.2,0.1c-0.1,0.1 -0.1,0.3 -0.1,0.4c-0.2,0.1 0,0.2 0,0.3c0,0 0,0.1 0,0.2c0,0.1 0,0.3 0.1,0.4c0.1,0.2 0.3,0.4 0.4,0.5c0.2,0.1 0.4,0.6 0.6,0.6c0.2,0 0.4,-0.1 0.5,-0.1c0.2,0 0.4,0 0.6,-0.1c0.2,-0.1 0.1,-0.3 0.3,-0.5c0.1,-0.1 0.3,0 0.4,-0.1c0.2,-0.1 0.3,-0.3 0.4,-0.5c0,-0.1 0,-0.1 0,-0.2c0,-0.1 0.1,-0.2 0.1,-0.3c0,-0.1 -0.1,-0.1 -0.1,-0.2c0,-0.1 0,-0.2 0,-0.3c0,-0.2 0,-0.4 -0.1,-0.5c-0.4,-0.7 -1.2,-0.9 -2,-0.8c-0.2,0 -0.3,0.1 -0.4,0.2c-0.2,0.1 -0.1,0.2 -0.3,0.2c-0.1,0 -0.2,0.1 -0.2,0.2c0,0.3 0,0.2 0,0.3c0,0.1 0,0 0,0" class="st2"/>
      <path id="svg_86" d="m61.8,-18.1c0,0.1 0,0.1 0,0.2c-0.1,0.1 -0.1,0.1 -0.2,0.1c-0.1,0.1 -0.1,0.3 -0.1,0.4c-0.2,0.1 0,0.2 0,0.3c0,0 0,0.1 0,0.2c0,0.1 0,0.3 0.1,0.4c0.1,0.2 0.3,0.4 0.4,0.5c0.2,0.1 0.4,0.6 0.6,0.6c0.2,0 0.4,-0.1 0.5,-0.1c0.2,0 0.4,0 0.6,-0.1c0.2,-0.1 0.1,-0.3 0.3,-0.5c0.1,-0.1 0.3,0 0.4,-0.1c0.2,-0.1 0.3,-0.3 0.4,-0.5c0,-0.1 0,-0.1 0,-0.2c0,-0.1 0.1,-0.2 0.1,-0.3c0,-0.1 -0.1,-0.1 -0.1,-0.2c0,-0.1 0,-0.2 0,-0.3c0,-0.2 0,-0.4 -0.1,-0.5c-0.4,-0.7 -1.2,-0.9 -2,-0.8c-0.2,0 -0.3,0.1 -0.4,0.2c-0.2,0.1 -0.1,0.2 -0.3,0.2c-0.1,0 -0.2,0.1 -0.2,0.2c0,0.3 0,0.2 0,0.3c0,0.1 0,0 0,0" class="st2"/>
      <path id="svg_87" d="m54.1,-18.1c0,0.1 0,0.1 0,0.2c-0.1,0.1 -0.1,0.1 -0.2,0.1c-0.1,0.1 -0.1,0.3 -0.1,0.4c-0.2,0.1 0,0.2 0,0.3c0,0 0,0.1 0,0.2c0,0.1 0,0.3 0.1,0.4c0.1,0.2 0.3,0.4 0.4,0.5c0.2,0.1 0.4,0.6 0.6,0.6c0.2,0 0.4,-0.1 0.5,-0.1c0.2,0 0.4,0 0.6,-0.1c0.2,-0.1 0.1,-0.3 0.3,-0.5c0.1,-0.1 0.3,0 0.4,-0.1c0.2,-0.1 0.3,-0.3 0.4,-0.5c0,-0.1 0,-0.1 0,-0.2c0,-0.1 0.1,-0.2 0.1,-0.3c0,-0.1 -0.1,-0.1 -0.1,-0.2c0,-0.1 0,-0.2 0,-0.3c0,-0.2 0,-0.4 -0.1,-0.5c-0.4,-0.7 -1.2,-0.9 -2,-0.8c-0.2,0 -0.3,0.1 -0.4,0.2c-0.2,0.1 -0.1,0.2 -0.3,0.2c-0.1,0 -0.2,0.1 -0.2,0.2c0,0.3 0,0.2 0,0.3c0,0.1 0,0 0,0" class="st2"/>
      <path id="svg_88" d="m46.5,-18.1c0,0.1 0,0.1 0,0.2c-0.1,0.1 -0.1,0.1 -0.2,0.1c-0.1,0.1 -0.1,0.3 -0.1,0.4c-0.2,0.1 0,0.2 0,0.3c0,0 0,0.1 0,0.2c0,0.1 0,0.3 0.1,0.4c0.1,0.2 0.3,0.4 0.4,0.5c0.2,0.1 0.4,0.6 0.6,0.6c0.2,0 0.4,-0.1 0.5,-0.1c0.2,0 0.4,0 0.6,-0.1c0.2,-0.1 0.1,-0.3 0.3,-0.5c0.1,-0.1 0.3,0 0.4,-0.1c0.2,-0.1 0.3,-0.3 0.4,-0.5c0,-0.1 0,-0.1 0,-0.2c0,-0.1 0.1,-0.2 0.1,-0.3c0,-0.1 -0.1,-0.1 -0.1,-0.2c0,-0.1 0,-0.2 0,-0.3c0,-0.2 0,-0.4 -0.1,-0.5c-0.4,-0.7 -1.2,-0.9 -2,-0.8c-0.2,0 -0.3,0.1 -0.4,0.2c-0.2,0.1 -0.1,0.2 -0.3,0.2c-0.1,0 -0.2,0.1 -0.2,0.2c0,0.3 0,0.2 0,0.3c0,0.1 0,0 0,0" class="st2"/>
      <path id="svg_89" d="m38.8,-18.1c0,0.1 0,0.1 0,0.2c-0.1,0.1 -0.1,0.1 -0.2,0.1c-0.1,0.1 -0.1,0.3 -0.1,0.4c-0.2,0.1 0,0.2 0,0.3c0,0 0,0.1 0,0.2c0,0.1 0,0.3 0.1,0.4c0.1,0.2 0.3,0.4 0.4,0.5c0.2,0.1 0.4,0.6 0.6,0.6c0.2,0 0.4,-0.1 0.5,-0.1c0.2,0 0.4,0 0.6,-0.1c0.2,-0.1 0.1,-0.3 0.3,-0.5c0.1,-0.1 0.3,0 0.4,-0.1c0.2,-0.1 0.3,-0.3 0.4,-0.5c0,-0.1 0,-0.1 0,-0.2c0,-0.1 0.1,-0.2 0.1,-0.3c0,-0.1 -0.1,-0.1 -0.1,-0.2c0,-0.1 0,-0.2 0,-0.3c0,-0.2 0,-0.4 -0.1,-0.5c-0.4,-0.7 -1.2,-0.9 -2,-0.8c-0.2,0 -0.3,0.1 -0.4,0.2c-0.2,0.1 -0.1,0.2 -0.3,0.2c-0.1,0 -0.2,0.1 -0.2,0.2c0,0.3 0,0.2 0,0.3c0,0.1 0,0 0,0" class="st2"/>
      <path id="svg_90" d="m31.1,-18.1c0,0.1 0,0.1 0,0.2c-0.1,0.1 -0.1,0.1 -0.2,0.1c-0.1,0.1 -0.1,0.3 -0.1,0.4c-0.2,0.1 0,0.2 0,0.3c0,0 0,0.1 0,0.2c0,0.1 0,0.3 0.1,0.4c0.1,0.2 0.3,0.4 0.4,0.5c0.2,0.1 0.4,0.6 0.6,0.6c0.2,0 0.4,-0.1 0.5,-0.1c0.2,0 0.4,0 0.6,-0.1c0.2,-0.1 0.1,-0.3 0.3,-0.5c0.1,-0.1 0.3,0 0.4,-0.1c0.2,-0.1 0.3,-0.3 0.4,-0.5c0,-0.1 0,-0.1 0,-0.2c0,-0.1 0.1,-0.2 0.1,-0.3c0,-0.1 -0.1,-0.1 -0.1,-0.2c0,-0.1 0,-0.2 0,-0.3c0,-0.2 0,-0.4 -0.1,-0.5c-0.4,-0.7 -1.2,-0.9 -2,-0.8c-0.2,0 -0.3,0.1 -0.4,0.2c-0.2,0.1 -0.1,0.2 -0.3,0.2c-0.1,0 -0.2,0.1 -0.2,0.2c0,0.3 0,0.2 0,0.3c0,0.1 0,0 0,0" class="st2"/>
      <path id="svg_91" d="m23.5,-18.1c0,0.1 0,0.1 0,0.2c-0.1,0.1 -0.1,0.1 -0.2,0.1c-0.1,0.1 -0.1,0.3 -0.1,0.4c-0.2,0.1 0,0.2 0,0.3c0,0 0,0.1 0,0.2c0,0.1 0,0.3 0.1,0.4c0.1,0.2 0.3,0.4 0.4,0.5c0.2,0.1 0.4,0.6 0.6,0.6c0.2,0 0.4,-0.1 0.5,-0.1c0.2,0 0.4,0 0.6,-0.1c0.2,-0.1 0.1,-0.3 0.3,-0.5c0.1,-0.1 0.3,0 0.4,-0.1c0.2,-0.1 0.3,-0.3 0.4,-0.5c0,-0.1 0,-0.1 0,-0.2c0,-0.1 0.1,-0.2 0.1,-0.3c0,-0.1 -0.1,-0.1 -0.1,-0.2c0,-0.1 0,-0.2 0,-0.3c0,-0.2 0,-0.4 -0.1,-0.5c-0.4,-0.7 -1.2,-0.9 -2,-0.8c-0.2,0 -0.3,0.1 -0.4,0.2c-0.2,0.1 -0.1,0.2 -0.3,0.2c-0.1,0 -0.2,0.1 -0.2,0.2c0,0.3 0,0.2 0,0.3c0,0.1 0,0 0,0" class="st2"/>
      <path id="svg_92" d="m15.8,-18.1c0,0.1 0,0.1 0,0.2c-0.1,0.1 -0.1,0.1 -0.2,0.1c-0.1,0.1 -0.1,0.3 -0.1,0.4c-0.2,0.1 0,0.2 0,0.3c0,0 0,0.1 0,0.2c0,0.1 0,0.3 0.1,0.4c0.1,0.2 0.3,0.4 0.4,0.5c0.2,0.1 0.4,0.6 0.6,0.6c0.2,0 0.4,-0.1 0.5,-0.1c0.2,0 0.4,0 0.6,-0.1c0.2,-0.1 0.1,-0.3 0.3,-0.5c0.1,-0.1 0.3,0 0.4,-0.1c0.2,-0.1 0.3,-0.3 0.4,-0.5c0,-0.1 0,-0.1 0,-0.2c0,-0.1 0.1,-0.2 0.1,-0.3c0,-0.1 -0.1,-0.1 -0.1,-0.2c0,-0.1 0,-0.2 0,-0.3c0,-0.2 0,-0.4 -0.1,-0.5c-0.4,-0.7 -1.2,-0.9 -2,-0.8c-0.2,0 -0.3,0.1 -0.4,0.2c-0.2,0.1 -0.1,0.2 -0.3,0.2c-0.1,0 -0.2,0.1 -0.2,0.2c0,0.3 0,0.2 0,0.3c0,0.1 0,0 0,0" class="st2"/>
      <path id="svg_93" d="m8.2,-18.1c0,0.1 0,0.1 0,0.2c-0.1,0.1 -0.2,0.1 -0.2,0.1c-0.1,0.1 -0.1,0.3 -0.1,0.4c-0.2,0.1 0,0.2 0,0.3c0,0 0,0.1 0,0.2c0,0.1 0,0.3 0.1,0.4c0,0.2 0.2,0.4 0.3,0.5c0.2,0.1 0.4,0.6 0.6,0.6c0.2,0 0.4,-0.1 0.5,-0.1c0.2,0 0.4,0 0.6,-0.1c0.2,-0.1 0.1,-0.3 0.3,-0.5c0.1,-0.1 0.3,0 0.4,-0.1c0.2,-0.1 0.3,-0.3 0.4,-0.5c0,-0.1 0,-0.1 0,-0.2c0,-0.1 0.1,-0.2 0.1,-0.3c0,-0.1 -0.1,-0.1 -0.1,-0.2c0,-0.1 0,-0.2 0,-0.3c0,-0.2 0,-0.4 -0.1,-0.5c-0.4,-0.7 -1.2,-0.9 -2,-0.8c-0.2,0 -0.3,0.1 -0.4,0.2c-0.2,0.1 -0.1,0.2 -0.3,0.2c-0.1,0 -0.2,0.1 -0.2,0.2c0.1,0.3 0.1,0.2 0.1,0.3c-0.1,0.1 -0.1,0 0,0" class="st2"/>
      <path id="svg_94" d="m0.5,-18.1c0,0.1 0,0.1 0,0.2c-0.1,0.1 -0.1,0.1 -0.2,0.1c-0.1,0.1 -0.1,0.3 -0.1,0.4c-0.2,0.1 0,0.2 0,0.3c0,0 0,0.1 0,0.2c0,0.1 0,0.3 0.1,0.4c0.1,0.2 0.3,0.4 0.4,0.5c0.2,0.1 0.4,0.6 0.6,0.6c0.2,0 0.4,-0.1 0.5,-0.1c0.2,0 0.4,0 0.6,-0.1c0.2,-0.1 0.1,-0.3 0.3,-0.5c0.1,0 0.3,0.1 0.4,0.1c0.2,-0.1 0.3,-0.3 0.4,-0.5c0,-0.1 0,-0.1 0,-0.2c0,-0.1 0.1,-0.2 0.1,-0.3c0,-0.1 -0.1,-0.1 -0.1,-0.2c0,-0.1 0,-0.2 0,-0.3c0,-0.2 0,-0.4 -0.1,-0.5c-0.4,-0.7 -1.2,-0.9 -2,-0.8c-0.2,0 -0.3,0.1 -0.4,0.2c-0.2,0.1 -0.1,0.2 -0.3,0.2c-0.1,0 -0.2,0.1 -0.2,0.2c0,0.1 0,0 0,0.1c0,0.1 0,0 0,0" class="st2"/>
     </g>
     <g id="svg_95">
      <path id="svg_96" d="m69.4,-10.4c0,0.1 0,0.1 0,0.2c-0.1,0.1 -0.1,0.1 -0.2,0.1c-0.1,0.1 -0.1,0.3 -0.1,0.4c-0.2,0.1 0,0.2 0,0.3c0,0 0,0.1 0,0.2c0,0.1 0,0.3 0.1,0.4c0.1,0.2 0.3,0.4 0.4,0.5c0.2,0.1 0.4,0.6 0.6,0.6c0.2,0 0.4,-0.1 0.5,-0.1c0.2,0 0.4,0 0.6,-0.1c0.2,-0.1 0.1,-0.3 0.3,-0.5c0.1,-0.1 0.3,0 0.4,-0.1c0.2,-0.1 0.3,-0.3 0.4,-0.5c0,-0.1 0,-0.1 0,-0.2c0,-0.1 0.1,-0.2 0.1,-0.3c0,-0.1 -0.1,-0.1 -0.1,-0.2c0,-0.1 0,-0.2 0,-0.3c0,-0.2 0,-0.4 -0.1,-0.5c-0.4,-0.7 -1.2,-0.9 -2,-0.8c-0.2,0 -0.3,0.1 -0.4,0.2c-0.2,0.1 -0.1,0.2 -0.3,0.2c-0.1,0 -0.2,0.1 -0.2,0.2c0,0.2 0,0.2 0,0.3c0,0 0,0 0,0" class="st2"/>
      <path id="svg_97" d="m61.8,-10.4c0,0.1 0,0.1 0,0.2c-0.1,0.1 -0.1,0.1 -0.2,0.1c-0.1,0.1 -0.1,0.3 -0.1,0.4c-0.2,0.1 0,0.2 0,0.3c0,0 0,0.1 0,0.2c0,0.1 0,0.3 0.1,0.4c0.1,0.2 0.3,0.4 0.4,0.5c0.2,0.1 0.4,0.6 0.6,0.6c0.2,0 0.4,-0.1 0.5,-0.1c0.2,0 0.4,0 0.6,-0.1c0.2,-0.1 0.1,-0.3 0.3,-0.4c0.1,-0.1 0.3,0 0.4,-0.1c0.2,-0.1 0.3,-0.3 0.4,-0.5c0,-0.1 0,-0.1 0,-0.2c0,-0.1 0.1,-0.2 0.1,-0.3c0,-0.1 -0.1,-0.1 -0.1,-0.2c0,-0.1 0,-0.2 0,-0.3c0,-0.2 0,-0.4 -0.1,-0.5c-0.4,-0.7 -1.2,-0.9 -2,-0.8c-0.2,0 -0.3,0.1 -0.4,0.2c-0.2,0.1 -0.1,0.2 -0.3,0.2c-0.1,0 -0.2,0.1 -0.2,0.2c0,0.1 0,0.1 0,0.2c0,0 0,0 0,0" class="st2"/>
      <path id="svg_98" d="m54.1,-10.4c0,0.1 0,0.1 0,0.2c-0.1,0.1 -0.1,0.1 -0.2,0.1c-0.1,0.1 -0.1,0.3 -0.1,0.4c-0.2,0.1 0,0.2 0,0.3c0,0 0,0.1 0,0.2c0,0.1 0,0.3 0.1,0.4c0.1,0.2 0.3,0.4 0.4,0.5c0.2,0.1 0.4,0.6 0.6,0.6c0.2,0 0.4,-0.1 0.5,-0.1c0.2,0 0.4,0 0.6,-0.1c0.2,-0.1 0.1,-0.3 0.3,-0.5c0.1,-0.1 0.3,0 0.4,-0.1c0.2,-0.1 0.3,-0.3 0.4,-0.5c0,-0.1 0,-0.1 0,-0.2c0,-0.1 0.1,-0.2 0.1,-0.3c0,-0.1 -0.1,-0.1 -0.1,-0.2c0,-0.1 0,-0.2 0,-0.3c0,-0.2 0,-0.4 -0.1,-0.5c-0.4,-0.7 -1.2,-0.9 -2,-0.8c-0.2,0 -0.3,0.1 -0.4,0.2c-0.2,0.1 -0.1,0.2 -0.3,0.2c-0.1,0 -0.2,0.1 -0.2,0.2c0,0.2 0,0.2 0,0.3c0,0 0,0 0,0" class="st2"/>
      <path id="svg_99" d="m46.5,-10.4c0,0.1 0,0.1 0,0.2c-0.1,0.1 -0.1,0.1 -0.2,0.1c-0.1,0.1 -0.1,0.3 -0.1,0.4c-0.2,0.1 0,0.2 0,0.3c0,0 0,0.1 0,0.2c0,0.1 0,0.3 0.1,0.4c0.1,0.2 0.3,0.4 0.4,0.5c0.2,0.1 0.4,0.6 0.6,0.6c0.2,0 0.4,-0.1 0.5,-0.1c0.2,0 0.4,0 0.6,-0.1c0.2,-0.1 0.1,-0.3 0.3,-0.5c0.1,-0.1 0.3,0 0.4,-0.1c0.2,-0.1 0.3,-0.3 0.4,-0.5c0,-0.1 0,-0.1 0,-0.2c0,-0.1 0.1,-0.2 0.1,-0.3c0,-0.1 -0.1,-0.1 -0.1,-0.2c0,-0.1 0,-0.2 0,-0.3c0,-0.2 0,-0.4 -0.1,-0.5c-0.4,-0.7 -1.2,-0.9 -2,-0.8c-0.2,0 -0.3,0.1 -0.4,0.2c-0.2,0.1 -0.1,0.2 -0.3,0.2c-0.1,0 -0.2,0.1 -0.2,0.2c0,0.2 0,0.2 0,0.3c0,0 0,0 0,0" class="st2"/>
      <path id="svg_100" d="m38.8,-10.4c0,0.1 0,0.1 0,0.2c-0.1,0.1 -0.1,0.1 -0.2,0.1c-0.1,0.1 -0.1,0.3 -0.1,0.4c-0.2,0.1 0,0.2 0,0.3c0,0 0,0.1 0,0.2c0,0.1 0,0.3 0.1,0.4c0.1,0.2 0.3,0.4 0.4,0.5c0.2,0.1 0.4,0.6 0.6,0.6c0.2,0 0.4,-0.1 0.5,-0.1c0.2,0 0.4,0 0.6,-0.1c0.2,-0.1 0.1,-0.3 0.3,-0.4c0.1,-0.1 0.3,0 0.4,-0.1c0.2,-0.1 0.3,-0.3 0.4,-0.5c0,-0.1 0,-0.1 0,-0.2c0,-0.1 0.1,-0.2 0.1,-0.3c0,-0.1 -0.1,-0.1 -0.1,-0.2c0,-0.1 0,-0.2 0,-0.3c0,-0.2 0,-0.4 -0.1,-0.5c-0.4,-0.7 -1.2,-0.9 -2,-0.8c-0.2,0 -0.3,0.1 -0.4,0.2c-0.2,0.1 -0.1,0.2 -0.3,0.2c-0.1,0 -0.2,0.1 -0.2,0.2c0,0.1 0,0.1 0,0.2c0,0 0,0 0,0" class="st2"/>
      <path id="svg_101" d="m31.1,-10.4c0,0.1 0,0.1 0,0.2c-0.1,0.1 -0.1,0.1 -0.2,0.1c-0.1,0.1 -0.1,0.3 -0.1,0.4c-0.2,0.1 0,0.2 0,0.3c0,0 0,0.1 0,0.2c0,0.1 0,0.3 0.1,0.4c0.1,0.2 0.3,0.4 0.4,0.5c0.2,0.1 0.4,0.6 0.6,0.6c0.2,0 0.4,-0.1 0.5,-0.1c0.2,0 0.4,0 0.6,-0.1c0.2,-0.1 0.1,-0.3 0.3,-0.5c0.1,-0.1 0.3,0 0.4,-0.1c0.2,-0.1 0.3,-0.3 0.4,-0.5c0,-0.1 0,-0.1 0,-0.2c0,-0.1 0.1,-0.2 0.1,-0.3c0,-0.1 -0.1,-0.1 -0.1,-0.2c0,-0.1 0,-0.2 0,-0.3c0,-0.2 0,-0.4 -0.1,-0.5c-0.4,-0.7 -1.2,-0.9 -2,-0.8c-0.2,0 -0.3,0.1 -0.4,0.2c-0.2,0.1 -0.1,0.2 -0.3,0.2c-0.1,0 -0.2,0.1 -0.2,0.2c0,0.2 0,0.2 0,0.3c0,0 0,0 0,0" class="st2"/>
      <path id="svg_102" d="m23.5,-10.4c0,0.1 0,0.1 0,0.2c-0.1,0.1 -0.1,0.1 -0.2,0.1c-0.1,0.1 -0.1,0.3 -0.1,0.4c-0.2,0.1 0,0.2 0,0.3c0,0 0,0.1 0,0.2c0,0.1 0,0.3 0.1,0.4c0.1,0.2 0.3,0.4 0.4,0.5c0.2,0.1 0.4,0.6 0.6,0.6c0.2,0 0.4,-0.1 0.5,-0.1c0.2,0 0.4,0 0.6,-0.1c0.2,-0.1 0.1,-0.3 0.3,-0.5c0.1,-0.1 0.3,0 0.4,-0.1c0.2,-0.1 0.3,-0.3 0.4,-0.5c0,-0.1 0,-0.1 0,-0.2c0,-0.1 0.1,-0.2 0.1,-0.3c0,-0.1 -0.1,-0.1 -0.1,-0.2c0,-0.1 0,-0.2 0,-0.3c0,-0.2 0,-0.4 -0.1,-0.5c-0.4,-0.7 -1.2,-0.9 -2,-0.8c-0.2,0 -0.3,0.1 -0.4,0.2c-0.2,0.1 -0.1,0.2 -0.3,0.2c-0.1,0 -0.2,0.1 -0.2,0.2c0,0.2 0,0.2 0,0.3c0,0 0,0 0,0" class="st2"/>
      <path id="svg_103" d="m15.8,-10.4c0,0.1 0,0.1 0,0.2c-0.1,0.1 -0.1,0.1 -0.2,0.1c-0.1,0.1 -0.1,0.3 -0.1,0.4c-0.2,0.1 0,0.2 0,0.3c0,0 0,0.1 0,0.2c0,0.1 0,0.3 0.1,0.4c0.1,0.2 0.3,0.4 0.4,0.5c0.2,0.1 0.4,0.6 0.6,0.6c0.2,0 0.4,-0.1 0.5,-0.1c0.2,0 0.4,0 0.6,-0.1c0.2,-0.1 0.1,-0.3 0.3,-0.4c0.1,-0.1 0.3,0 0.4,-0.1c0.2,-0.1 0.3,-0.3 0.4,-0.5c0,-0.1 0,-0.1 0,-0.2c0,-0.1 0.1,-0.2 0.1,-0.3c0,-0.1 -0.1,-0.1 -0.1,-0.2c0,-0.1 0,-0.2 0,-0.3c0,-0.2 0,-0.4 -0.1,-0.5c-0.4,-0.7 -1.2,-0.9 -2,-0.8c-0.2,0 -0.3,0.1 -0.4,0.2c-0.2,0.1 -0.1,0.2 -0.3,0.2c-0.1,0 -0.2,0.1 -0.2,0.2c0,0.1 0,0.1 0,0.2c0,0 0,0 0,0" class="st2"/>
      <path id="svg_104" d="m8.2,-10.4c0,0.1 0,0.1 0,0.2c-0.1,0.1 -0.2,0 -0.2,0.1c-0.1,0.1 -0.1,0.3 -0.1,0.3c-0.2,0.1 0,0.2 0,0.3c0,0 0,0.1 0,0.2c0,0.1 0,0.3 0.1,0.4c0,0.2 0.2,0.4 0.3,0.6c0.2,0.1 0.4,0.6 0.6,0.6c0.2,0 0.4,-0.1 0.5,-0.1c0.2,0 0.4,0 0.6,-0.1c0.2,-0.1 0.1,-0.3 0.3,-0.5c0.1,-0.1 0.3,0 0.4,-0.1c0.2,-0.1 0.3,-0.3 0.4,-0.5c0,-0.1 0,-0.1 0,-0.2c0,-0.1 0.1,-0.2 0.1,-0.3c0,-0.1 -0.1,-0.1 -0.1,-0.2c0,-0.1 0,-0.2 0,-0.3c0,-0.2 0,-0.4 -0.1,-0.5c-0.4,-0.7 -1.2,-0.9 -2,-0.8c-0.2,0 -0.3,0.1 -0.4,0.2c-0.2,0.1 -0.1,0.2 -0.3,0.2c-0.1,0 -0.2,0.1 -0.2,0.2c0.1,0.2 0.1,0.2 0.1,0.3c-0.1,0 -0.1,0 0,0" class="st2"/>
      <path id="svg_105" d="m0.5,-10.4c0,0.1 0,0.1 0,0.2c-0.1,0.1 -0.1,0.1 -0.2,0.1c0,0.1 -0.1,0.3 -0.1,0.3c-0.2,0.1 0,0.2 0,0.3c0,0 0,0.1 0,0.2c0,0.1 0,0.3 0.1,0.4c0.1,0.2 0.3,0.4 0.4,0.5c0.2,0.2 0.3,0.6 0.6,0.7c0.2,0 0.4,-0.1 0.5,-0.1c0.2,0 0.4,0 0.6,-0.1c0.2,-0.1 0.1,-0.3 0.3,-0.4c0.1,-0.1 0.3,0 0.4,-0.1c0.2,-0.1 0.3,-0.3 0.4,-0.5c0,-0.1 0,-0.1 0,-0.2c0,-0.1 0.1,-0.2 0.1,-0.3c0,-0.1 -0.1,-0.1 -0.1,-0.2c0,-0.1 0,-0.2 0,-0.3c0,-0.2 0,-0.4 -0.1,-0.5c-0.4,-0.7 -1.2,-0.9 -2,-0.8c-0.2,0 -0.3,0.1 -0.4,0.2c-0.2,0.1 -0.1,0.2 -0.3,0.2c-0.1,0 -0.2,0.1 -0.2,0.2c0,0.1 0,0.1 0,0.2c0,0 0,0 0,0" class="st2"/>
     </g>
    </g>
    <g id="svg_106">
     <path id="svg_107" d="m69.4,-2.8c0,0.1 0,0.1 0,0.2c-0.1,0.1 -0.1,0.1 -0.2,0.1c-0.1,0.1 -0.1,0.3 -0.1,0.4c-0.2,0.1 0,0.2 0,0.3c0,0 0,0.1 0,0.2c0,0.1 0,0.3 0.1,0.4c0.1,0.2 0.3,0.4 0.4,0.5c0.2,0.2 0.4,0.6 0.6,0.7c0.2,0 0.4,-0.1 0.5,-0.1c0.2,0 0.4,0 0.6,-0.1c0.2,-0.1 0.1,-0.3 0.3,-0.5c0.1,-0.1 0.3,0 0.4,-0.1c0.2,-0.1 0.3,-0.3 0.4,-0.5c0,-0.1 0,-0.1 0,-0.2c0,-0.1 0.1,-0.2 0.1,-0.3c0,-0.1 -0.1,-0.1 -0.1,-0.2c0,-0.1 0,-0.2 0,-0.3c0,-0.2 0,-0.4 -0.1,-0.5c-0.4,-0.7 -1.2,-0.9 -2,-0.8c-0.2,0 -0.3,0.1 -0.4,0.2c-0.2,0.1 -0.1,0.2 -0.3,0.2c-0.1,0 -0.2,0.1 -0.2,0.2c0,0.2 0,0.1 0,0.2c0,0.1 0,0 0,0" class="st2"/>
     <path id="svg_108" d="m61.8,-2.8c0,0.1 0,0.1 0,0.2c-0.1,0.1 -0.1,0.1 -0.2,0.1c-0.1,0.1 -0.1,0.3 -0.1,0.4c-0.2,0.1 0,0.2 0,0.3c0,0 0,0.1 0,0.2c0,0.1 0,0.3 0.1,0.4c0,0.2 0.2,0.4 0.4,0.5c0.2,0.1 0.4,0.6 0.6,0.6c0.2,0 0.4,-0.1 0.5,-0.1c0.2,0 0.4,0 0.6,-0.1c0.2,-0.1 0.1,-0.3 0.3,-0.5c0.1,-0.1 0.3,0 0.4,-0.1c0.2,-0.1 0.3,-0.3 0.4,-0.5c0,-0.1 0,-0.1 0,-0.2c0,-0.1 0.1,-0.2 0.1,-0.3c0,-0.1 -0.1,-0.1 -0.1,-0.2c0,-0.1 0,-0.2 0,-0.3c0,-0.2 0,-0.4 -0.1,-0.5c-0.4,-0.7 -1.2,-0.9 -2,-0.8c-0.2,0 -0.3,0.1 -0.4,0.2c-0.2,0.1 -0.1,0.2 -0.3,0.2c-0.1,0 -0.2,0.1 -0.2,0.2c0,0.3 0,0.2 0,0.3c0,0.1 0,0 0,0" class="st2"/>
     <path id="svg_109" d="m54.1,-2.8c0,0.1 0,0.1 0,0.2c-0.1,0.1 -0.1,0.1 -0.2,0.1c-0.1,0.1 -0.1,0.3 -0.1,0.4c-0.2,0.1 0,0.2 0,0.3c0,0 0,0.1 0,0.2c0,0.1 0,0.3 0.1,0.4c0.1,0.2 0.2,0.4 0.4,0.5c0.2,0.1 0.4,0.6 0.6,0.6c0.2,0 0.4,-0.1 0.5,-0.1c0.2,0 0.4,0 0.6,-0.1c0.2,-0.1 0.1,-0.3 0.3,-0.5c0.1,-0.1 0.3,0 0.4,-0.1c0.2,0.1 0.3,-0.1 0.4,-0.3c0,-0.1 0,-0.1 0,-0.2c0,-0.1 0.1,-0.2 0.1,-0.3c0,-0.1 -0.1,-0.1 -0.1,-0.2c0,-0.1 0,-0.2 0,-0.3c0,-0.2 0,-0.4 -0.1,-0.5c-0.4,-0.7 -1.2,-0.9 -2,-0.8c-0.2,0 -0.3,0.1 -0.4,0.2c-0.2,0.1 -0.1,0.2 -0.3,0.2c-0.1,0 -0.2,0.1 -0.2,0.2c0,0.1 0,0 0,0.1c0,0.1 0,0 0,0" class="st2"/>
     <path id="svg_110" d="m46.5,-2.8c0,0.1 0,0.1 0,0.2c-0.1,0.1 -0.1,0.1 -0.2,0.1c-0.1,0.1 -0.1,0.3 -0.1,0.4c-0.2,0.1 0,0.2 0,0.3c0,0 0,0.1 0,0.2c0,0.1 0,0.3 0.1,0.4c0.1,0.2 0.3,0.4 0.4,0.5c0.1,0.2 0.3,0.6 0.5,0.7c0.2,0 0.4,-0.1 0.5,-0.1c0.2,0 0.4,0 0.6,-0.1c0.2,-0.1 0.1,-0.3 0.3,-0.5c0.1,-0.1 0.3,0 0.4,-0.1c0.2,-0.1 0.3,-0.3 0.4,-0.5c0,-0.1 0,-0.1 0,-0.2c0,-0.1 0.1,-0.2 0.1,-0.3c0,-0.1 -0.1,-0.1 -0.1,-0.2c0,-0.1 0,-0.2 0,-0.3c0,-0.2 0,-0.4 -0.1,-0.5c-0.4,-0.7 -1.2,-0.9 -2,-0.8c-0.2,0 -0.3,0.1 -0.4,0.2c-0.2,0.1 -0.1,0.2 -0.3,0.2c-0.1,0 -0.2,0.1 -0.2,0.2c0.1,0.2 0.1,0.1 0.1,0.2c0,0.1 0,0 0,0" class="st2"/>
     <path id="svg_111" d="m38.8,-2.8c0,0.1 0,0.1 0,0.2c-0.1,0.1 -0.1,0.1 -0.2,0.1c-0.1,0.1 -0.1,0.3 -0.1,0.4c-0.2,0.1 0,0.2 0,0.3c0,0 0,0.1 0,0.2c0,0.1 0,0.3 0.1,0.4c0,0.2 0.2,0.4 0.4,0.5c0.2,0.1 0.4,0.6 0.6,0.6c0.2,0 0.4,-0.1 0.5,-0.1c0.2,0 0.4,0 0.6,-0.1c0.2,-0.1 0.1,-0.3 0.3,-0.5c0.1,-0.1 0.3,0 0.4,-0.1c0.2,-0.1 0.3,-0.3 0.4,-0.5c0,-0.1 0,-0.1 0,-0.2c0,-0.1 0.1,-0.2 0.1,-0.3c0,-0.1 -0.1,-0.1 -0.1,-0.2c0,-0.1 0,-0.2 0,-0.3c0,-0.2 0,-0.4 -0.1,-0.5c-0.4,-0.7 -1.2,-0.9 -2,-0.8c-0.2,0 -0.3,0.1 -0.4,0.2c-0.2,0.1 -0.1,0.2 -0.3,0.2c-0.1,0 -0.2,0.1 -0.2,0.2c0,0.3 0,0.2 0,0.3c0,0.1 0,0 0,0" class="st2"/>
     <path id="svg_112" d="m31.1,-2.8c0,0.1 0,0.1 0,0.2c-0.1,0.1 -0.1,0.1 -0.2,0.1c-0.1,0.1 -0.1,0.3 -0.1,0.4c-0.2,0.1 0,0.2 0,0.3c0,0 0,0.1 0,0.2c0,0.1 0,0.3 0.1,0.4c0.1,0.2 0.2,0.4 0.4,0.5c0.2,0.1 0.4,0.6 0.6,0.6c0.2,0 0.4,-0.1 0.5,-0.1c0.2,0 0.4,0 0.6,-0.1c0.2,-0.1 0.1,-0.3 0.3,-0.5c0.1,-0.1 0.3,0 0.4,-0.1c0.2,-0.1 0.3,-0.3 0.4,-0.5c0,-0.1 0,-0.1 0,-0.2c0,-0.1 0.1,-0.2 0.1,-0.3c0,-0.1 -0.1,-0.1 -0.1,-0.2c0,-0.1 0,-0.2 0,-0.3c0,-0.2 0,-0.4 -0.1,-0.5c-0.4,-0.7 -1.2,-0.9 -2,-0.8c-0.2,0 -0.3,0.1 -0.4,0.2c-0.2,0.1 -0.1,0.2 -0.3,0.2c-0.1,0 -0.2,0.1 -0.2,0.2c0,0.3 0,0.2 0,0.3c0,0.1 0,0 0,0" class="st2"/>
     <path id="svg_113" d="m23.5,-2.8c0,0.1 0,0.1 0,0.2c-0.1,0.1 -0.1,0.1 -0.2,0.1c-0.1,0.1 -0.1,0.3 -0.1,0.4c-0.2,0.1 0,0.2 0,0.3c0,0 0,0.1 0,0.2c0,0.1 0,0.3 0.1,0.4c0.1,0.2 0.3,0.4 0.4,0.5c0.1,0.2 0.3,0.6 0.6,0.7c0.2,0 0.4,-0.1 0.5,-0.1c0.2,0 0.4,0 0.6,-0.1c0.2,-0.1 0.1,-0.3 0.3,-0.5c0.1,-0.1 0.3,0 0.4,-0.1c0.2,-0.1 0.3,-0.3 0.4,-0.5c0,-0.1 0,-0.1 0,-0.2c0,-0.1 0.1,-0.2 0.1,-0.3c0,-0.1 -0.1,-0.1 -0.1,-0.2c0,-0.1 0,-0.2 0,-0.3c0,-0.2 0,-0.4 -0.1,-0.5c-0.4,-0.7 -1.2,-0.9 -2,-0.8c-0.2,0 -0.3,0.1 -0.4,0.2c-0.2,0.1 -0.1,0.2 -0.3,0.2c-0.1,0 -0.2,0.1 -0.2,0.2c0,0.2 0,0.1 0,0.2c0,0.1 0,0 0,0" class="st2"/>
     <path id="svg_114" d="m15.8,-2.8c0,0.1 0,0.1 0,0.2c-0.1,0.1 -0.1,0.1 -0.2,0.1c-0.1,0.1 -0.1,0.3 -0.1,0.4c-0.2,0.1 0,0.2 0,0.3c0,0 0,0.1 0,0.2c0,0.1 0,0.3 0.1,0.4c0.1,0.2 0.2,0.4 0.4,0.5c0.2,0.1 0.4,0.6 0.6,0.6c0.2,0 0.4,-0.1 0.5,-0.1c0.2,0 0.4,0 0.6,-0.1c0.2,-0.1 0.1,-0.3 0.3,-0.5c0.1,-0.1 0.3,0 0.4,-0.1c0.2,-0.1 0.3,-0.3 0.4,-0.5c0,-0.1 0,-0.1 0,-0.2c0,-0.1 0.1,-0.2 0.1,-0.3c0,-0.1 -0.1,-0.1 -0.1,-0.2c0,-0.1 0,-0.2 0,-0.3c0,-0.2 0,-0.4 -0.1,-0.5c-0.4,-0.7 -1.2,-0.9 -2,-0.8c-0.2,0 -0.3,0.1 -0.4,0.2c-0.2,0.1 -0.1,0.2 -0.3,0.2c-0.1,0 -0.2,0.1 -0.2,0.2c0,0.3 0,0.2 0,0.3c0,0.1 0,0 0,0" class="st2"/>
     <path id="svg_115" d="m8.2,-2.8c0,0.1 0,0.1 0,0.2c-0.1,0.1 -0.2,0.1 -0.2,0.1c-0.1,0.1 -0.1,0.3 -0.1,0.4c-0.2,0.1 0,0.2 0,0.3c0,0 0,0.1 0,0.2c0,0.1 0,0.3 0.1,0.4c0,0.2 0.2,0.4 0.3,0.5c0.2,0.2 0.4,0.6 0.6,0.7c0.2,0 0.4,-0.1 0.5,-0.1c0.2,0 0.4,0 0.6,-0.1c0.2,-0.1 0.1,-0.3 0.3,-0.5c0.1,-0.1 0.3,0 0.4,-0.1c0.2,-0.1 0.3,-0.3 0.4,-0.5c0,-0.1 0,-0.1 0,-0.2c0,-0.1 0.1,-0.2 0.1,-0.3c0,-0.1 -0.1,-0.1 -0.1,-0.2c0,-0.1 0,-0.2 0,-0.3c0,-0.2 0,-0.4 -0.1,-0.5c-0.4,-0.7 -1.2,-0.9 -2,-0.8c0,0.1 -0.2,0.2 -0.3,0.2c-0.2,0.1 -0.1,0.2 -0.3,0.3c-0.1,0 -0.2,0.1 -0.2,0.2c0,0.1 0,0 0,0.1c-0.1,0.1 -0.1,0 0,0" class="st2"/>
     <path id="svg_116" d="m0.5,-2.8c0,0.1 0,0.1 0,0.2c-0.1,0.1 -0.1,0.1 -0.2,0.1c0,0.1 -0.1,0.3 -0.1,0.4c-0.2,0.1 0,0.2 0,0.3c0,0 0,0.1 0,0.2c0,0.1 0,0.3 0.1,0.4c0,0.2 0.2,0.4 0.4,0.5c0.2,0.2 0.3,0.6 0.6,0.7c0.2,0 0.4,-0.1 0.5,-0.1c0.2,0 0.4,0 0.6,-0.1c0.2,-0.1 0.1,-0.3 0.3,-0.5c0.1,-0.1 0.3,0 0.4,-0.1c0.2,0 0.3,-0.2 0.4,-0.4c0,-0.1 0,-0.1 0,-0.2c0,-0.1 0.1,-0.2 0.1,-0.3c0,-0.1 -0.1,-0.1 -0.1,-0.2c0,-0.1 0,-0.2 0,-0.3c0,-0.2 0,-0.4 -0.1,-0.5c-0.4,-0.7 -1.2,-0.9 -2,-0.8c-0.1,0 -0.2,0.1 -0.4,0.1c-0.1,0.1 -0.1,0.2 -0.3,0.3c-0.1,0 -0.2,0.1 -0.2,0.2c0,0.1 0,0 0,0.1c0,0.1 0,0 0,0" class="st2"/>
    </g>
   </g>
  </pattern>
 </defs>
 <g>
  <title>background</title>
  <rect fill="none" id="canvas_background" height="27" width="192" y="-1" x="-1"/>
 </g>
 <g>
  <title>Layer 1</title>
  <g id="svg_117">
   <path id="svg_118" d="m16.41589,16.91636l0.7,0.7c-1.7,1.5 -3.7,2.3 -5.9,2.3c-2.4,0 -4.5,-0.9 -6.3,-2.6c-1.7,-1.7 -2.6,-3.8 -2.6,-6.3c0,-2.4 0.9,-4.5 2.6,-6.2c1.7,-1.7 3.8,-2.6 6.3,-2.6c2.3,0 4.3,0.8 5.9,2.3l-0.7,0.7c-1.5,-1.3 -3.2,-2 -5.2,-2c-2.2,0 -4,0.8 -5.5,2.3c-1.5,1.5 -2.3,3.4 -2.3,5.5c0,2.2 0.8,4 2.3,5.6c1.5,1.5 3.4,2.3 5.5,2.3c2,0 3.8,-0.7 5.2,-2z" class="st3"/>
   <path id="svg_119" d="m36.61589,17.51636c-1.6,1.6 -3.6,2.4 -5.9,2.4c-2.4,0 -4.5,-0.9 -6.3,-2.6c-1.7,-1.7 -2.6,-3.8 -2.6,-6.3c0,-2.4 0.9,-4.5 2.6,-6.2c1.7,-1.7 3.8,-2.6 6.3,-2.6c2.3,0 4.3,0.8 5.9,2.3l-0.7,0.7c-1.5,-1.3 -3.2,-2 -5.2,-2c-2.2,0 -4,0.8 -5.5,2.3c-1.5,1.5 -2.3,3.4 -2.3,5.5c0,2.2 0.8,4 2.3,5.6c1.5,1.5 3.4,2.3 5.5,2.3c1.9,0 3.5,-0.6 4.9,-1.7l0,-5.3l1,0l0,5.6z" class="st3"/>
   <path id="svg_120" d="m42.91589,13.71636l0,6l-1,0l0,-17.3l4.5,0c1.3,0.2 2.4,0.7 3.4,1.6c1.1,1.1 1.6,2.4 1.6,4c0,1.6 -0.5,2.9 -1.6,4c-1.1,1.1 -2.4,1.7 -4,1.7l-2.9,0zm0,-10.3l0,9.3l2.9,0c1.3,0 2.4,-0.5 3.3,-1.4c0.9,-0.9 1.4,-2 1.4,-3.3c0,-1.3 -0.5,-2.4 -1.4,-3.3c-0.9,-0.9 -2,-1.4 -3.3,-1.4l-2.9,0l0,0.1z" class="st3"/>
  </g>
  <g id="svg_121">
   <path fill="#ffffff" id="svg_122" d="m70.01589,7.71636l0.3,0.2c-0.6,0.6 -1.3,0.8 -2.1,0.8c-0.9,0 -1.6,-0.3 -2.3,-0.9c-0.6,-0.6 -0.9,-1.4 -0.9,-2.3c0,-0.9 0.3,-1.6 0.9,-2.2c0.6,-0.6 1.4,-0.9 2.3,-0.9c0.8,0 1.5,0.3 2.1,0.8l-0.3,0.2c-0.5,-0.5 -1.2,-0.7 -1.9,-0.7c-0.8,0 -1.4,0.3 -2,0.8c-0.6,0.6 -0.8,1.2 -0.8,2c0,0.8 0.3,1.4 0.8,2c0.6,0.6 1.2,0.8 2,0.8c0.8,0.1 1.4,-0.2 1.9,-0.6z"/>
   <path fill="#ffffff" id="svg_123" d="m71.21589,6.41636c0,0.1 0,0.1 0,0.2c0,0.5 0.2,0.9 0.5,1.2c0.3,0.3 0.8,0.5 1.2,0.5c0.5,0 0.9,-0.2 1.2,-0.5c0.1,-0.1 0.1,-0.1 0.2,-0.2l0.4,0.1c0,0.1 -0.1,0.2 -0.3,0.3c-0.4,0.4 -0.9,0.6 -1.5,0.6c-0.6,0 -1.1,-0.2 -1.5,-0.6c-0.4,-0.4 -0.6,-0.9 -0.6,-1.5c0,-0.6 0.2,-1.1 0.6,-1.5c0.4,-0.4 0.9,-0.6 1.5,-0.6c0.6,0 1.1,0.2 1.5,0.6c0.4,0.4 0.5,0.8 0.5,1.3l-3.7,0l0,0.1zm0.1,-0.3l3.3,0c-0.1,-0.3 -0.2,-0.5 -0.4,-0.7c-0.3,-0.3 -0.8,-0.5 -1.2,-0.5c-0.5,0 -0.9,0.2 -1.2,0.5c-0.3,0.2 -0.4,0.4 -0.5,0.7z"/>
   <path fill="#ffffff" id="svg_124" d="m76.11589,5.71636l0,3l-0.4,0l0,-3.8l0.4,0l0,0.2c0.3,-0.3 0.7,-0.5 1.1,-0.5c0.5,0 0.8,0.1 1.1,0.4c0.3,0.3 0.4,0.6 0.4,1.1l0,2.6l-0.3,0l0,-2.5c0,-0.3 -0.1,-0.6 -0.4,-0.8c-0.2,-0.2 -0.5,-0.3 -0.8,-0.3c-0.3,0 -0.6,0.1 -0.8,0.3c-0.2,0 -0.3,0.1 -0.3,0.3z"/>
   <path fill="#ffffff" id="svg_125" d="m80.11589,4.81636l0,-1.6l0.3,0l0,1.6l0.8,0l0,0.4l-0.7,0l0,3.5l-0.3,0l0,-3.5l-0.8,0l0,-0.4l0.7,0z"/>
   <path fill="#ffffff" id="svg_126" d="m83.21589,5.11636c-0.2,0 -0.4,0.2 -0.6,0.4c-0.3,0.3 -0.5,0.7 -0.5,1.2l0,2l-0.4,0l0,-3.8l0.4,0l0,0.7c0.1,-0.1 0.2,-0.2 0.3,-0.3c0.2,-0.2 0.4,-0.4 0.7,-0.4l0.1,0.2z"/>
   <path fill="#ffffff" id="svg_127" d="m83.91589,6.41636c0,0.1 0,0.1 0,0.2c0,0.5 0.2,0.9 0.5,1.2c0.3,0.3 0.8,0.5 1.2,0.5c0.5,0 0.9,-0.2 1.2,-0.5c0.1,-0.1 0.1,-0.1 0.2,-0.2l0.4,0.1c0,0.1 -0.1,0.2 -0.3,0.3c-0.4,0.4 -0.9,0.6 -1.5,0.6c-0.6,0 -1.1,-0.2 -1.5,-0.6c-0.4,-0.4 -0.6,-0.9 -0.6,-1.5c0,-0.6 0.2,-1.1 0.6,-1.5c0.4,-0.4 0.9,-0.6 1.5,-0.6c0.6,0 1.1,0.2 1.5,0.6c0.4,0.4 0.5,0.8 0.5,1.3l-3.7,0l0,0.1zm0.1,-0.3l3.3,0c-0.1,-0.3 -0.2,-0.5 -0.4,-0.7c-0.3,-0.3 -0.8,-0.5 -1.2,-0.5c-0.5,0 -0.9,0.2 -1.2,0.5c-0.3,0.2 -0.4,0.4 -0.5,0.7z"/>
   <path fill="#ffffff" id="svg_128" d="m92.71589,4.51636c0.6,0 1.1,0.2 1.5,0.6c0.4,0.4 0.6,0.9 0.6,1.5c0,0.6 -0.2,1.1 -0.6,1.5c-0.4,0.4 -0.9,0.6 -1.5,0.6c-0.6,0 -1.1,-0.2 -1.5,-0.6c-0.4,-0.4 -0.6,-0.9 -0.6,-1.5c0,-0.6 0.2,-1.1 0.6,-1.5c0.4,-0.4 0.9,-0.6 1.5,-0.6zm-1.2,0.9c-0.3,0.3 -0.5,0.8 -0.5,1.2c0,0.5 0.2,0.9 0.5,1.2c0.3,0.3 0.8,0.5 1.2,0.5c0.5,0 0.9,-0.2 1.2,-0.5c0.3,-0.3 0.5,-0.8 0.5,-1.2c0,-0.5 -0.2,-0.9 -0.5,-1.2c-0.3,-0.3 -0.8,-0.5 -1.2,-0.5c-0.5,0 -0.9,0.1 -1.2,0.5z"/>
   <path fill="#ffffff" id="svg_129" d="m96.11589,5.21636l0,3.5l-0.4,0l0,-3.5l-0.4,0l0,-0.4l0.4,0l0,-1c0,-0.3 0.1,-0.5 0.3,-0.7c0.2,-0.2 0.5,-0.3 0.7,-0.3c0.1,0 0.3,0 0.5,0.1l-0.1,0.3c-0.1,0 -0.2,-0.1 -0.3,-0.1c-0.2,0 -0.4,0.1 -0.5,0.2c-0.1,0.1 -0.2,0.3 -0.2,0.5l0,1l0.8,0l0,0.4l-0.8,0z"/>
  </g>
  <g id="svg_130">
   <path fill="#ffffff" id="svg_131" d="m105.51589,7.71636c-0.6,0.6 -1.3,0.8 -2.1,0.8c-0.9,0 -1.6,-0.3 -2.3,-0.9c-0.6,-0.6 -0.9,-1.4 -0.9,-2.3c0,-0.9 0.3,-1.6 0.9,-2.2c0.6,-0.6 1.4,-0.9 2.3,-0.9c0.8,0 1.5,0.3 2.1,0.8l-0.3,0.2c-0.5,-0.5 -1.2,-0.7 -1.9,-0.7c-0.8,0 -1.4,0.3 -2,0.8c-0.6,0.6 -0.8,1.2 -0.8,2c0,0.8 0.3,1.4 0.8,2c0.6,0.6 1.2,0.8 2,0.8c0.7,0 1.3,-0.2 1.8,-0.6l0,-1.9l0.3,0l0,2.1l0.1,0z"/>
   <path fill="#ffffff" id="svg_132" d="m106.61589,6.21636c0,0.1 0,0.1 0,0.2c0,0.5 0.2,0.9 0.5,1.2c0.3,0.3 0.8,0.5 1.2,0.5c0.5,0 0.9,-0.2 1.2,-0.5c0.1,-0.1 0.1,-0.1 0.2,-0.2l0.4,0.1c0,0.1 -0.1,0.2 -0.3,0.3c-0.4,0.4 -0.9,0.6 -1.5,0.6c-0.6,0 -1.1,-0.2 -1.5,-0.6c-0.4,-0.4 -0.6,-0.9 -0.6,-1.5c0,-0.6 0.2,-1.1 0.6,-1.5c0.4,-0.4 0.9,-0.6 1.5,-0.6c0.6,0 1.1,0.2 1.5,0.6c0.4,0.4 0.5,0.8 0.5,1.3l-3.7,0l0,0.1zm0,-0.3l3.3,0c-0.1,-0.3 -0.2,-0.5 -0.4,-0.7c-0.3,-0.3 -0.8,-0.5 -1.2,-0.5c-0.5,0 -0.9,0.2 -1.2,0.5c-0.3,0.2 -0.4,0.4 -0.5,0.7z"/>
   <path fill="#ffffff" id="svg_133" d="m111.41589,5.51636l0,3l-0.4,0l0,-3.8l0.4,0l0,0.2c0.3,-0.3 0.7,-0.5 1.1,-0.5c0.5,0 0.8,0.1 1.1,0.4c0.3,0.3 0.4,0.6 0.4,1.1l0,2.5l-0.3,0l0,-2.5c0,-0.3 -0.1,-0.6 -0.4,-0.8c-0.2,-0.2 -0.5,-0.3 -0.8,-0.3c-0.3,0 -0.6,0.1 -0.8,0.3c-0.2,0.1 -0.2,0.2 -0.3,0.4z"/>
   <path fill="#ffffff" id="svg_134" d="m117.01589,4.31636c0.6,0 1.1,0.2 1.5,0.6c0.4,0.4 0.6,0.9 0.6,1.5c0,0.6 -0.2,1.1 -0.6,1.5c-0.4,0.4 -0.9,0.6 -1.5,0.6c-0.6,0 -1.1,-0.2 -1.5,-0.6c-0.4,-0.4 -0.6,-0.9 -0.6,-1.5c0,-0.6 0.2,-1.1 0.6,-1.5c0.4,-0.4 0.9,-0.6 1.5,-0.6zm-1.2,0.9c-0.3,0.3 -0.5,0.8 -0.5,1.2c0,0.5 0.2,0.9 0.5,1.2c0.3,0.3 0.8,0.5 1.2,0.5c0.5,0 0.9,-0.2 1.2,-0.5c0.3,-0.3 0.5,-0.8 0.5,-1.2c0,-0.5 -0.2,-0.9 -0.5,-1.2c-0.3,-0.3 -0.8,-0.5 -1.2,-0.5c-0.5,0 -0.9,0.1 -1.2,0.5z"/>
   <path fill="#ffffff" id="svg_135" d="m120.01589,4.61636l0.4,0l0,0.1c0.2,-0.2 0.5,-0.3 0.8,-0.3c0.3,0 0.6,0.1 0.8,0.3c0.1,0.1 0.1,0.1 0.2,0.2c0,-0.1 0.1,-0.1 0.2,-0.2c0.2,-0.2 0.5,-0.3 0.8,-0.3c0.3,0 0.6,0.1 0.8,0.3c0.2,0.2 0.3,0.5 0.3,0.8l0,2.9l-0.4,0l0,-2.9l0,0c0,-0.2 -0.1,-0.4 -0.2,-0.5c-0.2,-0.2 -0.3,-0.2 -0.6,-0.2c-0.2,0 -0.4,0.1 -0.6,0.2c-0.2,0.2 -0.2,0.3 -0.2,0.6l0,2.8l-0.3,0l0,-2.9l0,0c0,-0.2 -0.1,-0.4 -0.2,-0.5c-0.2,-0.2 -0.3,-0.2 -0.6,-0.2c-0.2,0 -0.4,0.1 -0.5,0.2c-0.1,0.1 -0.2,0.3 -0.2,0.5l0,3l-0.4,0l0,-3.9l-0.1,0z"/>
   <path fill="#ffffff" id="svg_136" d="m125.61589,3.41636c0.1,0.1 0.1,0.1 0.1,0.2c0,0.1 0,0.2 -0.1,0.2c-0.1,0.1 -0.2,0.1 -0.2,0.1c-0.1,0 -0.2,0 -0.2,-0.1c-0.1,-0.1 -0.1,-0.2 -0.1,-0.2c0,-0.1 0,-0.2 0.1,-0.2c0.1,-0.1 0.2,-0.1 0.2,-0.1c0.1,0 0.2,0 0.2,0.1zm0,1.2l0,3.8l-0.3,0l0,-3.8l0.3,0z"/>
   <path fill="#ffffff" id="svg_137" d="m129.91589,7.51636l0.4,0.1c-0.1,0.1 -0.1,0.2 -0.2,0.3c-0.4,0.4 -0.9,0.6 -1.5,0.6c-0.6,0 -1.1,-0.2 -1.5,-0.6c-0.4,-0.4 -0.6,-0.9 -0.6,-1.5c0,-0.6 0.2,-1.1 0.6,-1.5c0.4,-0.4 0.9,-0.6 1.5,-0.6c0.6,0 1.1,0.2 1.5,0.6c0.1,0.1 0.2,0.2 0.2,0.3l-0.4,0.1c0,0 -0.1,-0.1 -0.1,-0.1c-0.3,-0.3 -0.8,-0.5 -1.2,-0.5c-0.5,0 -0.9,0.2 -1.2,0.5c-0.3,0.3 -0.5,0.8 -0.5,1.2c0,0.5 0.2,0.9 0.5,1.2c0.3,0.3 0.8,0.5 1.2,0.5c0.5,0 0.9,-0.2 1.2,-0.5c0,0 0.1,0 0.1,-0.1z"/>
   <path fill="#ffffff" id="svg_138" d="m132.01589,6.41636c-0.3,-0.2 -0.5,-0.3 -0.6,-0.4c-0.2,-0.2 -0.3,-0.4 -0.3,-0.6c0,-0.3 0.1,-0.5 0.3,-0.6c0.2,-0.2 0.4,-0.3 0.6,-0.3c0.3,0 0.5,0.1 0.6,0.2c0.2,0.2 0.2,0.3 0.2,0.6l0,0l-0.3,0.1c0,-0.2 -0.1,-0.3 -0.2,-0.4c-0.1,-0.1 -0.2,-0.1 -0.4,-0.1c-0.2,0 -0.3,0.1 -0.4,0.2c-0.1,0.1 -0.2,0.2 -0.2,0.4c0,0.2 0.1,0.3 0.2,0.4c0.1,0.1 0.2,0.2 0.4,0.3c0.3,0.2 0.6,0.3 0.7,0.5c0.2,0.2 0.3,0.5 0.3,0.8c0,0.3 -0.1,0.6 -0.3,0.8c-0.2,0.2 -0.5,0.3 -0.8,0.3c-0.3,0 -0.6,-0.1 -0.8,-0.3c-0.2,-0.2 -0.3,-0.5 -0.3,-0.7l0.3,-0.1c0,0.2 0.1,0.4 0.2,0.6c0.2,0.2 0.3,0.2 0.6,0.2c0.2,0 0.4,-0.1 0.6,-0.2c0.2,-0.2 0.2,-0.3 0.2,-0.6c0,-0.2 -0.1,-0.4 -0.2,-0.5c0,-0.3 -0.1,-0.4 -0.4,-0.6z"/>
   <path fill="#ffffff" id="svg_139" d="m140.41589,8.41636l-0.4,0l0,-0.8c-0.1,0.1 -0.1,0.2 -0.2,0.3c-0.4,0.4 -0.9,0.6 -1.5,0.6c-0.6,0 -1.1,-0.2 -1.5,-0.6c-0.4,-0.4 -0.6,-0.9 -0.6,-1.5c0,-0.6 0.2,-1.1 0.6,-1.5c0.4,-0.4 0.9,-0.6 1.5,-0.6c0.6,0 1.1,0.2 1.5,0.6c0.1,0.1 0.2,0.2 0.2,0.3l0,-0.5l0.4,0l0,3.7zm-0.4,-1.6l0,-0.7c-0.1,-0.3 -0.2,-0.6 -0.5,-0.9c-0.3,-0.3 -0.8,-0.5 -1.2,-0.5c-0.5,0 -0.9,0.2 -1.2,0.5c-0.3,0.3 -0.5,0.8 -0.5,1.2c0,0.5 0.2,0.9 0.5,1.2c0.3,0.3 0.8,0.5 1.2,0.5c0.5,0 0.9,-0.2 1.2,-0.5c0.3,-0.2 0.5,-0.5 0.5,-0.8z"/>
   <path fill="#ffffff" id="svg_140" d="m141.61589,5.51636l0,3l-0.4,0l0,-3.8l0.4,0l0,0.2c0.3,-0.3 0.7,-0.5 1.1,-0.5c0.5,0 0.8,0.1 1.1,0.4c0.3,0.3 0.4,0.6 0.4,1.1l0,2.5l-0.3,0l0,-2.5c0,-0.3 -0.1,-0.6 -0.4,-0.8c-0.2,-0.2 -0.5,-0.3 -0.8,-0.3c-0.3,0 -0.6,0.1 -0.8,0.3c-0.1,0.1 -0.2,0.2 -0.3,0.4z"/>
   <path fill="#ffffff" id="svg_141" d="m149.31589,8.41636l-0.4,0l0,-0.8c-0.1,0.1 -0.1,0.2 -0.2,0.3c-0.4,0.4 -0.9,0.6 -1.5,0.6c-0.6,0 -1.1,-0.2 -1.5,-0.6c-0.4,-0.4 -0.6,-0.9 -0.6,-1.5c0,-0.6 0.2,-1.1 0.6,-1.5c0.4,-0.4 0.9,-0.6 1.5,-0.6c0.6,0 1.1,0.2 1.5,0.6c0.1,0.1 0.2,0.2 0.2,0.3l0,-2.9l0.4,0l0,6.1zm-0.3,-1.6l0,-0.7c-0.1,-0.3 -0.2,-0.6 -0.5,-0.9c-0.3,-0.3 -0.8,-0.5 -1.2,-0.5c-0.5,0 -0.9,0.2 -1.2,0.5c-0.3,0.3 -0.5,0.8 -0.5,1.2c0,0.5 0.2,0.9 0.5,1.2c0.3,0.3 0.8,0.5 1.2,0.5c0.5,0 0.9,-0.2 1.2,-0.5c0.3,-0.2 0.4,-0.5 0.5,-0.8z"/>
   <path fill="#ffffff" id="svg_142" d="m153.01589,6.31636l0,2.1l-0.4,0l0,-6.2l1.6,0c0.5,0.1 0.9,0.3 1.2,0.6c0.4,0.4 0.6,0.9 0.6,1.4c0,0.6 -0.2,1 -0.6,1.4c-0.4,0.4 -0.9,0.6 -1.4,0.6l-1,0l0,0.1zm0,-3.7l0,3.3l1.1,0c0.5,0 0.9,-0.2 1.2,-0.5c0.3,-0.3 0.5,-0.7 0.5,-1.2c0,-0.5 -0.2,-0.9 -0.5,-1.2c-0.3,-0.3 -0.7,-0.5 -1.2,-0.5l-1.1,0l0,0.1z"/>
   <path fill="#ffffff" id="svg_143" d="m158.91589,4.31636c0.6,0 1.1,0.2 1.5,0.6c0.4,0.4 0.6,0.9 0.6,1.5c0,0.6 -0.2,1.1 -0.6,1.5c-0.4,0.4 -0.9,0.6 -1.5,0.6c-0.6,0 -1.1,-0.2 -1.5,-0.6c-0.4,-0.4 -0.6,-0.9 -0.6,-1.5c0,-0.6 0.2,-1.1 0.6,-1.5c0.4,-0.4 0.9,-0.6 1.5,-0.6zm-1.2,0.9c-0.3,0.3 -0.5,0.8 -0.5,1.2c0,0.5 0.2,0.9 0.5,1.2c0.3,0.3 0.8,0.5 1.2,0.5s0.9,-0.2 1.2,-0.5c0.3,-0.3 0.5,-0.8 0.5,-1.2c0,-0.5 -0.2,-0.9 -0.5,-1.2c-0.3,-0.3 -0.8,-0.5 -1.2,-0.5s-0.9,0.1 -1.2,0.5z"/>
   <path fill="#ffffff" id="svg_144" d="m162.31589,2.21636l0,6.2l-0.4,0l0,-6.2l0.4,0z"/>
   <path fill="#ffffff" id="svg_145" d="m163.81589,3.41636c0.1,0.1 0.1,0.1 0.1,0.2c0,0.1 0,0.2 -0.1,0.2c-0.1,0.1 -0.2,0.1 -0.2,0.1c-0.1,0 -0.2,0 -0.2,-0.1c-0.1,-0.1 -0.1,-0.2 -0.1,-0.2c0,-0.1 0,-0.2 0.1,-0.2c0.1,-0.1 0.2,-0.1 0.2,-0.1c0,0 0.1,0 0.2,0.1zm-0.1,1.2l0,3.8l-0.3,0l0,-3.8l0.3,0z"/>
   <path fill="#ffffff" id="svg_146" d="m168.11589,7.51636l0.4,0.1c-0.1,0.1 -0.1,0.2 -0.2,0.3c-0.4,0.4 -0.9,0.6 -1.5,0.6c-0.6,0 -1.1,-0.2 -1.5,-0.6c-0.4,-0.4 -0.6,-0.9 -0.6,-1.5c0,-0.6 0.2,-1.1 0.6,-1.5c0.4,-0.4 0.9,-0.6 1.5,-0.6c0.6,0 1.1,0.2 1.5,0.6c0.1,0.1 0.2,0.2 0.2,0.3l-0.4,0.1c0,0 -0.1,-0.1 -0.1,-0.1c-0.3,-0.3 -0.8,-0.5 -1.2,-0.5c-0.5,0 -0.9,0.2 -1.2,0.5c-0.3,0.3 -0.5,0.8 -0.5,1.2c0,0.5 0.2,0.9 0.5,1.2c0.3,0.3 0.8,0.5 1.2,0.5c0.5,0 0.9,-0.2 1.2,-0.5c0,0 0,0 0.1,-0.1z"/>
   <path fill="#ffffff" id="svg_147" d="m170.71589,7.71636l-1,2.2l-0.4,0l1,-2.2l-1.4,-3.1l0.4,0l1.3,2.7l1.3,-2.7l0.4,0l-1.6,3.1l0,0z"/>
  </g>
  <g id="svg_148">
   <path fill="#ffffff" id="svg_149" d="m69.71589,17.91636l0.3,0.2c-0.6,0.6 -1.3,0.8 -2.1,0.8c-0.9,0 -1.6,-0.3 -2.3,-0.9c-0.6,-0.6 -0.9,-1.4 -0.9,-2.3c0,-0.9 0.3,-1.6 0.9,-2.2c0.6,-0.6 1.4,-0.9 2.3,-0.9c0.8,0 1.5,0.3 2.1,0.8l-0.3,0.2c-0.5,-0.5 -1.2,-0.7 -1.9,-0.7c-0.8,0 -1.4,0.3 -2,0.8c-0.6,0.6 -0.8,1.2 -0.8,2c0,0.8 0.3,1.4 0.8,2c0.6,0.6 1.2,0.8 2,0.8c0.7,0.1 1.4,-0.1 1.9,-0.6z"/>
   <path fill="#ffffff" id="svg_150" d="m70.91589,16.71636c0,0.1 0,0.1 0,0.2c0,0.5 0.2,0.9 0.5,1.2c0.3,0.3 0.8,0.5 1.2,0.5c0.5,0 0.9,-0.2 1.2,-0.5c0.1,-0.1 0.1,-0.1 0.2,-0.2l0.4,0.1c0,0.1 -0.1,0.2 -0.3,0.3c-0.4,0.4 -0.9,0.6 -1.5,0.6c-0.6,0 -1.1,-0.2 -1.5,-0.6c-0.4,-0.4 -0.6,-0.9 -0.6,-1.5c0,-0.6 0.2,-1.1 0.6,-1.5c0.4,-0.4 0.9,-0.6 1.5,-0.6c0.6,0 1.1,0.2 1.5,0.6c0.4,0.4 0.5,0.8 0.5,1.3l-3.7,0l0,0.1zm0.1,-0.4l3.3,0c-0.1,-0.3 -0.2,-0.5 -0.4,-0.7c-0.3,-0.3 -0.8,-0.5 -1.2,-0.5c-0.5,0 -0.9,0.2 -1.2,0.5c-0.3,0.3 -0.4,0.5 -0.5,0.7z"/>
   <path fill="#ffffff" id="svg_151" d="m75.81589,16.01636l0,3l-0.4,0l0,-3.8l0.4,0l0,0.2c0.3,-0.3 0.7,-0.5 1.1,-0.5c0.5,0 0.8,0.1 1.1,0.4c0.3,0.3 0.4,0.6 0.4,1.1l0,2.6l-0.3,0l0,-2.6c0,-0.3 -0.1,-0.6 -0.4,-0.8c-0.2,-0.2 -0.5,-0.3 -0.8,-0.3c-0.3,0 -0.6,0.1 -0.8,0.3c-0.1,0.1 -0.2,0.2 -0.3,0.4z"/>
   <path fill="#ffffff" id="svg_152" d="m79.91589,15.11636l0,-1.6l0.3,0l0,1.6l0.8,0l0,0.4l-0.8,0l0,3.5l-0.3,0l0,-3.5l-0.8,0l0,-0.4l0.8,0z"/>
   <path fill="#ffffff" id="svg_153" d="m83.01589,15.41636c-0.2,0 -0.4,0.2 -0.6,0.4c-0.3,0.3 -0.5,0.7 -0.5,1.2l0,2l-0.4,0l0,-3.8l0.4,0l0,0.7c0.1,-0.1 0.2,-0.2 0.3,-0.3c0.2,-0.2 0.4,-0.4 0.7,-0.4l0.1,0.2z"/>
   <path fill="#ffffff" id="svg_154" d="m83.81589,16.71636c0,0.1 0,0.1 0,0.2c0,0.5 0.2,0.9 0.5,1.2c0.3,0.3 0.8,0.5 1.2,0.5c0.5,0 0.9,-0.2 1.2,-0.5c0.1,-0.1 0.1,-0.1 0.2,-0.2l0.4,0.1c0,0.1 -0.1,0.2 -0.3,0.3c-0.4,0.4 -0.9,0.6 -1.5,0.6c-0.6,0 -1.1,-0.2 -1.5,-0.6c-0.4,-0.4 -0.6,-0.9 -0.6,-1.5c0,-0.6 0.2,-1.1 0.6,-1.5c0.4,-0.4 0.9,-0.6 1.5,-0.6c0.6,0 1.1,0.2 1.5,0.6c0.4,0.4 0.5,0.8 0.5,1.3l-3.7,0l0,0.1zm0,-0.4l3.3,0c-0.1,-0.3 -0.2,-0.5 -0.4,-0.7c-0.3,-0.3 -0.8,-0.5 -1.2,-0.5c-0.5,0 -0.9,0.2 -1.2,0.5c-0.3,0.3 -0.4,0.5 -0.5,0.7z"/>
   <path fill="#ffffff" id="svg_155" d="m94.71589,18.91636l-0.4,0l0,-0.8c-0.1,0.1 -0.1,0.2 -0.2,0.3c-0.4,0.4 -0.9,0.6 -1.5,0.6c-0.6,0 -1.1,-0.2 -1.5,-0.6c-0.4,-0.4 -0.6,-0.9 -0.6,-1.5c0,-0.6 0.2,-1.1 0.6,-1.5c0.4,-0.4 0.9,-0.6 1.5,-0.6c0.6,0 1.1,0.2 1.5,0.6c0.1,0.1 0.2,0.2 0.2,0.3l0,-2.9l0.4,0l0,6.1zm-0.4,-1.7l0,-0.7c-0.1,-0.3 -0.2,-0.6 -0.5,-0.9c-0.3,-0.3 -0.8,-0.5 -1.2,-0.5c-0.5,0 -0.9,0.2 -1.2,0.5c-0.3,0.3 -0.5,0.8 -0.5,1.2c0,0.5 0.2,0.9 0.5,1.2c0.3,0.3 0.8,0.5 1.2,0.5c0.5,0 0.9,-0.2 1.2,-0.5c0.3,-0.1 0.5,-0.4 0.5,-0.8z"/>
   <path fill="#ffffff" id="svg_156" d="m95.81589,16.71636c0,0.1 0,0.1 0,0.2c0,0.5 0.2,0.9 0.5,1.2c0.3,0.3 0.8,0.5 1.2,0.5s0.9,-0.2 1.2,-0.5c0.1,-0.1 0.1,-0.1 0.2,-0.2l0.4,0.1c0,0.1 -0.1,0.2 -0.3,0.3c-0.4,0.4 -0.9,0.6 -1.5,0.6c-0.6,0 -1.1,-0.2 -1.5,-0.6c-0.4,-0.4 -0.6,-0.9 -0.6,-1.5c0,-0.6 0.2,-1.1 0.6,-1.5c0.4,-0.4 0.9,-0.6 1.5,-0.6c0.6,0 1.1,0.2 1.5,0.6c0.4,0.4 0.5,0.8 0.5,1.3l-3.7,0l0,0.1zm0.1,-0.4l3.3,0c-0.1,-0.3 -0.2,-0.5 -0.4,-0.7c-0.3,-0.3 -0.8,-0.5 -1.2,-0.5s-0.9,0.2 -1.2,0.5c-0.3,0.3 -0.5,0.5 -0.5,0.7z"/>
  </g>
  <g id="svg_157">
   <path fill="#ffffff" id="svg_158" d="m106.71589,18.11636c-0.1,0.1 -0.1,0.2 -0.2,0.2c-0.4,0.4 -0.9,0.6 -1.5,0.6c-0.6,0 -1.1,-0.2 -1.5,-0.6c-0.4,-0.4 -0.6,-0.9 -0.6,-1.5c0,-0.6 0.2,-1.1 0.6,-1.5c0.4,-0.4 0.9,-0.6 1.5,-0.6c0.6,0 1.1,0.2 1.5,0.6c0.1,0.1 0.2,0.2 0.2,0.3l0,-0.5l0.4,0l0,3c0,0.6 -0.2,1.1 -0.6,1.5c-0.4,0.4 -0.9,0.6 -1.5,0.6c-0.6,0 -1.1,-0.2 -1.5,-0.6c-0.1,-0.1 -0.2,-0.2 -0.2,-0.3l0.4,-0.1c0,0 0.1,0.1 0.1,0.1c0.3,0.3 0.8,0.5 1.2,0.5c0.5,0 0.9,-0.2 1.2,-0.5c0.2,-0.4 0.4,-0.7 0.5,-1.2zm0,-1.6c-0.1,-0.3 -0.2,-0.6 -0.5,-0.9c-0.3,-0.3 -0.8,-0.5 -1.2,-0.5c-0.5,0 -0.9,0.2 -1.2,0.5c-0.3,0.3 -0.5,0.8 -0.5,1.2c0,0.5 0.2,0.9 0.5,1.2c0.3,0.3 0.8,0.5 1.2,0.5c0.5,0 0.9,-0.2 1.2,-0.5c0.2,-0.2 0.4,-0.5 0.5,-0.9l0,-0.6z"/>
   <path fill="#ffffff" id="svg_159" d="m108.01589,16.71636c0,0.1 0,0.1 0,0.2c0,0.5 0.2,0.9 0.5,1.2c0.3,0.3 0.8,0.5 1.2,0.5c0.5,0 0.9,-0.2 1.2,-0.5c0.1,-0.1 0.1,-0.1 0.2,-0.2l0.4,0.1c0,0.1 -0.1,0.2 -0.3,0.3c-0.4,0.4 -0.9,0.6 -1.5,0.6c-0.6,0 -1.1,-0.2 -1.5,-0.6c-0.4,-0.4 -0.6,-0.9 -0.6,-1.5c0,-0.6 0.2,-1.1 0.6,-1.5c0.4,-0.4 0.9,-0.6 1.5,-0.6c0.6,0 1.1,0.2 1.5,0.6c0.4,0.4 0.5,0.8 0.5,1.3l-3.7,0l0,0.1zm0.1,-0.4l3.3,0c-0.1,-0.3 -0.2,-0.5 -0.4,-0.7c-0.3,-0.3 -0.8,-0.5 -1.2,-0.5c-0.5,0 -0.9,0.2 -1.2,0.5c-0.3,0.2 -0.4,0.5 -0.5,0.7zm2.5,-2.8l-1,0.7l-0.3,0l0.6,-0.7l0.7,0z"/>
   <path fill="#ffffff" id="svg_160" d="m112.91589,15.91636l0,3l-0.4,0l0,-3.8l0.4,0l0,0.2c0.3,-0.3 0.7,-0.5 1.1,-0.5c0.5,0 0.8,0.1 1.1,0.4c0.3,0.3 0.4,0.6 0.4,1.1l0,2.6l-0.3,0l0,-2.5c0,-0.3 -0.1,-0.6 -0.4,-0.8c-0.2,-0.2 -0.5,-0.3 -0.8,-0.3c-0.3,0 -0.6,0.1 -0.8,0.3c-0.2,0.1 -0.3,0.2 -0.3,0.3z"/>
   <path fill="#ffffff" id="svg_161" d="m118.51589,14.71636c0.6,0 1.1,0.2 1.5,0.6c0.4,0.4 0.6,0.9 0.6,1.5c0,0.6 -0.2,1.1 -0.6,1.5c-0.4,0.4 -0.9,0.6 -1.5,0.6c-0.6,0 -1.1,-0.2 -1.5,-0.6c-0.4,-0.4 -0.6,-0.9 -0.6,-1.5c0,-0.6 0.2,-1.1 0.6,-1.5c0.4,-0.3 0.9,-0.6 1.5,-0.6zm-1.2,0.9c-0.3,0.3 -0.5,0.8 -0.5,1.2c0,0.5 0.2,0.9 0.5,1.2c0.3,0.3 0.8,0.5 1.2,0.5c0.5,0 0.9,-0.2 1.2,-0.5c0.3,-0.3 0.5,-0.8 0.5,-1.2c0,-0.5 -0.2,-0.9 -0.5,-1.2c-0.3,-0.3 -0.8,-0.5 -1.2,-0.5c-0.5,0 -0.9,0.2 -1.2,0.5z"/>
   <path fill="#ffffff" id="svg_162" d="m121.51589,15.11636l0.4,0l0,0.1c0.2,-0.2 0.5,-0.3 0.8,-0.3c0.3,0 0.6,0.1 0.8,0.3c0.1,0.1 0.1,0.1 0.2,0.2c0,-0.1 0.1,-0.1 0.2,-0.2c0.2,-0.2 0.5,-0.3 0.8,-0.3c0.3,0 0.6,0.1 0.8,0.3c0.2,0.2 0.3,0.5 0.3,0.8l0,2.9l-0.4,0l0,-2.9l0,0c0,-0.2 -0.1,-0.4 -0.2,-0.5c-0.2,-0.2 -0.3,-0.2 -0.6,-0.2c-0.2,0 -0.4,0.1 -0.6,0.2c-0.2,0.2 -0.2,0.3 -0.2,0.6l0,2.9l-0.3,0l0,-2.9l0,0c0,-0.2 -0.1,-0.4 -0.2,-0.5c-0.2,-0.2 -0.3,-0.2 -0.6,-0.2c-0.2,0 -0.4,0.1 -0.5,0.2c-0.1,0.1 -0.2,0.3 -0.2,0.5l0,3l-0.5,0l0,-4z"/>
   <path fill="#ffffff" id="svg_163" d="m127.11589,13.81636c0.1,0.1 0.1,0.1 0.1,0.2c0,0.1 0,0.2 -0.1,0.2c-0.1,0.1 -0.2,0.1 -0.2,0.1c-0.1,0 -0.2,0 -0.2,-0.1c-0.1,-0.1 -0.1,-0.2 -0.1,-0.2c0,-0.1 0,-0.2 0.1,-0.2c0.1,-0.1 0.2,-0.1 0.2,-0.1c0.1,0 0.2,0.1 0.2,0.1zm0,1.3l0,3.8l-0.3,0l0,-3.8l0.3,0z"/>
   <path fill="#ffffff" id="svg_164" d="m132.21589,20.41636l-0.4,0l0,-2.2c-0.1,0.1 -0.1,0.2 -0.2,0.3c-0.4,0.4 -0.9,0.6 -1.5,0.6c-0.6,0 -1.1,-0.2 -1.5,-0.6c-0.4,-0.4 -0.6,-0.9 -0.6,-1.5c0,-0.6 0.2,-1.1 0.6,-1.5c0.4,-0.4 0.9,-0.6 1.5,-0.6c0.6,0 1.1,0.2 1.5,0.6c0.1,0.1 0.2,0.2 0.2,0.3l0,-0.5l0.4,0l0,5.1zm-0.4,-3.2l0,-0.7c-0.1,-0.3 -0.2,-0.6 -0.5,-0.9c-0.3,-0.3 -0.8,-0.5 -1.2,-0.5s-0.9,0.2 -1.2,0.5c-0.3,0.3 -0.5,0.8 -0.5,1.2c0,0.5 0.2,0.9 0.5,1.2c0.3,0.3 0.8,0.5 1.2,0.5s0.9,-0.2 1.2,-0.5c0.3,-0.1 0.5,-0.4 0.5,-0.8z"/>
   <path fill="#ffffff" id="svg_165" d="m134.61589,19.01636c-0.5,0 -0.9,-0.1 -1.1,-0.4c-0.3,-0.3 -0.4,-0.6 -0.4,-1.1l0,-2.4l0.4,0l0,2.3c0,0.3 0.1,0.6 0.4,0.8c0.2,0.2 0.5,0.3 0.9,0.3c0.3,0 0.6,-0.1 0.8,-0.3c0.2,-0.2 0.3,-0.5 0.3,-0.8l0,-2.4l0.4,0l0,2.4c0,0.4 -0.2,0.8 -0.4,1.1c-0.5,0.3 -0.8,0.5 -1.3,0.5z"/>
   <path fill="#ffffff" id="svg_166" d="m137.21589,16.71636c0,0.1 0,0.1 0,0.2c0,0.5 0.2,0.9 0.5,1.2c0.3,0.3 0.8,0.5 1.2,0.5c0.5,0 0.9,-0.2 1.2,-0.5c0.1,-0.1 0.1,-0.1 0.2,-0.2l0.4,0.1c0,0.1 -0.1,0.2 -0.3,0.3c-0.4,0.4 -0.9,0.6 -1.5,0.6c-0.6,0 -1.1,-0.2 -1.5,-0.6c-0.4,-0.4 -0.6,-0.9 -0.6,-1.5c0,-0.6 0.2,-1.1 0.6,-1.5c0.4,-0.4 0.9,-0.6 1.5,-0.6c0.6,0 1.1,0.2 1.5,0.6c0.4,0.4 0.5,0.8 0.5,1.3l-3.7,0l0,0.1zm0.1,-0.4l3.3,0c-0.1,-0.3 -0.2,-0.5 -0.4,-0.7c-0.3,-0.3 -0.8,-0.5 -1.2,-0.5c-0.5,0 -0.9,0.2 -1.2,0.5c-0.3,0.2 -0.4,0.5 -0.5,0.7z"/>
   <path fill="#ffffff" id="svg_167" d="m144.21589,16.71636c0,0.1 0,0.1 0,0.2c0,0.5 0.2,0.9 0.5,1.2c0.3,0.3 0.8,0.5 1.2,0.5c0.5,0 0.9,-0.2 1.2,-0.5c0.1,-0.1 0.1,-0.1 0.2,-0.2l0.4,0.1c0,0.1 -0.1,0.2 -0.3,0.3c-0.4,0.4 -0.9,0.6 -1.5,0.6c-0.6,0 -1.1,-0.2 -1.5,-0.6c-0.4,-0.4 -0.6,-0.9 -0.6,-1.5c0,-0.6 0.2,-1.1 0.6,-1.5c0.4,-0.4 0.9,-0.6 1.5,-0.6c0.6,0 1.1,0.2 1.5,0.6c0.4,0.4 0.5,0.8 0.5,1.3l-3.7,0l0,0.1zm0.1,-0.4l3.3,0c-0.1,-0.3 -0.2,-0.5 -0.4,-0.7c-0.3,-0.3 -0.8,-0.5 -1.2,-0.5c-0.5,0 -0.9,0.2 -1.2,0.5c-0.3,0.2 -0.4,0.5 -0.5,0.7z"/>
   <path fill="#ffffff" id="svg_168" d="m149.21589,15.11636l0,-1.6l0.3,0l0,1.6l0.8,0l0,0.3l-0.8,0l0,3.5l-0.3,0l0,-3.5l-0.7,0l0,-0.4l0.7,0l0,0.1z"/>
   <path fill="#ffffff" id="svg_169" d="m153.31589,15.11636l0.4,0l0,0.5c0.1,-0.1 0.1,-0.2 0.2,-0.3c0.4,-0.4 0.9,-0.6 1.5,-0.6c0.6,0 1.1,0.2 1.5,0.6c0.4,0.4 0.6,0.9 0.6,1.5c0,0.6 -0.2,1.1 -0.6,1.5c-0.4,0.4 -0.9,0.6 -1.5,0.6c-0.6,0 -1.1,-0.2 -1.5,-0.6c-0.1,-0.1 -0.2,-0.2 -0.2,-0.3l0,2.4l-0.4,0l0,-5.3zm0.4,1.4l0,0.7c0.1,0.3 0.2,0.6 0.5,0.9c0.3,0.3 0.8,0.5 1.2,0.5c0.5,0 0.9,-0.2 1.2,-0.5c0.3,-0.3 0.5,-0.8 0.5,-1.2c0,-0.5 -0.2,-0.9 -0.5,-1.2c-0.3,-0.3 -0.8,-0.5 -1.2,-0.5c-0.5,0 -0.9,0.2 -1.2,0.5c-0.3,0.2 -0.5,0.5 -0.5,0.8z"/>
   <path fill="#ffffff" id="svg_170" d="m160.41589,14.71636c0.6,0 1.1,0.2 1.5,0.6c0.4,0.4 0.6,0.9 0.6,1.5c0,0.6 -0.2,1.1 -0.6,1.5c-0.4,0.4 -0.9,0.6 -1.5,0.6c-0.6,0 -1.1,-0.2 -1.5,-0.6c-0.4,-0.4 -0.6,-0.9 -0.6,-1.5c0,-0.6 0.2,-1.1 0.6,-1.5c0.4,-0.3 0.9,-0.6 1.5,-0.6zm-1.3,0.9c-0.3,0.3 -0.5,0.8 -0.5,1.2c0,0.5 0.2,0.9 0.5,1.2c0.3,0.3 0.8,0.5 1.2,0.5c0.5,0 0.9,-0.2 1.2,-0.5c0.3,-0.3 0.5,-0.8 0.5,-1.2c0,-0.5 -0.2,-0.9 -0.5,-1.2c-0.3,-0.3 -0.8,-0.5 -1.2,-0.5c-0.4,0 -0.8,0.2 -1.2,0.5z"/>
   <path fill="#ffffff" id="svg_171" d="m163.71589,12.71636l0,6.2l-0.4,0l0,-6.2l0.4,0z"/>
   <path fill="#ffffff" id="svg_172" d="m165.31589,13.81636c0.1,0.1 0.1,0.1 0.1,0.2c0,0.1 0,0.2 -0.1,0.2c-0.1,0.1 -0.2,0.1 -0.2,0.1c-0.1,0 -0.2,0 -0.2,-0.1c-0.1,-0.1 -0.1,-0.2 -0.1,-0.2c0,-0.1 0,-0.2 0.1,-0.2c0.1,-0.1 0.2,-0.1 0.2,-0.1c0,0 0.1,0.1 0.2,0.1zm-0.1,1.3l0,3.8l-0.3,0l0,-3.8l0.3,0z"/>
   <path fill="#ffffff" id="svg_173" d="m166.71589,15.11636l0,-1.6l0.3,0l0,1.6l0.8,0l0,0.3l-0.8,0l0,3.5l-0.3,0l0,-3.5l-0.8,0l0,-0.4l0.8,0l0,0.1z"/>
   <path fill="#ffffff" id="svg_174" d="m169.01589,13.81636c0.1,0.1 0.1,0.1 0.1,0.2c0,0.1 0,0.2 -0.1,0.2c-0.1,0.1 -0.2,0.1 -0.2,0.1c-0.1,0 -0.2,0 -0.2,-0.1c-0.1,-0.1 -0.1,-0.2 -0.1,-0.2c0,-0.1 0,-0.2 0.1,-0.2c0.1,-0.1 0.2,-0.1 0.2,-0.1c0.1,0 0.2,0.1 0.2,0.1zm0,1.3l0,3.8l-0.3,0l0,-3.8l0.3,0z"/>
   <path fill="#ffffff" id="svg_175" d="m174.11589,20.41636l-0.4,0l0,-2.2c-0.1,0.1 -0.1,0.2 -0.2,0.3c-0.4,0.4 -0.9,0.6 -1.5,0.6c-0.6,0 -1.1,-0.2 -1.5,-0.6c-0.4,-0.4 -0.6,-0.9 -0.6,-1.5c0,-0.6 0.2,-1.1 0.6,-1.5c0.4,-0.4 0.9,-0.6 1.5,-0.6c0.6,0 1.1,0.2 1.5,0.6c0.1,0.1 0.2,0.2 0.2,0.3l0,-0.5l0.4,0l0,5.1zm-0.4,-3.2l0,-0.7c-0.1,-0.3 -0.2,-0.6 -0.5,-0.9c-0.3,-0.3 -0.8,-0.5 -1.2,-0.5c-0.5,0 -0.9,0.2 -1.2,0.5c-0.3,0.3 -0.5,0.8 -0.5,1.2c0,0.5 0.2,0.9 0.5,1.2c0.3,0.3 0.8,0.5 1.2,0.5c0.5,0 0.9,-0.2 1.2,-0.5c0.3,-0.1 0.4,-0.4 0.5,-0.8z"/>
   <path fill="#ffffff" id="svg_176" d="m176.51589,19.01636c-0.5,0 -0.9,-0.1 -1.1,-0.4c-0.3,-0.3 -0.4,-0.6 -0.4,-1.1l0,-2.4l0.4,0l0,2.3c0,0.3 0.1,0.6 0.4,0.8c0.2,0.2 0.5,0.3 0.9,0.3c0.3,0 0.6,-0.1 0.8,-0.3c0.2,-0.2 0.3,-0.5 0.3,-0.8l0,-2.4l0.4,0l0,2.4c0,0.4 -0.2,0.8 -0.4,1.1c-0.5,0.3 -0.8,0.5 -1.3,0.5z"/>
   <path fill="#ffffff" id="svg_177" d="m179.11589,16.71636c0,0.1 0,0.1 0,0.2c0,0.5 0.2,0.9 0.5,1.2c0.3,0.3 0.8,0.5 1.2,0.5c0.5,0 0.9,-0.2 1.2,-0.5c0.1,-0.1 0.1,-0.1 0.2,-0.2l0.4,0.1c0,0.1 -0.1,0.2 -0.3,0.3c-0.4,0.4 -0.9,0.6 -1.5,0.6c-0.6,0 -1.1,-0.2 -1.5,-0.6c-0.4,-0.4 -0.6,-0.9 -0.6,-1.5c0,-0.6 0.2,-1.1 0.6,-1.5c0.4,-0.4 0.9,-0.6 1.5,-0.6c0.6,0 1.1,0.2 1.5,0.6c0.4,0.4 0.5,0.8 0.5,1.3l-3.7,0l0,0.1zm0.1,-0.4l3.3,0c-0.1,-0.3 -0.2,-0.5 -0.4,-0.7c-0.3,-0.3 -0.8,-0.5 -1.2,-0.5c-0.5,0 -0.9,0.2 -1.2,0.5c-0.3,0.2 -0.4,0.5 -0.5,0.7z"/>
   <path fill="#ffffff" id="svg_178" d="m184.61589,16.91636c-0.3,-0.2 -0.5,-0.3 -0.6,-0.4c-0.2,-0.2 -0.3,-0.4 -0.3,-0.6c0,-0.3 0.1,-0.5 0.3,-0.6c0.2,-0.2 0.4,-0.3 0.6,-0.3c0.3,0 0.5,0.1 0.6,0.2c0.2,0.2 0.2,0.3 0.2,0.6l0,0l-0.3,0.1c0,-0.2 -0.1,-0.3 -0.2,-0.4c-0.1,-0.1 -0.2,-0.1 -0.4,-0.1c-0.2,0 -0.3,0.1 -0.4,0.2c-0.1,0.1 -0.2,0.2 -0.2,0.4c0,0.2 0.1,0.3 0.2,0.4c0.1,0.1 0.2,0.2 0.4,0.3c0.3,0.2 0.6,0.3 0.7,0.5c0.2,0.2 0.3,0.5 0.3,0.8c0,0.3 -0.1,0.6 -0.3,0.8c-0.2,0.2 -0.5,0.3 -0.8,0.3c-0.3,0 -0.6,-0.1 -0.8,-0.3c-0.2,-0.2 -0.3,-0.5 -0.3,-0.7l0.3,-0.1c0,0.2 0.1,0.4 0.2,0.6c0.2,0.2 0.3,0.2 0.6,0.2c0.2,0 0.4,-0.1 0.6,-0.2c0.2,-0.2 0.2,-0.3 0.2,-0.6c0,-0.2 -0.1,-0.4 -0.2,-0.5c0,-0.4 -0.1,-0.5 -0.4,-0.6z"/>
  </g>
 </g>
</svg>