<svg id="Layer_1" data-name="Layer 1" xmlns="http://www.w3.org/2000/svg" viewBox="0 0 561.07 275.44"><defs><style>.cls-1{fill:#007e9c;}.cls-2{fill:#13617b;}.cls-3{fill:#31617b;}.cls-4{fill:#231f20;}.cls-5{fill:#2f8f90;fill-rule:evenodd;}</style></defs><title>EpiShare_logo</title><path class="cls-1" d="M279.63,268.54c1.4,0,3.33,0,5.78.08a76.34,76.34,0,0,1,7.88.6,52.41,52.41,0,0,1,8.48,1.8,26.78,26.78,0,0,1,7.73,3.68,18.89,18.89,0,0,1,5.63,6.15,18.35,18.35,0,0,1,2.18,9.31c0,5.81-1.28,10.43-3.83,13.89a25.35,25.35,0,0,1-9.38,7.88,36.94,36.94,0,0,1-11.93,3.45,98.5,98.5,0,0,1-11.34.75c-.6,0-1.9,0-3.9-.08a44.19,44.19,0,0,1-7-.82,51.56,51.56,0,0,1-8.41-2.4,27.55,27.55,0,0,1-8.1-4.73,23.83,23.83,0,0,1-6.08-8,26.84,26.84,0,0,1-2.4-11.93h18.31a14.18,14.18,0,0,0,.45,3.23,8.39,8.39,0,0,0,2.1,3.67,12.8,12.8,0,0,0,5,3.08,27.7,27.7,0,0,0,9,1.43,54.14,54.14,0,0,0,10.88-.6,14.94,14.94,0,0,0,5.63-2,5.16,5.16,0,0,0,2.18-2.63,9.56,9.56,0,0,0,.38-2.55,8.49,8.49,0,0,0-.45-2.7,4.94,4.94,0,0,0-2.33-2.48,18.59,18.59,0,0,0-5.86-1.87,71,71,0,0,0-11-.9,49.74,49.74,0,0,1-10.81-1.51,32.75,32.75,0,0,1-9.75-4.12,22.84,22.84,0,0,1-7.06-7,17.94,17.94,0,0,1-2.7-9.91,21.86,21.86,0,0,1,2.7-11,22.9,22.9,0,0,1,7.13-7.73,32.53,32.53,0,0,1,10.13-4.51,47.11,47.11,0,0,1,12-1.5,69.78,69.78,0,0,1,8.86.75,34,34,0,0,1,10.88,3.45,25.76,25.76,0,0,1,9.16,8q3.82,5.25,3.68,14.26H295.09a9.48,9.48,0,0,0-3.22-7.58c-2.16-1.85-6-2.78-11.49-2.78q-6.15,0-9.91,2.33a7.18,7.18,0,0,0-3.75,6.38,5.69,5.69,0,0,0,3.6,5.55A22.37,22.37,0,0,0,279.63,268.54Z" transform="translate(-39.79 -40.69)"/><path class="cls-1" d="M343.36,213.3v34.08q1.36-1.5,3.16-3.15a23,23,0,0,1,4.2-3,23.35,23.35,0,0,1,5.55-2.17,28.63,28.63,0,0,1,7.21-.83,27.92,27.92,0,0,1,9.23,1.65,25.77,25.77,0,0,1,8.56,5,26.92,26.92,0,0,1,6.3,8.41,26.38,26.38,0,0,1,2.48,11.78v49.54H371.74V273.2a46.28,46.28,0,0,0-.45-6.68,14.84,14.84,0,0,0-1.88-5.48,9.63,9.63,0,0,0-4.2-3.75,17.19,17.19,0,0,0-7.43-1.35,18.1,18.1,0,0,0-7.66,1.35,10.56,10.56,0,0,0-4.43,3.75,13.39,13.39,0,0,0-2,5.48,44.84,44.84,0,0,0-.46,6.68l.31,41.43H325.05V213.3Z" transform="translate(-39.79 -40.69)"/><path class="cls-1" d="M473.87,314.63H456V304.12l3.3-4.35a24.07,24.07,0,0,1-6.46,9.6,28.11,28.11,0,0,1-7.65,4.81,30.9,30.9,0,0,1-9,1.95,34.27,34.27,0,0,1-16.51-4.2,31.78,31.78,0,0,1-6.08-4.58,28.66,28.66,0,0,1-5.25-7,40.25,40.25,0,0,1-3.76-10.06,58.21,58.21,0,0,1-1.42-13.66,55.4,55.4,0,0,1,1.5-13.66,40,40,0,0,1,4-10.13,28.38,28.38,0,0,1,5.7-7.13,36.39,36.39,0,0,1,6.53-4.66,39.66,39.66,0,0,1,17.86-4.5,41.49,41.49,0,0,1,16.07,2.78,27.84,27.84,0,0,1,10.88,8,32.52,32.52,0,0,1,6.23,12.61,66.77,66.77,0,0,1,1.95,16.89Zm-35.13-60.35a15.78,15.78,0,0,0-8.93,2.26,15.44,15.44,0,0,0-5.18,5.62,22.75,22.75,0,0,0-2.4,7.29,43.56,43.56,0,0,0,0,14.41,22.77,22.77,0,0,0,2.4,7.28,15.55,15.55,0,0,0,5.18,5.63,18.87,18.87,0,0,0,17.87,0,16.21,16.21,0,0,0,5.25-5.63,21.74,21.74,0,0,0,2.48-7.28,47.82,47.82,0,0,0,.6-7.21,61.3,61.3,0,0,0-.53-8,21.06,21.06,0,0,0-2.25-7.21,12.89,12.89,0,0,0-5.18-5.17C445.75,254.94,442.65,254.28,438.74,254.28Z" transform="translate(-39.79 -40.69)"/><path class="cls-1" d="M485.33,260.74q0-7.8,3.3-12.24a24.4,24.4,0,0,1,7.2-6.68,26,26,0,0,1,10.51-3.3h21v18.17H513.25a9.92,9.92,0,0,0-4.88,1.05,11,11,0,0,0-2.93,2.25,8.56,8.56,0,0,0-1.65,3.3v51.34H485.33Z" transform="translate(-39.79 -40.69)"/><path class="cls-1" d="M600.1,266.89c.2,1.5.38,3.06.53,4.66s.22,3.3.22,5.1v2.7H548.32c.19,1.71.45,3.43.75,5.18a24.42,24.42,0,0,0,1.5,5.18,18.92,18.92,0,0,0,5.1,6.91q3.45,3,9.61,3t9.6-3a18.84,18.84,0,0,0,5.11-6.91H599.5a34.93,34.93,0,0,1-3.37,9.16,35.72,35.72,0,0,1-4.81,6.75,27.48,27.48,0,0,1-5.63,4.73,41.46,41.46,0,0,1-5.85,3.08,40.33,40.33,0,0,1-32.43-1.5,38.27,38.27,0,0,1-6.53-4.58,27.55,27.55,0,0,1-5.7-7,38.74,38.74,0,0,1-4-10.06,62.95,62.95,0,0,1,0-27.32,40,40,0,0,1,4-10.13,28.38,28.38,0,0,1,5.7-7.13,36.74,36.74,0,0,1,6.53-4.66,39.7,39.7,0,0,1,17.87-4.5A42,42,0,0,1,580.74,240a36.61,36.61,0,0,1,6.08,3.53,28.65,28.65,0,0,1,5.7,5.41,35.38,35.38,0,0,1,4.66,7.65A38.89,38.89,0,0,1,600.1,266.89Zm-18.91,0a38.09,38.09,0,0,0-1.88-4.8,15.5,15.5,0,0,0-3.07-4.35,14.4,14.4,0,0,0-4.66-3.08,18.15,18.15,0,0,0-12.61,0,14.25,14.25,0,0,0-4.65,3.08,16.66,16.66,0,0,0-3.15,4.35,22.34,22.34,0,0,0-1.8,4.8Z" transform="translate(-39.79 -40.69)"/><path d="M507.52,71.58,471.55,57A29.52,29.52,0,0,0,448.7,46.75h-2.53l-4.23-1.71c-10.67-5.1-15.87-4.58-16.7-4-4.86,2.2,11.82,21.23,15.37,25.56,3.05,3.71,5.05,5.49,9.52,10.31,7.36,7.93,12,13.06,19.42,19a32.87,32.87,0,0,0,4.62-6.65l.52-1.06a36.47,36.47,0,0,0,2.92-11.64,20.18,20.18,0,0,0-.32-7.78L499.42,80ZM431.28,51.79s-7.7-8.11-5.55-9.09c2-.47,10.85,4.94,12.13,5.74l0,.11.09.05Z" transform="translate(-39.79 -40.69)"/><path d="M466.81,104.45c-7.07-6.67-17.46-15.66-23.65-22.08-7.23-7.5-15.26-16.43-19.85-22.93a26.44,26.44,0,0,0-5.18,16.61c0,.47,0,1.46.07,2.73L407.5,71.9l-7.95,8.21,22.2,11c.81,1.72,8.31,16.35,26.25,14.74,8.3,3.15,24,11.14,28.86,7.56C473.68,110.33,468.15,105.72,466.81,104.45Zm-10.46.26,4.93-2.6,8.6,7.27C462.74,109.51,456.35,104.71,456.35,104.71Z" transform="translate(-39.79 -40.69)"/><path class="cls-2" d="M378.21,78.55c0,13-10.92,23.59-24.39,23.59s-24.39-10.56-24.39-23.59,10.92-23.61,24.39-23.61S378.21,65.51,378.21,78.55Z" transform="translate(-39.79 -40.69)"/><path class="cls-3" d="M325.05,201.93V126a14.88,14.88,0,0,1,14.89-14.88h27.77A14.88,14.88,0,0,1,382.59,126v75.89" transform="translate(-39.79 -40.69)"/><path class="cls-2" d="M401.16,160.13a9,9,0,0,1-12.55-1.85L368.3,131a9,9,0,0,1,1.85-12.55h0a9,9,0,0,1,12.55,1.85L403,147.58a9,9,0,0,1-1.85,12.55Z" transform="translate(-39.79 -40.69)"/><path class="cls-2" d="M390.91,161.51a9,9,0,0,1-.7-12.67l22.7-25.37a9,9,0,0,1,12.66-.7h0a9,9,0,0,1,.71,12.67L403.57,160.8a9,9,0,0,1-12.66.71Z" transform="translate(-39.79 -40.69)"/><path class="cls-2" d="M327.31,122.87a9,9,0,0,1,6.63-10.81L400.4,95.25a9,9,0,0,1,10.82,6.63h0a9,9,0,0,1-6.62,10.81L338.13,129.5a9,9,0,0,1-10.82-6.63Z" transform="translate(-39.79 -40.69)"/><path class="cls-4" d="M147.46,126.92q.47,3.45.81,7.12t.34,7.8V146H68.26q.45,3.9,1.14,7.92a37.39,37.39,0,0,0,2.3,7.92,28.63,28.63,0,0,0,7.81,10.56Q84.78,177,94.2,177t14.69-4.59a28.86,28.86,0,0,0,7.81-10.56h29.85a52.92,52.92,0,0,1-5.17,14A53.64,53.64,0,0,1,134,186.15a42.25,42.25,0,0,1-8.61,7.24,63,63,0,0,1-9,4.7,60.45,60.45,0,0,1-22.27,4.13Q78.81,202,66.88,195.8a57.53,57.53,0,0,1-10-7,42,42,0,0,1-8.72-10.67,59,59,0,0,1-6.09-15.38,84.77,84.77,0,0,1-2.29-20.9A84.75,84.75,0,0,1,42.08,121a61.12,61.12,0,0,1,6.09-15.5,43.33,43.33,0,0,1,8.72-10.9,54.77,54.77,0,0,1,10-7.12A60.71,60.71,0,0,1,94.2,80.54a64.5,64.5,0,0,1,23.65,5.28,55.76,55.76,0,0,1,9.29,5.4,44.21,44.21,0,0,1,8.73,8.26A54.58,54.58,0,0,1,143,111.19,59.46,59.46,0,0,1,147.46,126.92Zm-28.92,0a60.27,60.27,0,0,0-2.87-7.35,23.77,23.77,0,0,0-4.71-6.66,21.93,21.93,0,0,0-7.12-4.7,24.88,24.88,0,0,0-9.64-1.72,24.88,24.88,0,0,0-9.64,1.72,21.93,21.93,0,0,0-7.12,4.7,25.71,25.71,0,0,0-4.82,6.66,35.49,35.49,0,0,0-2.76,7.35Z" transform="translate(-39.79 -40.69)"/><path class="cls-4" d="M162.07,142.07a102,102,0,0,1,3-25.83A49.5,49.5,0,0,1,174.59,97a42.5,42.5,0,0,1,16.64-12.17q10.1-4.25,24.57-4.25a60.3,60.3,0,0,1,27.09,6.89,55.46,55.46,0,0,1,10,7.12,43.77,43.77,0,0,1,8.72,10.9,64.24,64.24,0,0,1,6.2,15.5,80.73,80.73,0,0,1,2.41,20.89,89.21,89.21,0,0,1-2.18,20.9,62.45,62.45,0,0,1-5.74,15.38,43.92,43.92,0,0,1-8,10.67,48.09,48.09,0,0,1-9.3,7,52.35,52.35,0,0,1-25.25,6.42,47.11,47.11,0,0,1-13.78-3,43.17,43.17,0,0,1-11.7-7.35q-6-5-9.88-14.69l5,6.66V238.5H162.07Zm53.73-34.44q-9,0-14.24,3a19.72,19.72,0,0,0-7.92,7.92,32,32,0,0,0-3.44,11,93,93,0,0,0-.81,12.28,73.12,73.12,0,0,0,.92,11A33,33,0,0,0,194.1,164a24.65,24.65,0,0,0,8,8.61q5.16,3.44,13.66,3.44t13.66-3.44a23.76,23.76,0,0,0,7.92-8.61,34.87,34.87,0,0,0,3.67-11.14,66.46,66.46,0,0,0,0-22,34.73,34.73,0,0,0-3.67-11.13,23.6,23.6,0,0,0-7.92-8.61Q224.28,107.63,215.8,107.63Z" transform="translate(-39.79 -40.69)"/><path class="cls-4" d="M282.44,59.58c0-3.36,0-5.89.12-7.57a5.08,5.08,0,0,1,1.37-3.68,6.52,6.52,0,0,1,4.14-1.26q2.87-.1,8.38-.11t8.38.11A6.51,6.51,0,0,1,309,48.33,5.13,5.13,0,0,1,310.34,52c.07,1.68.11,4.21.11,7.57s0,5.9-.11,7.58A5.07,5.07,0,0,1,309,70.83a6.45,6.45,0,0,1-4.13,1.27q-2.88.11-8.38.11t-8.38-.11a6.46,6.46,0,0,1-4.14-1.27,5,5,0,0,1-1.37-3.67Q282.44,64.64,282.44,59.58Zm28,26v116.4h-28V85.53Z" transform="translate(-39.79 -40.69)"/><path class="cls-5" d="M574.39,80.41C574.39,94,563,105,549,105s-25.43-11-25.43-24.6S534.92,55.82,549,55.82,574.39,66.83,574.39,80.41Z" transform="translate(-39.79 -40.69)"/><path class="cls-5" d="M523.54,201.93V126.66a15.5,15.5,0,0,1,15.51-15.51h29a15.51,15.51,0,0,1,15.51,15.51v75.27" transform="translate(-39.79 -40.69)"/><path class="cls-5" d="M516.74,154.13a9.35,9.35,0,0,1-13.08-1.93l-21.17-28.48a9.34,9.34,0,0,1,1.93-13.08h0a9.35,9.35,0,0,1,13.08,1.93l21.16,28.48a9.34,9.34,0,0,1-1.92,13.08Z" transform="translate(-39.79 -40.69)"/><path class="cls-5" d="M506.18,154a9.34,9.34,0,0,1-.74-13.2l23.66-26.44a9.35,9.35,0,0,1,13.2-.73h0a9.34,9.34,0,0,1,.73,13.2l-23.65,26.44a9.35,9.35,0,0,1-13.2.73Z" transform="translate(-39.79 -40.69)"/><path class="cls-5" d="M596.25,162.31a9.35,9.35,0,0,1-12.8-3.31l-18-30.58a9.35,9.35,0,0,1,3.31-12.8h0a9.35,9.35,0,0,1,12.8,3.32l18,30.58a9.33,9.33,0,0,1-3.31,12.79Z" transform="translate(-39.79 -40.69)"/></svg>